Roboto Serif Display Wide-Super Italic.ufo
<glyph name="asterisk" format="2">
  <advance width="434"/>
  <unicode hex="002A"/>
  <outline>
    <contour>
      <point x="67" y="587" type="curve"/>
      <point x="132" y="680" type="line"/>
      <point x="176" y="652"/>
      <point x="187" y="600"/>
      <point x="253" y="558" type="curve"/>
      <point x="239" y="533" type="line"/>
      <point x="168" y="573"/>
      <point x="117" y="558"/>
    </contour>
    <contour>
      <point x="93" y="416" type="curve"/>
      <point x="51" y="507" type="line"/>
      <point x="109" y="535"/>
      <point x="158" y="520"/>
      <point x="241" y="557" type="curve"/>
      <point x="251" y="533" type="line"/>
      <point x="171" y="494"/>
      <point x="147" y="443"/>
    </contour>
    <contour>
      <point x="287" y="380" type="curve"/>
      <point x="149" y="380" type="line"/>
      <point x="158" y="432"/>
      <point x="218" y="466"/>
      <point x="232" y="545" type="curve"/>
      <point x="260" y="545" type="line"/>
      <point x="246" y="466"/>
      <point x="296" y="432"/>
    </contour>
    <contour>
      <point x="205" y="710" type="curve"/>
      <point x="343" y="710" type="line"/>
      <point x="334" y="658"/>
      <point x="274" y="624"/>
      <point x="260" y="545" type="curve"/>
      <point x="232" y="545" type="line"/>
      <point x="246" y="624"/>
      <point x="196" y="658"/>
    </contour>
    <contour>
      <point x="362" y="411" type="line"/>
      <point x="318" y="439"/>
      <point x="305" y="491"/>
      <point x="239" y="533" type="curve"/>
      <point x="253" y="558" type="line"/>
      <point x="324" y="518"/>
      <point x="377" y="532"/>
      <point x="426" y="504" type="curve"/>
    </contour>
    <contour>
      <point x="441" y="584" type="line"/>
      <point x="383" y="556"/>
      <point x="333" y="571"/>
      <point x="251" y="533" type="curve"/>
      <point x="241" y="557" type="line"/>
      <point x="321" y="598"/>
      <point x="346" y="648"/>
      <point x="400" y="675" type="curve"/>
    </contour>
  </outline>
</glyph>
<glyph name="comma" format="2">
  <advance width="334"/>
  <unicode hex="002C"/>
  <outline>
    <contour>
      <point x="85" y="-171" type="line"/>
      <point x="218" y="-115"/>
      <point x="309" y="-30"/>
      <point x="309" y="76" type="curve" smooth="yes"/>
      <point x="309" y="171"/>
      <point x="257" y="214"/>
      <point x="170" y="214" type="curve" smooth="yes"/>
      <point x="82" y="214"/>
      <point x="35" y="170"/>
      <point x="35" y="105" type="curve" smooth="yes"/>
      <point x="35" y="40"/>
      <point x="81" y="-6"/>
      <point x="170" y="-6" type="curve" smooth="yes"/>
      <point x="221" y="-6"/>
      <point x="245" y="10"/>
      <point x="262" y="30" type="curve"/>
      <point x="261" y="32"/>
      <point x="259" y="33"/>
      <point x="256" y="33" type="curve"/>
      <point x="213" y="-26"/>
      <point x="115" y="-66"/>
      <point x="7" y="-95" type="curve"/>
    </contour>
  </outline>
</glyph>
<glyph name="less" format="2">
  <advance width="717"/>
  <unicode hex="003C"/>
  <outline>
    <contour>
      <point x="577" y="131" type="line"/>
      <point x="109" y="314" type="line"/>
      <point x="119" y="376" type="line"/>
      <point x="648" y="559" type="line"/>
      <point x="637" y="494" type="line"/>
      <point x="156" y="333" type="line"/>
      <point x="159" y="352" type="line"/>
      <point x="588" y="193" type="line"/>
    </contour>
  </outline>
</glyph>
<glyph name="at" format="2">
  <advance width="1117"/>
  <unicode hex="0040"/>
  <outline>
    <contour>
      <point x="511" y="-153" type="curve" smooth="yes"/>
      <point x="649" y="-153"/>
      <point x="767" y="-128"/>
      <point x="868" y="-86" type="curve"/>
      <point x="857" y="-38" type="line"/>
      <point x="757" y="-79"/>
      <point x="663" y="-103"/>
      <point x="520" y="-103" type="curve" smooth="yes"/>
      <point x="288" y="-103"/>
      <point x="141" y="17"/>
      <point x="141" y="227" type="curve" smooth="yes"/>
      <point x="141" y="465"/>
      <point x="323" y="623"/>
      <point x="609" y="623" type="curve" smooth="yes"/>
      <point x="842" y="623"/>
      <point x="987" y="514"/>
      <point x="987" y="341" type="curve" smooth="yes"/>
      <point x="987" y="189"/>
      <point x="904" y="102"/>
      <point x="837" y="102" type="curve" smooth="yes"/>
      <point x="819" y="102"/>
      <point x="809" y="111"/>
      <point x="809" y="126" type="curve" smooth="yes"/>
      <point x="809" y="136"/>
      <point x="812" y="150"/>
      <point x="817" y="170" type="curve" smooth="yes"/>
      <point x="897" y="471" type="line"/>
      <point x="729" y="471" type="line"/>
      <point x="659" y="403" type="line"/>
      <point x="648" y="399" type="line"/>
      <point x="577" y="138" type="line"/>
      <point x="594" y="136" type="line"/>
      <point x="616" y="75"/>
      <point x="683" y="52"/>
      <point x="780" y="52" type="curve" smooth="yes"/>
      <point x="952" y="52"/>
      <point x="1098" y="166"/>
      <point x="1098" y="338" type="curve" smooth="yes"/>
      <point x="1098" y="543"/>
      <point x="893" y="673"/>
      <point x="609" y="673" type="curve" smooth="yes"/>
      <point x="247" y="673"/>
      <point x="10" y="492"/>
      <point x="10" y="223" type="curve" smooth="yes"/>
      <point x="10" y="-13"/>
      <point x="217" y="-153"/>
    </contour>
    <contour>
      <point x="430" y="46" type="curve" smooth="yes"/>
      <point x="513" y="46"/>
      <point x="575" y="78"/>
      <point x="615" y="149" type="curve"/>
      <point x="599" y="195" type="line"/>
      <point x="575" y="139"/>
      <point x="549" y="118"/>
      <point x="518" y="118" type="curve" smooth="yes"/>
      <point x="487" y="118"/>
      <point x="469" y="146"/>
      <point x="469" y="188" type="curve" smooth="yes"/>
      <point x="469" y="291"/>
      <point x="519" y="419"/>
      <point x="584" y="419" type="curve" smooth="yes"/>
      <point x="619" y="419"/>
      <point x="647" y="398"/>
      <point x="654" y="357" type="curve"/>
      <point x="683" y="391" type="line"/>
      <point x="658" y="448"/>
      <point x="599" y="477"/>
      <point x="510" y="477" type="curve" smooth="yes"/>
      <point x="340" y="477"/>
      <point x="233" y="358"/>
      <point x="233" y="228" type="curve" smooth="yes"/>
      <point x="233" y="114"/>
      <point x="322" y="46"/>
    </contour>
  </outline>
</glyph>
<glyph name="B" format="2">
  <advance width="945"/>
  <unicode hex="0042"/>
  <outline>
    <contour>
      <point x="460" y="346" type="line" smooth="yes"/>
      <point x="531" y="346"/>
      <point x="573" y="311"/>
      <point x="573" y="227" type="curve" smooth="yes"/>
      <point x="573" y="142"/>
      <point x="532" y="50"/>
      <point x="425" y="50" type="curve" smooth="yes"/>
      <point x="375" y="50" type="line"/>
      <point x="427" y="346" type="line"/>
    </contour>
    <contour>
      <point x="514" y="660" type="line" smooth="yes"/>
      <point x="565" y="660"/>
      <point x="601" y="636"/>
      <point x="601" y="569" type="curve" smooth="yes"/>
      <point x="601" y="475"/>
      <point x="561" y="394"/>
      <point x="463" y="394" type="curve" smooth="yes"/>
      <point x="436" y="394" type="line"/>
      <point x="483" y="660" type="line"/>
    </contour>
    <contour>
      <point x="620" y="371" type="line"/>
      <point x="823" y="372"/>
      <point x="921" y="452"/>
      <point x="921" y="554" type="curve" smooth="yes"/>
      <point x="921" y="659"/>
      <point x="845" y="710"/>
      <point x="578" y="710" type="curve" smooth="yes"/>
      <point x="96" y="710" type="line"/>
      <point x="88" y="668" type="line"/>
      <point x="100" y="668" type="line" smooth="yes"/>
      <point x="133" y="668"/>
      <point x="156" y="662"/>
      <point x="151" y="635" type="curve" smooth="yes"/>
      <point x="53" y="75" type="line" smooth="yes"/>
      <point x="48" y="48"/>
      <point x="23" y="42"/>
      <point x="-10" y="42" type="curve" smooth="yes"/>
      <point x="-22" y="42" type="line"/>
      <point x="-30" y="0" type="line"/>
      <point x="539" y="0" type="line" smooth="yes"/>
      <point x="793" y="0"/>
      <point x="895" y="75"/>
      <point x="895" y="218" type="curve" smooth="yes"/>
      <point x="895" y="323"/>
      <point x="805" y="381"/>
      <point x="619" y="384" type="curve"/>
      <point x="640" y="367" type="line"/>
      <point x="645" y="389" type="line"/>
    </contour>
  </outline>
</glyph>
<glyph name="I" format="2">
  <advance width="513"/>
  <unicode hex="0049"/>
  <outline>
    <contour>
      <point x="53" y="75" type="line" smooth="yes"/>
      <point x="48" y="48"/>
      <point x="23" y="42"/>
      <point x="-10" y="42" type="curve" smooth="yes"/>
      <point x="-22" y="42" type="line"/>
      <point x="-30" y="0" type="line"/>
      <point x="425" y="0" type="line"/>
      <point x="433" y="42" type="line"/>
      <point x="421" y="42" type="line" smooth="yes"/>
      <point x="388" y="42"/>
      <point x="365" y="48"/>
      <point x="370" y="75" type="curve" smooth="yes"/>
      <point x="468" y="635" type="line" smooth="yes"/>
      <point x="473" y="662"/>
      <point x="498" y="668"/>
      <point x="531" y="668" type="curve" smooth="yes"/>
      <point x="545" y="668" type="line"/>
      <point x="553" y="710" type="line"/>
      <point x="96" y="710" type="line"/>
      <point x="88" y="668" type="line"/>
      <point x="100" y="668" type="line" smooth="yes"/>
      <point x="133" y="668"/>
      <point x="156" y="662"/>
      <point x="151" y="635" type="curve" smooth="yes"/>
    </contour>
  </outline>
</glyph>
<glyph name="M" format="2">
  <advance width="1183"/>
  <unicode hex="004D"/>
  <outline>
    <contour>
      <point x="-31" y="0" type="line"/>
      <point x="169" y="0" type="line"/>
      <point x="177" y="42" type="line"/>
      <point x="169" y="42" type="line" smooth="yes"/>
      <point x="134" y="42"/>
      <point x="108" y="52"/>
      <point x="110" y="62" type="curve"/>
      <point x="222" y="692" type="line"/>
      <point x="198" y="691" type="line"/>
      <point x="322" y="0" type="line"/>
      <point x="485" y="0" type="line"/>
      <point x="853" y="690" type="line"/>
      <point x="830" y="692" type="line"/>
      <point x="718" y="51" type="line"/>
      <point x="717" y="45"/>
      <point x="685" y="42"/>
      <point x="658" y="42" type="curve" smooth="yes"/>
      <point x="648" y="42" type="line"/>
      <point x="640" y="0" type="line"/>
      <point x="1095" y="0" type="line"/>
      <point x="1103" y="42" type="line"/>
      <point x="1091" y="42" type="line" smooth="yes"/>
      <point x="1058" y="42"/>
      <point x="1035" y="48"/>
      <point x="1040" y="75" type="curve" smooth="yes"/>
      <point x="1138" y="635" type="line" smooth="yes"/>
      <point x="1143" y="662"/>
      <point x="1168" y="668"/>
      <point x="1201" y="668" type="curve" smooth="yes"/>
      <point x="1215" y="668" type="line"/>
      <point x="1223" y="710" type="line"/>
      <point x="798" y="710" type="line"/>
      <point x="568" y="271" type="line"/>
      <point x="606" y="271" type="line"/>
      <point x="532" y="710" type="line"/>
      <point x="95" y="710" type="line"/>
      <point x="87" y="668" type="line"/>
      <point x="99" y="668" type="line" smooth="yes"/>
      <point x="132" y="668"/>
      <point x="156" y="664"/>
      <point x="151" y="635" type="curve" smooth="yes"/>
      <point x="54" y="91" type="line" smooth="yes"/>
      <point x="48" y="55"/>
      <point x="23" y="42"/>
      <point x="-12" y="42" type="curve" smooth="yes"/>
      <point x="-23" y="42" type="line"/>
    </contour>
  </outline>
</glyph>
<glyph name="N" format="2">
  <advance width="877"/>
  <unicode hex="004E"/>
  <outline>
    <contour>
      <point x="-30" y="0" type="line"/>
      <point x="183" y="0" type="line"/>
      <point x="191" y="42" type="line"/>
      <point x="174" y="42" type="line" smooth="yes"/>
      <point x="139" y="42"/>
      <point x="109" y="50"/>
      <point x="111" y="64" type="curve" smooth="yes"/>
      <point x="220" y="685" type="line"/>
      <point x="159" y="682" type="line"/>
      <point x="486" y="0" type="line"/>
      <point x="719" y="0" type="line"/>
      <point x="829" y="621" type="line" smooth="yes"/>
      <point x="835" y="655"/>
      <point x="859" y="668"/>
      <point x="892" y="668" type="curve" smooth="yes"/>
      <point x="906" y="668" type="line"/>
      <point x="914" y="710" type="line"/>
      <point x="701" y="710" type="line"/>
      <point x="693" y="668" type="line"/>
      <point x="710" y="668" type="line" smooth="yes"/>
      <point x="744" y="668"/>
      <point x="773" y="662"/>
      <point x="773" y="646" type="curve"/>
      <point x="683" y="134" type="line"/>
      <point x="741" y="179" type="line"/>
      <point x="486" y="710" type="line"/>
      <point x="96" y="710" type="line"/>
      <point x="88" y="668" type="line"/>
      <point x="100" y="668" type="line" smooth="yes"/>
      <point x="133" y="668"/>
      <point x="157" y="662"/>
      <point x="152" y="635" type="curve" smooth="yes"/>
      <point x="55" y="91" type="line" smooth="yes"/>
      <point x="48" y="53"/>
      <point x="24" y="42"/>
      <point x="-11" y="42" type="curve" smooth="yes"/>
      <point x="-22" y="42" type="line"/>
    </contour>
  </outline>
</glyph>
<glyph name="P" format="2">
  <advance width="910"/>
  <unicode hex="0050"/>
  <outline>
    <contour>
      <point x="453" y="42" type="line"/>
      <point x="436" y="42" type="line" smooth="yes"/>
      <point x="399" y="42"/>
      <point x="370" y="46"/>
      <point x="372" y="60" type="curve" smooth="yes"/>
      <point x="410" y="274" type="line"/>
      <point x="527" y="274" type="line" smooth="yes"/>
      <point x="800" y="274"/>
      <point x="908" y="368"/>
      <point x="908" y="522" type="curve" smooth="yes"/>
      <point x="908" y="634"/>
      <point x="813" y="710"/>
      <point x="574" y="710" type="curve" smooth="yes"/>
      <point x="96" y="710" type="line"/>
      <point x="88" y="668" type="line"/>
      <point x="100" y="668" type="line" smooth="yes"/>
      <point x="133" y="668"/>
      <point x="156" y="662"/>
      <point x="151" y="635" type="curve" smooth="yes"/>
      <point x="53" y="75" type="line" smooth="yes"/>
      <point x="48" y="48"/>
      <point x="23" y="42"/>
      <point x="-10" y="42" type="curve" smooth="yes"/>
      <point x="-22" y="42" type="line"/>
      <point x="-30" y="0" type="line"/>
      <point x="445" y="0" type="line"/>
    </contour>
    <contour>
      <point x="600" y="553" type="curve" smooth="yes"/>
      <point x="600" y="454"/>
      <point x="562" y="327"/>
      <point x="446" y="327" type="curve" smooth="yes"/>
      <point x="419" y="327" type="line"/>
      <point x="477" y="657" type="line"/>
      <point x="496" y="657" type="line" smooth="yes"/>
      <point x="566" y="657"/>
      <point x="600" y="631"/>
    </contour>
  </outline>
</glyph>
<glyph name="S" format="2">
  <advance width="777"/>
  <unicode hex="0053"/>
  <outline>
    <contour>
      <point x="400" y="-10" type="curve" smooth="yes"/>
      <point x="612" y="-10"/>
      <point x="744" y="97"/>
      <point x="744" y="252" type="curve" smooth="yes"/>
      <point x="744" y="371"/>
      <point x="665" y="434"/>
      <point x="481" y="495" type="curve" smooth="yes"/>
      <point x="361" y="535"/>
      <point x="335" y="556"/>
      <point x="335" y="596" type="curve" smooth="yes"/>
      <point x="335" y="636"/>
      <point x="370" y="667"/>
      <point x="445" y="667" type="curve" smooth="yes"/>
      <point x="539" y="667"/>
      <point x="626" y="621"/>
      <point x="659" y="525" type="curve"/>
      <point x="707" y="525" type="line"/>
      <point x="740" y="710" type="line"/>
      <point x="690" y="710" type="line"/>
      <point x="648" y="596" type="line"/>
      <point x="654" y="590"/>
      <point x="672" y="591"/>
      <point x="682" y="593" type="curve"/>
      <point x="648" y="669"/>
      <point x="544" y="720"/>
      <point x="408" y="720" type="curve" smooth="yes"/>
      <point x="186" y="720"/>
      <point x="70" y="612"/>
      <point x="70" y="473" type="curve" smooth="yes"/>
      <point x="70" y="353"/>
      <point x="133" y="290"/>
      <point x="320" y="231" type="curve" smooth="yes"/>
      <point x="443" y="192"/>
      <point x="483" y="168"/>
      <point x="483" y="125" type="curve" smooth="yes"/>
      <point x="483" y="76"/>
      <point x="446" y="43"/>
      <point x="361" y="43" type="curve" smooth="yes"/>
      <point x="261" y="43"/>
      <point x="132" y="86"/>
      <point x="86" y="215" type="curve"/>
      <point x="32" y="215" type="line"/>
      <point x="-6" y="0" type="line"/>
      <point x="44" y="0" type="line"/>
      <point x="89" y="122" type="line"/>
      <point x="87" y="126"/>
      <point x="78" y="129"/>
      <point x="71" y="126" type="curve"/>
      <point x="121" y="44"/>
      <point x="239" y="-10"/>
    </contour>
  </outline>
</glyph>
<glyph name="U" format="2">
  <advance width="906"/>
  <unicode hex="0055"/>
  <outline>
    <contour>
      <point x="413" y="314" type="curve" smooth="yes"/>
      <point x="473" y="658" type="line" smooth="yes"/>
      <point x="474" y="665"/>
      <point x="507" y="668"/>
      <point x="533" y="668" type="curve" smooth="yes"/>
      <point x="543" y="668" type="line"/>
      <point x="551" y="710" type="line"/>
      <point x="96" y="710" type="line"/>
      <point x="88" y="668" type="line"/>
      <point x="101" y="668" type="line" smooth="yes"/>
      <point x="134" y="668"/>
      <point x="157" y="662"/>
      <point x="153" y="637" type="curve" smooth="yes"/>
      <point x="102" y="348" type="line" smooth="yes"/>
      <point x="93" y="296"/>
      <point x="88" y="265"/>
      <point x="88" y="232" type="curve" smooth="yes"/>
      <point x="88" y="68"/>
      <point x="207" y="-10"/>
      <point x="447" y="-10" type="curve" smooth="yes"/>
      <point x="652" y="-10"/>
      <point x="763" y="71"/>
      <point x="795" y="252" type="curve" smooth="yes"/>
      <point x="860" y="622" type="line" smooth="yes"/>
      <point x="866" y="657"/>
      <point x="891" y="668"/>
      <point x="924" y="668" type="curve" smooth="yes"/>
      <point x="937" y="668" type="line"/>
      <point x="945" y="710" type="line"/>
      <point x="746" y="710" type="line"/>
      <point x="738" y="668" type="line"/>
      <point x="749" y="668" type="line" smooth="yes"/>
      <point x="777" y="668"/>
      <point x="807" y="662"/>
      <point x="804" y="646" type="curve" smooth="yes"/>
      <point x="736" y="261" type="line" smooth="yes"/>
      <point x="713" y="130"/>
      <point x="650" y="85"/>
      <point x="536" y="85" type="curve" smooth="yes"/>
      <point x="447" y="85"/>
      <point x="402" y="134"/>
      <point x="402" y="216" type="curve" smooth="yes"/>
      <point x="402" y="243"/>
      <point x="406" y="272"/>
    </contour>
  </outline>
</glyph>
<glyph name="V" format="2">
  <advance width="852"/>
  <unicode hex="0056"/>
  <outline>
    <contour>
      <point x="524" y="158" type="line"/>
      <point x="450" y="658" type="line"/>
      <point x="452" y="665"/>
      <point x="477" y="668"/>
      <point x="505" y="668" type="curve" smooth="yes"/>
      <point x="523" y="668" type="line"/>
      <point x="531" y="710" type="line"/>
      <point x="76" y="710" type="line"/>
      <point x="68" y="668" type="line"/>
      <point x="77" y="668" type="line" smooth="yes"/>
      <point x="98" y="668"/>
      <point x="111" y="663"/>
      <point x="115" y="638" type="curve" smooth="yes"/>
      <point x="228" y="0" type="line"/>
      <point x="457" y="0" type="line"/>
      <point x="836" y="616" type="line" smooth="yes"/>
      <point x="860" y="654"/>
      <point x="869" y="668"/>
      <point x="896" y="668" type="curve" smooth="yes"/>
      <point x="904" y="668" type="line"/>
      <point x="912" y="710" type="line"/>
      <point x="731" y="710" type="line"/>
      <point x="723" y="668" type="line"/>
      <point x="739" y="668" type="line" smooth="yes"/>
      <point x="779" y="668"/>
      <point x="790" y="659"/>
      <point x="790" y="650" type="curve"/>
      <point x="496" y="158" type="line"/>
    </contour>
  </outline>
</glyph>
<glyph name="bracketleft" format="2">
  <advance width="341"/>
  <unicode hex="005B"/>
  <outline>
    <contour>
      <point x="250" y="-88" type="line"/>
      <point x="149" y="-88" type="line"/>
      <point x="289" y="708" type="line"/>
      <point x="390" y="708" type="line"/>
      <point x="398" y="750" type="line"/>
      <point x="122" y="750" type="line"/>
      <point x="-34" y="-130" type="line"/>
      <point x="242" y="-130" type="line"/>
    </contour>
  </outline>
</glyph>
<glyph name="asciicircum" format="2">
  <advance width="537"/>
  <unicode hex="005E"/>
  <outline>
    <contour>
      <point x="96" y="350" type="line"/>
      <point x="341" y="681" type="line"/>
      <point x="346" y="710" type="line"/>
      <point x="303" y="710" type="line"/>
      <point x="33" y="350" type="line"/>
    </contour>
    <contour>
      <point x="445" y="350" type="line"/>
      <point x="509" y="350" type="line"/>
      <point x="367" y="710" type="line"/>
      <point x="323" y="710" type="line"/>
      <point x="318" y="681" type="line"/>
    </contour>
  </outline>
</glyph>
<glyph name="f" format="2">
  <advance width="524"/>
  <unicode hex="0066"/>
  <outline>
    <contour>
      <point x="47" y="524" type="line"/>
      <point x="39" y="476" type="line"/>
      <point x="528" y="476" type="line"/>
      <point x="536" y="524" type="line"/>
    </contour>
    <contour>
      <point x="521" y="708" type="curve" smooth="yes"/>
      <point x="555" y="708"/>
      <point x="579" y="698"/>
      <point x="592" y="692" type="curve"/>
      <point x="602" y="742" type="line"/>
      <point x="581" y="750"/>
      <point x="519" y="760"/>
      <point x="472" y="760" type="curve" smooth="yes"/>
      <point x="279" y="760"/>
      <point x="153" y="707"/>
      <point x="131" y="546" type="curve" smooth="yes"/>
      <point x="24" y="-223" type="line"/>
      <point x="279" y="-223" type="line"/>
      <point x="441" y="628" type="line" smooth="yes"/>
      <point x="452" y="685"/>
      <point x="478" y="708"/>
    </contour>
  </outline>
</glyph>
<glyph name="g" format="2">
  <advance width="834"/>
  <unicode hex="0067"/>
  <outline>
    <contour>
      <point x="440" y="34" type="line" smooth="yes"/>
      <point x="410" y="-122"/>
      <point x="373" y="-185"/>
      <point x="281" y="-185" type="curve" smooth="yes"/>
      <point x="226" y="-185"/>
      <point x="190" y="-164"/>
      <point x="176" y="-137" type="curve"/>
      <point x="153" y="-164"/>
      <point x="164" y="-185"/>
      <point x="198" y="-191" type="curve"/>
      <point x="222" y="-51" type="line"/>
      <point x="2" y="-51" type="line"/>
      <point x="-15" y="-152" type="line"/>
      <point x="43" y="-193"/>
      <point x="164" y="-233"/>
      <point x="320" y="-233" type="curve" smooth="yes"/>
      <point x="574" y="-233"/>
      <point x="707" y="-147"/>
      <point x="740" y="33" type="curve" smooth="yes"/>
      <point x="829" y="524" type="line"/>
      <point x="649" y="524" type="line"/>
      <point x="537" y="476" type="line"/>
      <point x="523" y="471" type="line"/>
    </contour>
    <contour>
      <point x="584" y="449" type="line"/>
      <point x="546" y="502"/>
      <point x="481" y="534"/>
      <point x="371" y="534" type="curve" smooth="yes"/>
      <point x="143" y="534"/>
      <point x="23" y="384"/>
      <point x="23" y="216" type="curve" smooth="yes"/>
      <point x="23" y="83"/>
      <point x="122" y="0"/>
      <point x="263" y="0" type="curve" smooth="yes"/>
      <point x="391" y="0"/>
      <point x="467" y="72"/>
      <point x="520" y="204" type="curve"/>
      <point x="483" y="224" type="line"/>
      <point x="460" y="137"/>
      <point x="418" y="97"/>
      <point x="384" y="97" type="curve" smooth="yes"/>
      <point x="352" y="97"/>
      <point x="329" y="119"/>
      <point x="329" y="184" type="curve" smooth="yes"/>
      <point x="329" y="305"/>
      <point x="375" y="471"/>
      <point x="463" y="471" type="curve" smooth="yes"/>
      <point x="498" y="471"/>
      <point x="526" y="452"/>
      <point x="546" y="410" type="curve"/>
    </contour>
  </outline>
</glyph>
<glyph name="k" format="2">
  <advance width="832"/>
  <unicode hex="006B"/>
  <outline>
    <contour>
      <point x="729" y="143" type="line" smooth="yes"/>
      <point x="756" y="68"/>
      <point x="767" y="50"/>
      <point x="794" y="50" type="curve" smooth="yes"/>
      <point x="807" y="50"/>
      <point x="819" y="53"/>
      <point x="822" y="54" type="curve"/>
      <point x="815" y="15" type="line"/>
      <point x="787" y="1"/>
      <point x="710" y="-10"/>
      <point x="638" y="-10" type="curve" smooth="yes"/>
      <point x="526" y="-10"/>
      <point x="461" y="26"/>
      <point x="427" y="132" type="curve" smooth="yes"/>
      <point x="379" y="281" type="line"/>
      <point x="382" y="294" type="line"/>
      <point x="515" y="376"/>
      <point x="593" y="441"/>
      <point x="650" y="524" type="curve"/>
      <point x="856" y="524" type="line"/>
      <point x="856" y="514" type="line"/>
      <point x="805" y="469"/>
      <point x="723" y="420"/>
      <point x="589" y="371" type="curve"/>
      <point x="636" y="400" type="line"/>
    </contour>
    <contour>
      <point x="11" y="0" type="line"/>
      <point x="134" y="682" type="line" smooth="yes"/>
      <point x="137" y="698"/>
      <point x="124" y="705"/>
      <point x="98" y="708" type="curve" smooth="yes"/>
      <point x="82" y="710" type="line"/>
      <point x="89" y="750" type="line"/>
      <point x="445" y="750" type="line"/>
      <point x="310" y="0" type="line"/>
    </contour>
  </outline>
</glyph>
<glyph name="l" format="2">
  <advance width="413"/>
  <unicode hex="006C"/>
  <outline>
    <contour>
      <point x="127" y="682" type="curve" smooth="yes"/>
      <point x="47" y="235" type="line" smooth="yes"/>
      <point x="37" y="182"/>
      <point x="32" y="146"/>
      <point x="32" y="117" type="curve" smooth="yes"/>
      <point x="32" y="29"/>
      <point x="93" y="-10"/>
      <point x="216" y="-10" type="curve" smooth="yes"/>
      <point x="290" y="-10"/>
      <point x="345" y="3"/>
      <point x="380" y="19" type="curve"/>
      <point x="387" y="58" type="line"/>
      <point x="383" y="57"/>
      <point x="367" y="53"/>
      <point x="353" y="53" type="curve" smooth="yes"/>
      <point x="333" y="53"/>
      <point x="320" y="60"/>
      <point x="320" y="79" type="curve" smooth="yes"/>
      <point x="320" y="94"/>
      <point x="327" y="132"/>
      <point x="334" y="173" type="curve" smooth="yes"/>
      <point x="438" y="750" type="line"/>
      <point x="82" y="750" type="line"/>
      <point x="75" y="710" type="line"/>
      <point x="91" y="708" type="line" smooth="yes"/>
      <point x="117" y="705"/>
      <point x="130" y="698"/>
    </contour>
  </outline>
</glyph>
<glyph name="o" format="2">
  <advance width="846"/>
  <unicode hex="006F"/>
  <outline>
    <contour>
      <point x="505" y="230" type="curve" smooth="yes"/>
      <point x="487" y="136"/>
      <point x="451" y="40"/>
      <point x="395" y="40" type="curve" smooth="yes"/>
      <point x="353" y="40"/>
      <point x="331" y="72"/>
      <point x="331" y="150" type="curve" smooth="yes"/>
      <point x="331" y="184"/>
      <point x="334" y="230"/>
      <point x="346" y="294" type="curve" smooth="yes"/>
      <point x="364" y="388"/>
      <point x="400" y="484"/>
      <point x="456" y="484" type="curve" smooth="yes"/>
      <point x="498" y="484"/>
      <point x="520" y="452"/>
      <point x="520" y="374" type="curve" smooth="yes"/>
      <point x="520" y="340"/>
      <point x="517" y="294"/>
    </contour>
    <contour>
      <point x="27" y="245" type="curve" smooth="yes"/>
      <point x="27" y="79"/>
      <point x="174" y="-10"/>
      <point x="409" y="-10" type="curve" smooth="yes"/>
      <point x="671" y="-10"/>
      <point x="824" y="108"/>
      <point x="824" y="279" type="curve" smooth="yes"/>
      <point x="824" y="445"/>
      <point x="677" y="534"/>
      <point x="442" y="534" type="curve" smooth="yes"/>
      <point x="180" y="534"/>
      <point x="27" y="416"/>
    </contour>
  </outline>
</glyph>
<glyph name="r" format="2">
  <advance width="600"/>
  <unicode hex="0072"/>
  <outline>
    <contour>
      <point x="12" y="0" type="line"/>
      <point x="93" y="456" type="line" smooth="yes"/>
      <point x="96" y="472"/>
      <point x="83" y="479"/>
      <point x="57" y="482" type="curve" smooth="yes"/>
      <point x="42" y="484" type="line"/>
      <point x="49" y="524" type="line"/>
      <point x="394" y="524" type="line"/>
      <point x="365" y="333" type="line"/>
      <point x="371" y="335" type="line"/>
      <point x="311" y="0" type="line"/>
    </contour>
    <contour>
      <point x="611" y="521" type="curve"/>
      <point x="573" y="316" type="line"/>
      <point x="551" y="323"/>
      <point x="515" y="329"/>
      <point x="477" y="329" type="curve" smooth="yes"/>
      <point x="436" y="329"/>
      <point x="394" y="324"/>
      <point x="363" y="309" type="curve"/>
      <point x="358" y="331" type="line"/>
      <point x="401" y="463"/>
      <point x="471" y="528"/>
      <point x="557" y="528" type="curve" smooth="yes"/>
      <point x="587" y="528"/>
      <point x="604" y="523"/>
    </contour>
  </outline>
</glyph>
<glyph name="t" format="2">
  <advance width="495"/>
  <unicode hex="0074"/>
  <outline>
    <contour>
      <point x="282" y="-10" type="curve" smooth="yes"/>
      <point x="352" y="-10"/>
      <point x="423" y="8"/>
      <point x="447" y="21" type="curve"/>
      <point x="452" y="60" type="line"/>
      <point x="442" y="56"/>
      <point x="425" y="50"/>
      <point x="401" y="50" type="curve" smooth="yes"/>
      <point x="363" y="50"/>
      <point x="340" y="64"/>
      <point x="340" y="106" type="curve" smooth="yes"/>
      <point x="340" y="132"/>
      <point x="348" y="184"/>
      <point x="357" y="234" type="curve" smooth="yes"/>
      <point x="432" y="663" type="line"/>
      <point x="186" y="663" type="line"/>
      <point x="146" y="586" type="line" smooth="yes"/>
      <point x="115" y="527"/>
      <point x="95" y="519"/>
      <point x="47" y="519" type="curve" smooth="yes"/>
      <point x="36" y="519" type="line"/>
      <point x="28" y="476" type="line"/>
      <point x="503" y="476" type="line"/>
      <point x="512" y="524" type="line"/>
      <point x="152" y="524" type="line"/>
      <point x="95" y="498" type="line"/>
      <point x="57" y="278" type="line" smooth="yes"/>
      <point x="48" y="227"/>
      <point x="42" y="181"/>
      <point x="42" y="148" type="curve" smooth="yes"/>
      <point x="42" y="41"/>
      <point x="136" y="-10"/>
    </contour>
  </outline>
</glyph>
<glyph name="x" format="2">
  <advance width="741"/>
  <unicode hex="0078"/>
  <outline>
    <contour>
      <point x="470" y="276" type="line"/>
      <point x="755" y="514" type="line"/>
      <point x="755" y="524" type="line"/>
      <point x="574" y="524" type="line"/>
      <point x="452" y="297" type="line"/>
    </contour>
    <contour>
      <point x="-10" y="0" type="line"/>
      <point x="180" y="0" type="line"/>
      <point x="300" y="237" type="line"/>
      <point x="280" y="266" type="line"/>
      <point x="-10" y="13" type="line"/>
    </contour>
    <contour>
      <point x="531" y="-10" type="curve" smooth="yes"/>
      <point x="603" y="-10"/>
      <point x="670" y="1"/>
      <point x="698" y="15" type="curve"/>
      <point x="705" y="54" type="line"/>
      <point x="704" y="54"/>
      <point x="690" y="50"/>
      <point x="677" y="50" type="curve" smooth="yes"/>
      <point x="645" y="50"/>
      <point x="626" y="63"/>
      <point x="599" y="121" type="curve" smooth="yes"/>
      <point x="413" y="524" type="line"/>
      <point x="99" y="524" type="line"/>
      <point x="92" y="484" type="line"/>
      <point x="107" y="482" type="line" smooth="yes"/>
      <point x="128" y="479"/>
      <point x="138" y="470"/>
      <point x="149" y="446" type="curve" smooth="yes"/>
      <point x="304" y="111" type="line" smooth="yes"/>
      <point x="346" y="20"/>
      <point x="409" y="-10"/>
    </contour>
  </outline>
</glyph>
<glyph name="y" format="2">
  <advance width="728"/>
  <unicode hex="0079"/>
  <outline>
    <contour>
      <point x="283" y="-89" type="line"/>
      <point x="83" y="438" type="line" smooth="yes"/>
      <point x="72" y="468"/>
      <point x="66" y="478"/>
      <point x="37" y="482" type="curve" smooth="yes"/>
      <point x="23" y="484" type="line"/>
      <point x="30" y="524" type="line"/>
      <point x="366" y="524" type="line"/>
      <point x="496" y="126" type="line"/>
      <point x="387" y="9" type="line"/>
    </contour>
    <contour>
      <point x="417" y="58" type="line"/>
      <point x="553" y="203"/>
      <point x="561" y="353"/>
      <point x="549" y="524" type="curve"/>
      <point x="740" y="524" type="line"/>
      <point x="740" y="524" type="line"/>
      <point x="713" y="339"/>
      <point x="570" y="147"/>
      <point x="394" y="-27" type="curve" smooth="yes"/>
      <point x="238" y="-182"/>
      <point x="185" y="-231"/>
      <point x="91" y="-231" type="curve" smooth="yes"/>
      <point x="58" y="-231"/>
      <point x="18" y="-221"/>
      <point x="3" y="-212" type="curve"/>
      <point x="39" y="-47" type="line"/>
      <point x="64" y="-64"/>
      <point x="109" y="-78"/>
      <point x="161" y="-78" type="curve" smooth="yes"/>
      <point x="210" y="-78"/>
      <point x="268" y="-69"/>
      <point x="325" y="-26" type="curve"/>
    </contour>
  </outline>
</glyph>
<glyph name="z" format="2">
  <advance width="717"/>
  <unicode hex="007A"/>
  <outline>
    <contour>
      <point x="502" y="-10" type="curve" smooth="yes"/>
      <point x="644" y="-10"/>
      <point x="694" y="116"/>
      <point x="694" y="275" type="curve"/>
      <point x="661" y="280" type="line"/>
      <point x="648" y="209"/>
      <point x="604" y="201"/>
      <point x="546" y="201" type="curve" smooth="yes"/>
      <point x="483" y="201"/>
      <point x="426" y="215"/>
      <point x="342" y="250" type="curve"/>
      <point x="187" y="117" type="line"/>
      <point x="332" y="25"/>
      <point x="409" y="-10"/>
    </contour>
    <contour>
      <point x="78" y="0" type="line"/>
      <point x="706" y="485" type="line"/>
      <point x="713" y="524" type="line"/>
      <point x="118" y="524" type="line"/>
      <point x="66" y="245" type="line"/>
      <point x="108" y="245" type="line"/>
      <point x="119" y="280" type="line" smooth="yes"/>
      <point x="132" y="322"/>
      <point x="162" y="327"/>
      <point x="230" y="327" type="curve" smooth="yes"/>
      <point x="485" y="327" type="line"/>
      <point x="461" y="357" type="line"/>
      <point x="24" y="20" type="line"/>
      <point x="21" y="0" type="line"/>
    </contour>
  </outline>
</glyph>
<glyph name="asciitilde" format="2">
  <advance width="586"/>
  <unicode hex="007E"/>
  <outline>
    <contour>
      <point x="217" y="492" type="curve" smooth="yes"/>
      <point x="115" y="492"/>
      <point x="53" y="422"/>
      <point x="23" y="283" type="curve"/>
      <point x="69" y="264" type="line"/>
      <point x="79" y="304"/>
      <point x="105" y="347"/>
      <point x="152" y="347" type="curve" smooth="yes"/>
      <point x="215" y="347"/>
      <point x="299" y="261"/>
      <point x="396" y="261" type="curve" smooth="yes"/>
      <point x="498" y="261"/>
      <point x="561" y="330"/>
      <point x="590" y="470" type="curve"/>
      <point x="545" y="490" type="line"/>
      <point x="530" y="450"/>
      <point x="502" y="406"/>
      <point x="455" y="406" type="curve" smooth="yes"/>
      <point x="392" y="406"/>
      <point x="314" y="492"/>
    </contour>
  </outline>
</glyph>
<glyph name="currency" format="2">
  <advance width="680"/>
  <unicode hex="00A4"/>
  <outline>
    <contour>
      <point x="114" y="116" type="line"/>
      <point x="242" y="230" type="line"/>
      <point x="194" y="276" type="line"/>
      <point x="69" y="166" type="line"/>
    </contour>
    <contour>
      <point x="145" y="583" type="line"/>
      <point x="224" y="489" type="line"/>
      <point x="283" y="533" type="line"/>
      <point x="202" y="630" type="line"/>
    </contour>
    <contour>
      <point x="343" y="237" type="curve" smooth="yes"/>
      <point x="268" y="237"/>
      <point x="222" y="291"/>
      <point x="222" y="364" type="curve" smooth="yes"/>
      <point x="222" y="446"/>
      <point x="273" y="509"/>
      <point x="355" y="509" type="curve" smooth="yes"/>
      <point x="430" y="509"/>
      <point x="475" y="455"/>
      <point x="475" y="382" type="curve" smooth="yes"/>
      <point x="475" y="300"/>
      <point x="425" y="237"/>
    </contour>
    <contour>
      <point x="337" y="177" type="curve" smooth="yes"/>
      <point x="459" y="177"/>
      <point x="545" y="272"/>
      <point x="545" y="386" type="curve" smooth="yes"/>
      <point x="545" y="495"/>
      <point x="461" y="569"/>
      <point x="360" y="569" type="curve" smooth="yes"/>
      <point x="238" y="569"/>
      <point x="152" y="474"/>
      <point x="152" y="360" type="curve" smooth="yes"/>
      <point x="152" y="251"/>
      <point x="236" y="177"/>
    </contour>
    <contour>
      <point x="500" y="116" type="line"/>
      <point x="557" y="164" type="line"/>
      <point x="479" y="257" type="line"/>
      <point x="419" y="213" type="line"/>
    </contour>
    <contour>
      <point x="632" y="581" type="line"/>
      <point x="587" y="630" type="line"/>
      <point x="455" y="515" type="line"/>
      <point x="504" y="469" type="line"/>
    </contour>
  </outline>
</glyph>
<glyph name="copyright" format="2">
  <advance width="890"/>
  <unicode hex="00A9"/>
  <outline>
    <contour>
      <point x="511" y="512" type="curve" smooth="yes"/>
      <point x="573" y="512"/>
      <point x="609" y="471"/>
      <point x="623" y="405" type="curve"/>
      <point x="657" y="405" type="line"/>
      <point x="657" y="550" type="line"/>
      <point x="622" y="550" type="line"/>
      <point x="607" y="470" type="line"/>
      <point x="641" y="453" type="line"/>
      <point x="620" y="521"/>
      <point x="562" y="561"/>
      <point x="463" y="561" type="curve" smooth="yes"/>
      <point x="320" y="561"/>
      <point x="218" y="481"/>
      <point x="218" y="354" type="curve" smooth="yes"/>
      <point x="218" y="226"/>
      <point x="316" y="149"/>
      <point x="465" y="149" type="curve" smooth="yes"/>
      <point x="567" y="149"/>
      <point x="637" y="198"/>
      <point x="662" y="288" type="curve"/>
      <point x="628" y="305" type="line"/>
      <point x="606" y="232"/>
      <point x="568" y="201"/>
      <point x="514" y="201" type="curve" smooth="yes"/>
      <point x="444" y="201"/>
      <point x="405" y="257"/>
      <point x="405" y="354" type="curve" smooth="yes"/>
      <point x="405" y="456"/>
      <point x="444" y="512"/>
    </contour>
    <contour>
      <point x="94" y="355" type="curve" smooth="yes"/>
      <point x="94" y="550"/>
      <point x="239" y="702"/>
      <point x="450" y="702" type="curve" smooth="yes"/>
      <point x="661" y="702"/>
      <point x="806" y="550"/>
      <point x="806" y="355" type="curve" smooth="yes"/>
      <point x="806" y="160"/>
      <point x="661" y="8"/>
      <point x="450" y="8" type="curve" smooth="yes"/>
      <point x="239" y="8"/>
      <point x="94" y="160"/>
    </contour>
    <contour>
      <point x="35" y="355" type="curve" smooth="yes"/>
      <point x="35" y="123"/>
      <point x="210" y="-40"/>
      <point x="450" y="-40" type="curve" smooth="yes"/>
      <point x="690" y="-40"/>
      <point x="865" y="123"/>
      <point x="865" y="355" type="curve" smooth="yes"/>
      <point x="865" y="587"/>
      <point x="690" y="750"/>
      <point x="450" y="750" type="curve" smooth="yes"/>
      <point x="210" y="750"/>
      <point x="35" y="587"/>
    </contour>
  </outline>
</glyph>
<glyph name="ordfeminine" format="2">
  <advance width="682"/>
  <unicode hex="00AA"/>
  <outline>
    <contour>
      <point x="533" y="312" type="curve" smooth="yes"/>
      <point x="584.8255033557" y="312"/>
      <point x="650.8599636053" y="324.3969062793"/>
      <point x="676" y="336" type="curve"/>
      <point x="684" y="378" type="line"/>
      <point x="668" y="373"/>
      <point x="652" y="372"/>
      <point x="645" y="372" type="curve" smooth="yes"/>
      <point x="628" y="372"/>
      <point x="619" y="378"/>
      <point x="618" y="393" type="curve" smooth="yes"/>
      <point x="618" y="404"/>
      <point x="621" y="420"/>
      <point x="627" y="453" type="curve" smooth="yes"/>
      <point x="672" y="718" type="line"/>
      <point x="522" y="718" type="line"/>
      <point x="431" y="678" type="line"/>
      <point x="423" y="677" type="line"/>
      <point x="371" y="399" type="line"/>
      <point x="385" y="414" type="line"/>
      <point x="385" y="404"/>
      <point x="385" y="397"/>
      <point x="385" y="388" type="curve"/>
      <point x="385" y="336"/>
      <point x="438.1549295775" y="312"/>
    </contour>
    <contour>
      <point x="228" y="310" type="curve" smooth="yes"/>
      <point x="327" y="310"/>
      <point x="389" y="359"/>
      <point x="434" y="473" type="curve"/>
      <point x="404" y="489" type="line"/>
      <point x="381" y="421"/>
      <point x="357" y="397"/>
      <point x="332" y="397" type="curve" smooth="yes"/>
      <point x="307" y="397"/>
      <point x="297" y="425"/>
      <point x="297" y="468" type="curve" smooth="yes"/>
      <point x="297" y="554"/>
      <point x="331" y="671"/>
      <point x="389" y="671" type="curve" smooth="yes"/>
      <point x="414" y="671"/>
      <point x="431.2758299016" y="656.144927305"/>
      <point x="441" y="626" type="curve"/>
      <point x="494" y="657" type="line"/>
      <point x="460.641822169" y="694.4015933256"/>
      <point x="418" y="720"/>
      <point x="326" y="720" type="curve" smooth="yes"/>
      <point x="160" y="720"/>
      <point x="49" y="626"/>
      <point x="49" y="483" type="curve" smooth="yes"/>
      <point x="49" y="380"/>
      <point x="121" y="310"/>
    </contour>
  </outline>
</glyph>
<glyph name="Eth" format="2">
  <advance width="1020"/>
  <unicode hex="00D0"/>
  <outline>
    <contour>
      <point x="29" y="330" type="line"/>
      <point x="542" y="330" type="line"/>
      <point x="551" y="383" type="line"/>
      <point x="38" y="383" type="line"/>
    </contour>
    <component base="D"/>
  </outline>
</glyph>
<glyph name="multiply" format="2">
  <advance width="717"/>
  <unicode hex="00D7"/>
  <outline>
    <contour>
      <point x="140" y="133" type="line"/>
      <point x="613" y="508" type="line"/>
      <point x="578" y="550" type="line"/>
      <point x="105" y="175" type="line"/>
    </contour>
    <contour>
      <point x="513" y="133" type="line"/>
      <point x="555" y="172" type="line"/>
      <point x="200" y="550" type="line"/>
      <point x="158" y="511" type="line"/>
    </contour>
  </outline>
</glyph>
<glyph name="Oslash" format="2">
  <advance width="1006"/>
  <unicode hex="00D8"/>
  <outline>
    <contour>
      <point x="465" y="-10" type="curve" smooth="yes"/>
      <point x="799" y="-10"/>
      <point x="983" y="160"/>
      <point x="983" y="393" type="curve" smooth="yes"/>
      <point x="983" y="600"/>
      <point x="799" y="720"/>
      <point x="547" y="720" type="curve" smooth="yes"/>
      <point x="213" y="720"/>
      <point x="29" y="550"/>
      <point x="29" y="317" type="curve" smooth="yes"/>
      <point x="29" y="110"/>
      <point x="213" y="-10"/>
    </contour>
    <contour>
      <point x="462" y="43" type="curve" smooth="yes"/>
      <point x="387" y="43"/>
      <point x="349" y="95"/>
      <point x="349" y="211" type="curve" smooth="yes"/>
      <point x="349" y="253"/>
      <point x="354" y="304"/>
      <point x="365" y="366" type="curve" smooth="yes"/>
      <point x="400" y="560"/>
      <point x="459" y="667"/>
      <point x="550" y="667" type="curve" smooth="yes"/>
      <point x="625" y="667"/>
      <point x="663" y="615"/>
      <point x="663" y="499" type="curve" smooth="yes"/>
      <point x="663" y="457"/>
      <point x="658" y="406"/>
      <point x="647" y="344" type="curve" smooth="yes"/>
      <point x="613" y="151"/>
      <point x="553" y="43"/>
    </contour>
    <contour>
      <point x="-26" y="-10" type="line"/>
      <point x="69" y="-10" type="line"/>
      <point x="1012" y="720" type="line"/>
      <point x="917" y="720" type="line"/>
    </contour>
  </outline>
</glyph>
<glyph name="ae" format="2">
  <advance width="1096"/>
  <unicode hex="00E6"/>
  <outline>
    <contour>
      <point x="368" y="484" type="curve" smooth="yes"/>
      <point x="414" y="484"/>
      <point x="438" y="466"/>
      <point x="438" y="421" type="curve" smooth="yes"/>
      <point x="438" y="401"/>
      <point x="433" y="376"/>
      <point x="431" y="360" type="curve" smooth="yes"/>
      <point x="416" y="260" type="line"/>
      <point x="656" y="312" type="line"/>
      <point x="656" y="375" type="line" smooth="yes"/>
      <point x="656" y="491"/>
      <point x="555" y="534"/>
      <point x="382" y="534" type="curve" smooth="yes"/>
      <point x="263" y="534"/>
      <point x="162" y="493"/>
      <point x="118" y="468" type="curve"/>
      <point x="97" y="348" type="line"/>
      <point x="303" y="348" type="line"/>
      <point x="329" y="495" type="line"/>
      <point x="317" y="497"/>
      <point x="268" y="489"/>
      <point x="278" y="446" type="curve"/>
      <point x="299" y="469"/>
      <point x="330" y="484"/>
    </contour>
    <contour>
      <point x="223" y="-10" type="curve" smooth="yes"/>
      <point x="368" y="-10"/>
      <point x="442" y="52"/>
      <point x="476" y="146" type="curve"/>
      <point x="440" y="165" type="line"/>
      <point x="422" y="110"/>
      <point x="386" y="77"/>
      <point x="348" y="77" type="curve" smooth="yes"/>
      <point x="320" y="77"/>
      <point x="297" y="98"/>
      <point x="297" y="146" type="curve" smooth="yes"/>
      <point x="297" y="215"/>
      <point x="337" y="261"/>
      <point x="427" y="277" type="curve"/>
      <point x="428" y="320" type="line"/>
      <point x="148" y="297"/>
      <point x="25" y="242"/>
      <point x="25" y="127" type="curve" smooth="yes"/>
      <point x="25" y="34"/>
      <point x="103" y="-10"/>
    </contour>
    <contour>
      <point x="753" y="-10" type="curve" smooth="yes"/>
      <point x="893" y="-10"/>
      <point x="998" y="38"/>
      <point x="1058" y="147" type="curve"/>
      <point x="1019" y="172" type="line"/>
      <point x="981" y="111"/>
      <point x="928" y="69"/>
      <point x="849" y="69" type="curve" smooth="yes"/>
      <point x="757" y="69"/>
      <point x="703" y="120"/>
      <point x="703" y="226" type="curve" smooth="yes"/>
      <point x="703" y="360"/>
      <point x="753" y="484"/>
      <point x="809" y="484" type="curve" smooth="yes"/>
      <point x="835" y="484"/>
      <point x="851" y="466"/>
      <point x="851" y="432" type="curve" smooth="yes"/>
      <point x="851" y="343"/>
      <point x="818" y="280"/>
      <point x="649" y="246" type="curve"/>
      <point x="652" y="214" type="line"/>
      <point x="1002" y="260"/>
      <point x="1083" y="305"/>
      <point x="1083" y="397" type="curve" smooth="yes"/>
      <point x="1083" y="475"/>
      <point x="973" y="534"/>
      <point x="808" y="534" type="curve" smooth="yes"/>
      <point x="651" y="534"/>
      <point x="545" y="470"/>
      <point x="499" y="389" type="curve"/>
      <point x="431" y="361"/>
      <point x="414" y="282"/>
      <point x="414" y="228" type="curve" smooth="yes"/>
      <point x="414" y="65"/>
      <point x="555" y="-10"/>
    </contour>
  </outline>
</glyph>
<glyph name="idieresis" format="2">
  <advance width="416"/>
  <unicode hex="00EF"/>
  <outline>
    <contour>
      <point x="140" y="574" type="curve" smooth="yes"/>
      <point x="73" y="574"/>
      <point x="33" y="606"/>
      <point x="33" y="663" type="curve" smooth="yes"/>
      <point x="33" y="719"/>
      <point x="73" y="752"/>
      <point x="140" y="752" type="curve" smooth="yes"/>
      <point x="207" y="752"/>
      <point x="247" y="719"/>
      <point x="247" y="663" type="curve" smooth="yes"/>
      <point x="247" y="607"/>
      <point x="207" y="574"/>
    </contour>
    <contour>
      <point x="393" y="574" type="curve" smooth="yes"/>
      <point x="327" y="574"/>
      <point x="286" y="606"/>
      <point x="286" y="663" type="curve" smooth="yes"/>
      <point x="286" y="719"/>
      <point x="327" y="752"/>
      <point x="393" y="752" type="curve" smooth="yes"/>
      <point x="462" y="752"/>
      <point x="501" y="719"/>
      <point x="501" y="663" type="curve" smooth="yes"/>
      <point x="501" y="607"/>
      <point x="462" y="574"/>
    </contour>
    <component base="dotlessi"/>
  </outline>
</glyph>
<glyph name="eth" format="2">
  <advance width="824"/>
  <unicode hex="00F0"/>
  <outline>
    <contour>
      <point x="208" y="610" type="line"/>
      <point x="224" y="565" type="line"/>
      <point x="704" y="685" type="line"/>
      <point x="688" y="730" type="line"/>
    </contour>
    <contour>
      <point x="557" y="418" type="line"/>
      <point x="540" y="477"/>
      <point x="470" y="534"/>
      <point x="344" y="534" type="curve" smooth="yes"/>
      <point x="158" y="534"/>
      <point x="29" y="422"/>
      <point x="29" y="252" type="curve" smooth="yes"/>
      <point x="29" y="92"/>
      <point x="168" y="-10"/>
      <point x="391" y="-10" type="curve" smooth="yes"/>
      <point x="681" y="-10"/>
      <point x="811" y="139"/>
      <point x="811" y="343" type="curve" smooth="yes"/>
      <point x="811" y="508"/>
      <point x="705" y="672"/>
      <point x="342" y="760" type="curve"/>
      <point x="313" y="720" type="line"/>
      <point x="477" y="649"/>
      <point x="519" y="542"/>
      <point x="519" y="410" type="curve" smooth="yes"/>
      <point x="519" y="356"/>
      <point x="509" y="288"/>
      <point x="499" y="235" type="curve" smooth="yes"/>
      <point x="475" y="110"/>
      <point x="436" y="40"/>
      <point x="387" y="40" type="curve" smooth="yes"/>
      <point x="343" y="40"/>
      <point x="324" y="80"/>
      <point x="324" y="162" type="curve" smooth="yes"/>
      <point x="324" y="212"/>
      <point x="335" y="276"/>
      <point x="348" y="327" type="curve" smooth="yes"/>
      <point x="371" y="416"/>
      <point x="399" y="455"/>
      <point x="446" y="455" type="curve" smooth="yes"/>
      <point x="488" y="455"/>
      <point x="528" y="420"/>
      <point x="545" y="346" type="curve"/>
    </contour>
  </outline>
</glyph>
<glyph name="oslash" format="2">
  <advance width="846"/>
  <unicode hex="00F8"/>
  <outline>
    <contour>
      <point x="395" y="40" type="curve" smooth="yes"/>
      <point x="348" y="40"/>
      <point x="326" y="72"/>
      <point x="326" y="150" type="curve" smooth="yes"/>
      <point x="326" y="184"/>
      <point x="329" y="230"/>
      <point x="341" y="294" type="curve" smooth="yes"/>
      <point x="359" y="388"/>
      <point x="395" y="484"/>
      <point x="456" y="484" type="curve" smooth="yes"/>
      <point x="503" y="484"/>
      <point x="525" y="452"/>
      <point x="525" y="374" type="curve" smooth="yes"/>
      <point x="525" y="340"/>
      <point x="522" y="294"/>
      <point x="510" y="230" type="curve" smooth="yes"/>
      <point x="492" y="136"/>
      <point x="456" y="40"/>
    </contour>
    <contour>
      <point x="409" y="-10" type="curve" smooth="yes"/>
      <point x="671" y="-10"/>
      <point x="824" y="108"/>
      <point x="824" y="279" type="curve" smooth="yes"/>
      <point x="824" y="445"/>
      <point x="677" y="534"/>
      <point x="442" y="534" type="curve" smooth="yes"/>
      <point x="180" y="534"/>
      <point x="27" y="416"/>
      <point x="27" y="245" type="curve" smooth="yes"/>
      <point x="27" y="79"/>
      <point x="174" y="-10"/>
    </contour>
    <contour>
      <point x="37" y="-10" type="line"/>
      <point x="126" y="-10" type="line"/>
      <point x="814" y="531" type="line"/>
      <point x="725" y="531" type="line"/>
    </contour>
  </outline>
</glyph>
<glyph name="thorn" format="2">
  <advance width="838"/>
  <unicode hex="00FE"/>
  <outline>
    <contour>
      <point x="375" y="38" type="curve" smooth="yes"/>
      <point x="326" y="38"/>
      <point x="296" y="68"/>
      <point x="298" y="114" type="curve"/>
      <point x="221" y="58" type="line"/>
      <point x="266" y="16"/>
      <point x="339" y="-10"/>
      <point x="426" y="-10" type="curve" smooth="yes"/>
      <point x="699" y="-10"/>
      <point x="822" y="141"/>
      <point x="822" y="314" type="curve" smooth="yes"/>
      <point x="822" y="457"/>
      <point x="720" y="534"/>
      <point x="603" y="534" type="curve" smooth="yes"/>
      <point x="470" y="534"/>
      <point x="381" y="454"/>
      <point x="312" y="313" type="curve"/>
      <point x="334" y="294" type="line"/>
      <point x="380" y="395"/>
      <point x="423" y="425"/>
      <point x="460" y="425" type="curve" smooth="yes"/>
      <point x="495" y="425"/>
      <point x="515" y="397"/>
      <point x="515" y="321" type="curve" smooth="yes"/>
      <point x="515" y="213"/>
      <point x="469" y="38"/>
    </contour>
    <contour>
      <point x="344" y="-223" type="line"/>
      <point x="351" y="-184" type="line"/>
      <point x="347" y="-184" type="line" smooth="yes"/>
      <point x="312" y="-184"/>
      <point x="279" y="-182"/>
      <point x="280" y="-174" type="curve"/>
      <point x="446" y="750" type="line"/>
      <point x="89" y="750" type="line"/>
      <point x="82" y="710" type="line"/>
      <point x="98" y="708" type="line" smooth="yes"/>
      <point x="124" y="705"/>
      <point x="137" y="698"/>
      <point x="134" y="682" type="curve" smooth="yes"/>
      <point x="-16" y="-155" type="line" smooth="yes"/>
      <point x="-20" y="-177"/>
      <point x="-40" y="-184"/>
      <point x="-66" y="-184" type="curve" smooth="yes"/>
      <point x="-68" y="-184" type="line"/>
      <point x="-75" y="-223" type="line"/>
    </contour>
  </outline>
</glyph>
<glyph name="Aogonek" format="2">
  <advance width="895"/>
  <unicode hex="0104"/>
  <outline>
    <contour>
      <point x="158" y="270" type="line"/>
      <point x="130" y="220" type="line"/>
      <point x="472" y="220" type="line"/>
      <point x="479" y="270" type="line"/>
    </contour>
    <contour>
      <point x="814" y="0" type="line"/>
      <point x="822" y="42" type="line"/>
      <point x="814" y="42" type="line" smooth="yes"/>
      <point x="791" y="42"/>
      <point x="778" y="47"/>
      <point x="773" y="72" type="curve" smooth="yes"/>
      <point x="645" y="710" type="line"/>
      <point x="399" y="710" type="line"/>
      <point x="24" y="77" type="line" smooth="yes"/>
      <point x="8" y="51"/>
      <point x="-5" y="42"/>
      <point x="-33" y="42" type="curve" smooth="yes"/>
      <point x="-39" y="42" type="line"/>
      <point x="-47" y="0" type="line"/>
      <point x="141" y="0" type="line"/>
      <point x="149" y="42" type="line"/>
      <point x="129" y="42" type="line" smooth="yes"/>
      <point x="91" y="42"/>
      <point x="77" y="49"/>
      <point x="81" y="60" type="curve"/>
      <point x="398" y="605" type="line"/>
      <point x="344" y="605" type="line"/>
      <point x="455" y="0" type="line"/>
    </contour>
    <contour>
      <point x="574" y="26" type="line"/>
      <point x="345" y="-14"/>
      <point x="257" y="-69"/>
      <point x="257" y="-150" type="curve" smooth="yes"/>
      <point x="257" y="-215"/>
      <point x="324" y="-246"/>
      <point x="414" y="-246" type="curve" smooth="yes"/>
      <point x="497" y="-246"/>
      <point x="557" y="-215"/>
      <point x="601" y="-169" type="curve"/>
      <point x="576" y="-135" type="line"/>
      <point x="559" y="-149"/>
      <point x="534" y="-161"/>
      <point x="506" y="-161" type="curve" smooth="yes"/>
      <point x="474" y="-161"/>
      <point x="451" y="-144"/>
      <point x="451" y="-114" type="curve" smooth="yes"/>
      <point x="451" y="-74"/>
      <point x="480" y="-31"/>
      <point x="587" y="11" type="curve"/>
    </contour>
  </outline>
</glyph>
<glyph name="hbar" format="2">
  <advance width="843"/>
  <unicode hex="0127"/>
  <outline>
    <contour>
      <point x="47" y="647" type="line"/>
      <point x="597" y="647" type="line"/>
      <point x="589" y="599" type="line"/>
      <point x="39" y="599" type="line"/>
    </contour>
    <contour>
      <point x="764" y="173" type="line" smooth="yes"/>
      <point x="756" y="132"/>
      <point x="749" y="94"/>
      <point x="749" y="79" type="curve" smooth="yes"/>
      <point x="749" y="60"/>
      <point x="763" y="53"/>
      <point x="783" y="53" type="curve" smooth="yes"/>
      <point x="797" y="53"/>
      <point x="813" y="57"/>
      <point x="817" y="58" type="curve"/>
      <point x="810" y="19" type="line"/>
      <point x="775" y="3"/>
      <point x="720" y="-10"/>
      <point x="646" y="-10" type="curve" smooth="yes"/>
      <point x="523" y="-10"/>
      <point x="462" y="29"/>
      <point x="462" y="117" type="curve" smooth="yes"/>
      <point x="462" y="146"/>
      <point x="469" y="181"/>
      <point x="479" y="234" type="curve" smooth="yes"/>
      <point x="496" y="322" type="line" smooth="yes"/>
      <point x="501" y="350"/>
      <point x="506" y="373"/>
      <point x="506" y="390" type="curve" smooth="yes"/>
      <point x="506" y="410"/>
      <point x="501" y="422"/>
      <point x="477" y="422" type="curve" smooth="yes"/>
      <point x="431" y="422"/>
      <point x="377" y="362"/>
      <point x="345" y="274" type="curve"/>
      <point x="328" y="311" type="line"/>
      <point x="396" y="464"/>
      <point x="492" y="534"/>
      <point x="635" y="534" type="curve" smooth="yes"/>
      <point x="745" y="534"/>
      <point x="802" y="474"/>
      <point x="802" y="401" type="curve" smooth="yes"/>
      <point x="802" y="376"/>
      <point x="796" y="336"/>
      <point x="787" y="291" type="curve" smooth="yes"/>
    </contour>
    <contour>
      <point x="146" y="750" type="line"/>
      <point x="446" y="750" type="line"/>
      <point x="311" y="0" type="line"/>
      <point x="11" y="0" type="line"/>
    </contour>
  </outline>
</glyph>
<glyph name="itilde" format="2">
  <advance width="416"/>
  <unicode hex="0129"/>
  <outline>
    <contour>
      <point x="331" y="579" type="curve" smooth="yes"/>
      <point x="399" y="579"/>
      <point x="444" y="642"/>
      <point x="471" y="737" type="curve"/>
      <point x="425" y="754" type="line"/>
      <point x="408" y="710"/>
      <point x="390" y="699"/>
      <point x="362" y="699" type="curve" smooth="yes"/>
      <point x="315" y="699"/>
      <point x="261" y="749"/>
      <point x="201" y="749" type="curve" smooth="yes"/>
      <point x="126" y="749"/>
      <point x="83" y="689"/>
      <point x="60" y="592" type="curve"/>
      <point x="106" y="577" type="line"/>
      <point x="120" y="615"/>
      <point x="140" y="629"/>
      <point x="167" y="629" type="curve" smooth="yes"/>
      <point x="210" y="629"/>
      <point x="269" y="579"/>
    </contour>
    <component base="dotlessi"/>
  </outline>
</glyph>
<glyph name="ibreve" format="2">
  <advance width="416"/>
  <unicode hex="012D"/>
  <outline>
    <contour>
      <point x="268" y="575" type="curve" smooth="yes"/>
      <point x="174" y="575"/>
      <point x="112" y="620"/>
      <point x="112" y="718" type="curve" smooth="yes"/>
      <point x="112" y="732"/>
      <point x="113" y="744"/>
      <point x="116" y="761" type="curve"/>
      <point x="172" y="761" type="line"/>
      <point x="170" y="713"/>
      <point x="197" y="698"/>
      <point x="280" y="698" type="curve" smooth="yes"/>
      <point x="360" y="698"/>
      <point x="384" y="715"/>
      <point x="394" y="761" type="curve"/>
      <point x="450" y="761" type="line"/>
      <point x="439" y="630"/>
      <point x="376" y="575"/>
    </contour>
    <component base="dotlessi"/>
  </outline>
</glyph>
<glyph name="Iogonek" format="2">
  <advance width="513"/>
  <unicode hex="012E"/>
  <outline>
    <contour>
      <point x="350" y="26" type="line"/>
      <point x="121" y="-14"/>
      <point x="33" y="-69"/>
      <point x="33" y="-150" type="curve" smooth="yes"/>
      <point x="33" y="-215"/>
      <point x="100" y="-246"/>
      <point x="190" y="-246" type="curve" smooth="yes"/>
      <point x="273" y="-246"/>
      <point x="333" y="-215"/>
      <point x="377" y="-169" type="curve"/>
      <point x="352" y="-135" type="line"/>
      <point x="335" y="-149"/>
      <point x="310" y="-161"/>
      <point x="282" y="-161" type="curve" smooth="yes"/>
      <point x="250" y="-161"/>
      <point x="227" y="-144"/>
      <point x="227" y="-114" type="curve" smooth="yes"/>
      <point x="227" y="-74"/>
      <point x="256" y="-31"/>
      <point x="363" y="11" type="curve"/>
    </contour>
    <component base="I"/>
  </outline>
</glyph>
<glyph name="iogonek" format="2">
  <advance width="416"/>
  <unicode hex="012F"/>
  <outline>
    <contour>
      <point x="349" y="26" type="line"/>
      <point x="120" y="-14"/>
      <point x="32" y="-69"/>
      <point x="32" y="-150" type="curve" smooth="yes"/>
      <point x="32" y="-215"/>
      <point x="99" y="-246"/>
      <point x="189" y="-246" type="curve" smooth="yes"/>
      <point x="272" y="-246"/>
      <point x="332" y="-215"/>
      <point x="376" y="-169" type="curve"/>
      <point x="351" y="-135" type="line"/>
      <point x="334" y="-149"/>
      <point x="309" y="-161"/>
      <point x="281" y="-161" type="curve" smooth="yes"/>
      <point x="249" y="-161"/>
      <point x="226" y="-144"/>
      <point x="226" y="-114" type="curve" smooth="yes"/>
      <point x="226" y="-74"/>
      <point x="255" y="-31"/>
      <point x="362" y="11" type="curve"/>
    </contour>
    <component base="i"/>
  </outline>
</glyph>
<glyph name="kgreenlandic" format="2">
  <advance width="832"/>
  <unicode hex="0138"/>
  <outline>
    <contour>
      <point x="636" y="400" type="line"/>
      <point x="729" y="143" type="line" smooth="yes"/>
      <point x="756" y="68"/>
      <point x="767" y="50"/>
      <point x="794" y="50" type="curve" smooth="yes"/>
      <point x="807" y="50"/>
      <point x="819" y="53"/>
      <point x="822" y="54" type="curve"/>
      <point x="815" y="15" type="line"/>
      <point x="787" y="1"/>
      <point x="710" y="-10"/>
      <point x="638" y="-10" type="curve" smooth="yes"/>
      <point x="526" y="-10"/>
      <point x="461" y="26"/>
      <point x="427" y="132" type="curve" smooth="yes"/>
      <point x="379" y="281" type="line"/>
      <point x="382" y="294" type="line"/>
      <point x="515" y="376"/>
      <point x="593" y="441"/>
      <point x="650" y="524" type="curve"/>
      <point x="856" y="524" type="line"/>
      <point x="856" y="514" type="line"/>
      <point x="805" y="469"/>
      <point x="723" y="420"/>
      <point x="589" y="371" type="curve"/>
    </contour>
    <contour>
      <point x="311" y="0" type="line"/>
      <point x="404" y="524" type="line"/>
      <point x="49" y="524" type="line"/>
      <point x="42" y="484" type="line"/>
      <point x="57" y="482" type="line" smooth="yes"/>
      <point x="83" y="479"/>
      <point x="96" y="472"/>
      <point x="93" y="456" type="curve" smooth="yes"/>
      <point x="12" y="0" type="line"/>
    </contour>
  </outline>
</glyph>
<glyph name="Ldot" format="2">
  <advance width="819"/>
  <unicode hex="013F"/>
  <outline>
    <contour>
      <point x="556" y="710" type="line"/>
      <point x="96" y="710" type="line"/>
      <point x="88" y="668" type="line"/>
      <point x="100" y="668" type="line" smooth="yes"/>
      <point x="133" y="668"/>
      <point x="156" y="662"/>
      <point x="151" y="635" type="curve" smooth="yes"/>
      <point x="53" y="75" type="line" smooth="yes"/>
      <point x="48" y="48"/>
      <point x="23" y="42"/>
      <point x="-10" y="42" type="curve" smooth="yes"/>
      <point x="-22" y="42" type="line"/>
      <point x="-30" y="0" type="line"/>
      <point x="731" y="0" type="line"/>
      <point x="773" y="236" type="line"/>
      <point x="720" y="236" type="line"/>
      <point x="670" y="99" type="line" smooth="yes"/>
      <point x="656" y="60"/>
      <point x="623" y="52"/>
      <point x="515" y="52" type="curve" smooth="yes"/>
      <point x="368" y="52" type="line"/>
      <point x="471" y="637" type="line" smooth="yes"/>
      <point x="475" y="662"/>
      <point x="502" y="668"/>
      <point x="535" y="668" type="curve" smooth="yes"/>
      <point x="548" y="668" type="line"/>
    </contour>
    <component base="periodcentered" xOffset="464" yOffset="21"/>
  </outline>
</glyph>
<glyph name="Lslash" format="2">
  <advance width="819"/>
  <unicode hex="0141"/>
  <outline>
    <contour>
      <point x="6" y="198" type="line"/>
      <point x="632" y="452" type="line"/>
      <point x="643" y="511" type="line"/>
      <point x="17" y="257" type="line"/>
    </contour>
    <component base="L"/>
  </outline>
</glyph>
<glyph name="Eng" format="2">
  <advance width="877"/>
  <unicode hex="014A"/>
  <outline>
    <contour>
      <point x="711" y="-54" type="curve" smooth="yes"/>
      <point x="829" y="621" type="line" smooth="yes"/>
      <point x="835" y="655"/>
      <point x="859" y="668"/>
      <point x="892" y="668" type="curve" smooth="yes"/>
      <point x="906" y="668" type="line"/>
      <point x="914" y="710" type="line"/>
      <point x="701" y="710" type="line"/>
      <point x="693" y="668" type="line"/>
      <point x="710" y="668" type="line" smooth="yes"/>
      <point x="744" y="668"/>
      <point x="773" y="662"/>
      <point x="773" y="646" type="curve"/>
      <point x="715" y="319" type="line"/>
      <point x="741" y="333" type="line"/>
      <point x="474" y="710" type="line"/>
      <point x="96" y="710" type="line"/>
      <point x="88" y="668" type="line"/>
      <point x="100" y="668" type="line" smooth="yes"/>
      <point x="133" y="668"/>
      <point x="157" y="662"/>
      <point x="152" y="635" type="curve" smooth="yes"/>
      <point x="55" y="91" type="line" smooth="yes"/>
      <point x="48" y="53"/>
      <point x="24" y="42"/>
      <point x="-11" y="42" type="curve" smooth="yes"/>
      <point x="-22" y="42" type="line"/>
      <point x="-30" y="0" type="line"/>
      <point x="183" y="0" type="line"/>
      <point x="191" y="42" type="line"/>
      <point x="174" y="42" type="line" smooth="yes"/>
      <point x="139" y="42"/>
      <point x="109" y="50"/>
      <point x="111" y="64" type="curve" smooth="yes"/>
      <point x="220" y="685" type="line"/>
      <point x="157" y="652" type="line"/>
      <point x="663" y="-101" type="line"/>
      <point x="666" y="30" type="line"/>
      <point x="652" y="-40" type="line" smooth="yes"/>
      <point x="635" y="-127"/>
      <point x="565" y="-157"/>
      <point x="482" y="-157" type="curve" smooth="yes"/>
      <point x="430" y="-157"/>
      <point x="377" y="-142"/>
      <point x="358" y="-133" type="curve"/>
      <point x="348" y="-191" type="line"/>
      <point x="377" y="-203"/>
      <point x="434" y="-212"/>
      <point x="482" y="-212" type="curve" smooth="yes"/>
      <point x="614" y="-212"/>
      <point x="694" y="-150"/>
    </contour>
  </outline>
</glyph>
<glyph name="eng" format="2">
  <advance width="835"/>
  <unicode hex="014B"/>
  <outline>
    <contour>
      <point x="12" y="0" type="line"/>
      <point x="93" y="456" type="line" smooth="yes"/>
      <point x="96" y="472"/>
      <point x="83" y="479"/>
      <point x="57" y="482" type="curve" smooth="yes"/>
      <point x="42" y="484" type="line"/>
      <point x="49" y="524" type="line"/>
      <point x="394" y="524" type="line"/>
      <point x="370" y="366" type="line"/>
      <point x="377" y="368" type="line"/>
      <point x="311" y="0" type="line"/>
    </contour>
    <contour>
      <point x="424" y="-40" type="curve" smooth="yes"/>
      <point x="496" y="322" type="line" smooth="yes"/>
      <point x="502" y="350"/>
      <point x="506" y="373"/>
      <point x="506" y="390" type="curve" smooth="yes"/>
      <point x="506" y="410"/>
      <point x="501" y="422"/>
      <point x="477" y="422" type="curve" smooth="yes"/>
      <point x="431" y="422"/>
      <point x="377" y="362"/>
      <point x="345" y="274" type="curve"/>
      <point x="328" y="311" type="line"/>
      <point x="396" y="464"/>
      <point x="492" y="534"/>
      <point x="635" y="534" type="curve" smooth="yes"/>
      <point x="745" y="534"/>
      <point x="802" y="474"/>
      <point x="802" y="401" type="curve" smooth="yes"/>
      <point x="802" y="376"/>
      <point x="796" y="336"/>
      <point x="787" y="291" type="curve" smooth="yes"/>
      <point x="734" y="20" type="line" smooth="yes"/>
      <point x="697" y="-167"/>
      <point x="590" y="-236"/>
      <point x="394" y="-236" type="curve" smooth="yes"/>
      <point x="313" y="-236"/>
      <point x="271" y="-228"/>
      <point x="242" y="-217" type="curve"/>
      <point x="256" y="-161" type="line"/>
      <point x="272" y="-167"/>
      <point x="291" y="-172"/>
      <point x="313" y="-172" type="curve" smooth="yes"/>
      <point x="366" y="-172"/>
      <point x="404" y="-142"/>
    </contour>
  </outline>
</glyph>
<glyph name="Bhook" format="2">
  <advance width="1114"/>
  <unicode hex="0181"/>
  <outline>
    <contour>
      <point x="742" y="227" type="curve" smooth="yes"/>
      <point x="742" y="142"/>
      <point x="701" y="50"/>
      <point x="594" y="50" type="curve" smooth="yes"/>
      <point x="544" y="50" type="line"/>
      <point x="596" y="346" type="line"/>
      <point x="629" y="346" type="line" smooth="yes"/>
      <point x="700" y="346"/>
      <point x="742" y="311"/>
    </contour>
    <contour>
      <point x="770" y="569" type="curve" smooth="yes"/>
      <point x="770" y="475"/>
      <point x="730" y="394"/>
      <point x="632" y="394" type="curve" smooth="yes"/>
      <point x="605" y="394" type="line"/>
      <point x="652" y="660" type="line"/>
      <point x="683" y="660" type="line" smooth="yes"/>
      <point x="734" y="660"/>
      <point x="770" y="636"/>
    </contour>
    <contour>
      <point x="147" y="42" type="line"/>
      <point x="139" y="0" type="line"/>
      <point x="708" y="0" type="line" smooth="yes"/>
      <point x="962" y="0"/>
      <point x="1064" y="75"/>
      <point x="1064" y="218" type="curve" smooth="yes"/>
      <point x="1064" y="323"/>
      <point x="974" y="381"/>
      <point x="788" y="384" type="curve"/>
      <point x="809" y="367" type="line"/>
      <point x="814" y="389" type="line"/>
      <point x="789" y="371" type="line"/>
      <point x="992" y="372"/>
      <point x="1090" y="452"/>
      <point x="1090" y="554" type="curve" smooth="yes"/>
      <point x="1090" y="659"/>
      <point x="1014" y="710"/>
      <point x="747" y="710" type="curve" smooth="yes"/>
      <point x="304" y="710" type="line" smooth="yes"/>
      <point x="107" y="710"/>
      <point x="18" y="637"/>
      <point x="18" y="492" type="curve" smooth="yes"/>
      <point x="18" y="476"/>
      <point x="21" y="455"/>
      <point x="23" y="446" type="curve"/>
      <point x="221" y="446" type="line"/>
      <point x="218" y="459"/>
      <point x="213" y="488"/>
      <point x="213" y="525" type="curve" smooth="yes"/>
      <point x="213" y="614"/>
      <point x="234" y="660"/>
      <point x="294" y="660" type="curve" smooth="yes"/>
      <point x="328" y="660" type="line"/>
      <point x="328" y="682" type="line"/>
      <point x="222" y="75" type="line" smooth="yes"/>
      <point x="217" y="48"/>
      <point x="192" y="42"/>
      <point x="159" y="42" type="curve" smooth="yes"/>
    </contour>
  </outline>
</glyph>
<glyph name="Ohorn" format="2">
  <advance width="1006"/>
  <unicode hex="01A0"/>
  <outline>
    <contour>
      <point x="550" y="667" type="curve" smooth="yes"/>
      <point x="625" y="667"/>
      <point x="659" y="615"/>
      <point x="659" y="499" type="curve" smooth="yes"/>
      <point x="659" y="457"/>
      <point x="654" y="406"/>
      <point x="643" y="344" type="curve" smooth="yes"/>
      <point x="609" y="151"/>
      <point x="553" y="43"/>
      <point x="462" y="43" type="curve" smooth="yes"/>
      <point x="387" y="43"/>
      <point x="353" y="95"/>
      <point x="353" y="211" type="curve" smooth="yes"/>
      <point x="353" y="253"/>
      <point x="358" y="304"/>
      <point x="369" y="366" type="curve" smooth="yes"/>
      <point x="404" y="560"/>
      <point x="459" y="667"/>
    </contour>
    <contour>
      <point x="754" y="635" type="line"/>
      <point x="784" y="677" type="line"/>
      <point x="721" y="663" type="line"/>
      <point x="753" y="657"/>
      <point x="795" y="654"/>
      <point x="832" y="654" type="curve" smooth="yes"/>
      <point x="977" y="654"/>
      <point x="1057" y="695"/>
      <point x="1089" y="842" type="curve"/>
      <point x="892" y="842" type="line"/>
      <point x="870" y="742"/>
      <point x="839" y="705"/>
      <point x="759" y="705" type="curve" smooth="yes"/>
      <point x="712" y="705"/>
      <point x="635" y="720"/>
      <point x="547" y="720" type="curve" smooth="yes"/>
      <point x="213" y="720"/>
      <point x="29" y="550"/>
      <point x="29" y="317" type="curve" smooth="yes"/>
      <point x="29" y="110"/>
      <point x="213" y="-10"/>
      <point x="465" y="-10" type="curve" smooth="yes"/>
      <point x="799" y="-10"/>
      <point x="983" y="160"/>
      <point x="983" y="393" type="curve" smooth="yes"/>
      <point x="983" y="544"/>
      <point x="872" y="645"/>
      <point x="694" y="686" type="curve"/>
    </contour>
  </outline>
</glyph>
<glyph name="icaron" format="2">
  <advance width="416"/>
  <unicode hex="01D0"/>
  <outline>
    <contour>
      <point x="188" y="578" type="line"/>
      <point x="77" y="739" type="line"/>
      <point x="80" y="753" type="line"/>
      <point x="139" y="753" type="line"/>
      <point x="331" y="643" type="line"/>
      <point x="186" y="643" type="line"/>
      <point x="418" y="753" type="line"/>
      <point x="485" y="753" type="line"/>
      <point x="482" y="739" type="line"/>
      <point x="315" y="578" type="line"/>
    </contour>
    <component base="dotlessi"/>
  </outline>
</glyph>
<glyph name="schwa" format="2">
  <advance width="721"/>
  <unicode hex="0259"/>
  <outline>
    <contour>
      <point x="375" y="534" type="curve" smooth="yes"/>
      <point x="235" y="534"/>
      <point x="128" y="490"/>
      <point x="60" y="391" type="curve"/>
      <point x="100" y="362" type="line"/>
      <point x="141" y="413"/>
      <point x="203" y="455"/>
      <point x="272" y="455" type="curve" smooth="yes"/>
      <point x="354" y="455"/>
      <point x="395" y="404"/>
      <point x="395" y="298" type="curve" smooth="yes"/>
      <point x="395" y="164"/>
      <point x="345" y="40"/>
      <point x="289" y="40" type="curve" smooth="yes"/>
      <point x="263" y="40"/>
      <point x="247" y="58"/>
      <point x="247" y="92" type="curve" smooth="yes"/>
      <point x="247" y="181"/>
      <point x="280" y="254"/>
      <point x="449" y="285" type="curve"/>
      <point x="446" y="317" type="line"/>
      <point x="96" y="274"/>
      <point x="15" y="222"/>
      <point x="15" y="127" type="curve" smooth="yes"/>
      <point x="15" y="44"/>
      <point x="125" y="-10"/>
      <point x="290" y="-10" type="curve" smooth="yes"/>
      <point x="531" y="-10"/>
      <point x="701" y="102"/>
      <point x="701" y="292" type="curve" smooth="yes"/>
      <point x="701" y="450"/>
      <point x="573" y="534"/>
    </contour>
  </outline>
</glyph>
<glyph name="circumflex" format="2">
  <advance width="630"/>
  <unicode hex="02C6"/>
  <outline>
    <contour>
      <point x="427" y="738" type="line"/>
      <point x="538" y="577" type="line"/>
      <point x="535" y="563" type="line"/>
      <point x="476" y="563" type="line"/>
      <point x="284" y="673" type="line"/>
      <point x="429" y="673" type="line"/>
      <point x="197" y="563" type="line"/>
      <point x="130" y="563" type="line"/>
      <point x="133" y="577" type="line"/>
      <point x="300" y="738" type="line"/>
    </contour>
  </outline>
</glyph>
<glyph name="breve" format="2">
  <advance width="630"/>
  <unicode hex="02D8"/>
  <outline>
    <contour>
      <point x="316" y="574" type="curve" smooth="yes"/>
      <point x="222" y="574"/>
      <point x="160" y="619"/>
      <point x="160" y="717" type="curve" smooth="yes"/>
      <point x="160" y="731"/>
      <point x="161" y="743"/>
      <point x="164" y="760" type="curve"/>
      <point x="220" y="760" type="line"/>
      <point x="218" y="712"/>
      <point x="245" y="697"/>
      <point x="328" y="697" type="curve" smooth="yes"/>
      <point x="408" y="697"/>
      <point x="432" y="714"/>
      <point x="442" y="760" type="curve"/>
      <point x="498" y="760" type="line"/>
      <point x="487" y="629"/>
      <point x="424" y="574"/>
    </contour>
  </outline>
</glyph>
<glyph name="ogonek" format="2">
  <advance width="730"/>
  <unicode hex="02DB"/>
  <outline>
    <contour>
      <point x="490" y="26" type="line"/>
      <point x="261" y="-14"/>
      <point x="173" y="-69"/>
      <point x="173" y="-150" type="curve" smooth="yes"/>
      <point x="173" y="-215"/>
      <point x="240" y="-246"/>
      <point x="330" y="-246" type="curve" smooth="yes"/>
      <point x="413" y="-246"/>
      <point x="473" y="-215"/>
      <point x="517" y="-169" type="curve"/>
      <point x="492" y="-135" type="line"/>
      <point x="475" y="-149"/>
      <point x="450" y="-161"/>
      <point x="422" y="-161" type="curve" smooth="yes"/>
      <point x="390" y="-161"/>
      <point x="367" y="-144"/>
      <point x="367" y="-114" type="curve" smooth="yes"/>
      <point x="367" y="-74"/>
      <point x="396" y="-31"/>
      <point x="503" y="11" type="curve"/>
    </contour>
  </outline>
</glyph>
<glyph name="tilde" format="2">
  <advance width="630"/>
  <unicode hex="02DC"/>
  <outline>
    <contour>
      <point x="391" y="577" type="curve" smooth="yes"/>
      <point x="459" y="577"/>
      <point x="505" y="644"/>
      <point x="532" y="739" type="curve"/>
      <point x="485" y="756" type="line"/>
      <point x="468" y="712"/>
      <point x="452" y="700"/>
      <point x="422" y="700" type="curve" smooth="yes"/>
      <point x="375" y="700"/>
      <point x="324" y="751"/>
      <point x="261" y="751" type="curve" smooth="yes"/>
      <point x="186" y="751"/>
      <point x="142" y="687"/>
      <point x="119" y="590" type="curve"/>
      <point x="166" y="575" type="line"/>
      <point x="180" y="613"/>
      <point x="198" y="628"/>
      <point x="227" y="628" type="curve" smooth="yes"/>
      <point x="270" y="628"/>
      <point x="326" y="577"/>
    </contour>
  </outline>
</glyph>
<glyph name="hungarumlaut" format="2">
  <advance width="630"/>
  <unicode hex="02DD"/>
  <outline>
    <contour>
      <point x="179" y="698" type="curve" smooth="yes"/>
      <point x="153" y="580" type="line"/>
      <point x="153" y="563" type="line"/>
      <point x="206" y="563" type="line"/>
      <point x="272" y="617" type="line" smooth="yes"/>
      <point x="337" y="670"/>
      <point x="348" y="706"/>
      <point x="348" y="740" type="curve" smooth="yes"/>
      <point x="348" y="778"/>
      <point x="322" y="808"/>
      <point x="278" y="808" type="curve" smooth="yes"/>
      <point x="219" y="808"/>
      <point x="195" y="769"/>
    </contour>
    <contour>
      <point x="385" y="698" type="curve" smooth="yes"/>
      <point x="359" y="580" type="line"/>
      <point x="359" y="563" type="line"/>
      <point x="412" y="563" type="line"/>
      <point x="478" y="617" type="line" smooth="yes"/>
      <point x="543" y="670"/>
      <point x="554" y="706"/>
      <point x="554" y="740" type="curve" smooth="yes"/>
      <point x="554" y="778"/>
      <point x="528" y="808"/>
      <point x="484" y="808" type="curve" smooth="yes"/>
      <point x="425" y="808"/>
      <point x="401" y="769"/>
    </contour>
  </outline>
</glyph>
<glyph name="Delta" format="2">
  <advance width="888"/>
  <unicode hex="0394"/>
  <outline>
    <contour>
      <point x="-31" y="0" type="line"/>
      <point x="808" y="0" type="line"/>
      <point x="836" y="157" type="line"/>
      <point x="628" y="710" type="line"/>
      <point x="406" y="710" type="line"/>
      <point x="-3" y="157" type="line"/>
    </contour>
    <contour>
      <point x="522" y="117" type="line"/>
      <point x="569" y="180" type="line"/>
      <point x="52" y="180" type="line"/>
      <point x="45" y="127" type="line"/>
      <point x="405" y="613" type="line"/>
      <point x="351" y="606" type="line"/>
    </contour>
  </outline>
</glyph>
<glyph name="Njecyr" format="2">
  <advance width="1395"/>
  <unicode hex="040A"/>
  <outline>
    <contour>
      <point x="288" y="412" type="line"/>
      <point x="275" y="359" type="line"/>
      <point x="762" y="359" type="line"/>
      <point x="775" y="412" type="line"/>
    </contour>
    <contour>
      <point x="-29" y="0" type="line"/>
      <point x="426" y="0" type="line"/>
      <point x="434" y="42" type="line"/>
      <point x="423" y="42" type="line" smooth="yes"/>
      <point x="396" y="42"/>
      <point x="364" y="45"/>
      <point x="365" y="51" type="curve" smooth="yes"/>
      <point x="473" y="659" type="line" smooth="yes"/>
      <point x="474" y="666"/>
      <point x="507" y="668"/>
      <point x="534" y="668" type="curve" smooth="yes"/>
      <point x="543" y="668" type="line"/>
      <point x="551" y="710" type="line"/>
      <point x="97" y="710" type="line"/>
      <point x="89" y="668" type="line"/>
      <point x="101" y="668" type="line" smooth="yes"/>
      <point x="134" y="668"/>
      <point x="156" y="662"/>
      <point x="152" y="637" type="curve" smooth="yes"/>
      <point x="53" y="74" type="line" smooth="yes"/>
      <point x="48" y="48"/>
      <point x="24" y="42"/>
      <point x="-9" y="42" type="curve" smooth="yes"/>
      <point x="-21" y="42" type="line"/>
    </contour>
    <contour>
      <point x="983" y="0" type="line" smooth="yes"/>
      <point x="1254" y="0"/>
      <point x="1365" y="83"/>
      <point x="1365" y="223" type="curve" smooth="yes"/>
      <point x="1365" y="341"/>
      <point x="1263" y="412"/>
      <point x="1034" y="412" type="curve" smooth="yes"/>
      <point x="809" y="412" type="line"/>
      <point x="795" y="359" type="line"/>
      <point x="953" y="359" type="line" smooth="yes"/>
      <point x="1038" y="359"/>
      <point x="1057" y="307"/>
      <point x="1057" y="239" type="curve" smooth="yes"/>
      <point x="1057" y="139"/>
      <point x="1009" y="53"/>
      <point x="908" y="53" type="curve" smooth="yes"/>
      <point x="876" y="53" type="line"/>
      <point x="978" y="633" type="line" smooth="yes"/>
      <point x="984" y="665"/>
      <point x="1013" y="668"/>
      <point x="1043" y="668" type="curve" smooth="yes"/>
      <point x="1052" y="668" type="line"/>
      <point x="1060" y="710" type="line"/>
      <point x="606" y="710" type="line"/>
      <point x="598" y="668" type="line"/>
      <point x="609" y="668" type="line" smooth="yes"/>
      <point x="650" y="668"/>
      <point x="667" y="664"/>
      <point x="666" y="659" type="curve" smooth="yes"/>
      <point x="559" y="51" type="line" smooth="yes"/>
      <point x="558" y="46"/>
      <point x="533" y="42"/>
      <point x="501" y="42" type="curve" smooth="yes"/>
      <point x="489" y="42" type="line"/>
      <point x="481" y="0" type="line"/>
    </contour>
  </outline>
</glyph>
<glyph name="Gecyr" format="2">
  <advance width="798"/>
  <unicode hex="0413"/>
  <outline>
    <contour>
      <point x="-30" y="0" type="line"/>
      <point x="450" y="0" type="line"/>
      <point x="458" y="42" type="line"/>
      <point x="438" y="42" type="line" smooth="yes"/>
      <point x="405" y="42"/>
      <point x="365" y="44"/>
      <point x="370" y="73" type="curve" smooth="yes"/>
      <point x="473" y="657" type="line"/>
      <point x="626" y="657" type="line" smooth="yes"/>
      <point x="688" y="657"/>
      <point x="720" y="648"/>
      <point x="720" y="610" type="curve" smooth="yes"/>
      <point x="719" y="468" type="line"/>
      <point x="775" y="468" type="line"/>
      <point x="818" y="710" type="line"/>
      <point x="96" y="710" type="line"/>
      <point x="88" y="668" type="line"/>
      <point x="100" y="668" type="line" smooth="yes"/>
      <point x="133" y="668"/>
      <point x="156" y="662"/>
      <point x="151" y="635" type="curve" smooth="yes"/>
      <point x="53" y="75" type="line" smooth="yes"/>
      <point x="48" y="48"/>
      <point x="23" y="42"/>
      <point x="-10" y="42" type="curve" smooth="yes"/>
      <point x="-22" y="42" type="line"/>
    </contour>
  </outline>
</glyph>
<glyph name="Decyr" format="2">
  <advance width="959"/>
  <unicode hex="0414"/>
  <outline>
    <contour>
      <point x="315" y="710" type="line"/>
      <point x="305" y="657" type="line"/>
      <point x="754" y="657" type="line"/>
      <point x="765" y="710" type="line"/>
    </contour>
    <contour>
      <point x="787" y="0" type="line"/>
      <point x="900" y="633" type="line" smooth="yes"/>
      <point x="905" y="661"/>
      <point x="931" y="668"/>
      <point x="965" y="668" type="curve" smooth="yes"/>
      <point x="976" y="668" type="line"/>
      <point x="984" y="710" type="line"/>
      <point x="597" y="710" type="line"/>
      <point x="471" y="0" type="line"/>
    </contour>
    <contour>
      <point x="770" y="-50" type="curve" smooth="yes"/>
      <point x="766" y="-170" type="line"/>
      <point x="828" y="-170" type="line"/>
      <point x="868" y="53" type="line"/>
      <point x="-34" y="53" type="line"/>
      <point x="-73" y="-170" type="line"/>
      <point x="-11" y="-170" type="line"/>
      <point x="26" y="-60" type="line" smooth="yes"/>
      <point x="41" y="-15"/>
      <point x="62" y="0"/>
      <point x="159" y="0" type="curve" smooth="yes"/>
      <point x="683" y="0" type="line" smooth="yes"/>
      <point x="739" y="0"/>
      <point x="771" y="-7"/>
    </contour>
    <contour>
      <point x="111" y="40" type="line"/>
      <point x="177" y="134"/>
      <point x="233" y="245"/>
      <point x="284" y="452" type="curve" smooth="yes"/>
      <point x="347" y="710" type="line"/>
      <point x="214" y="710" type="line"/>
      <point x="206" y="668" type="line"/>
      <point x="217" y="668" type="line" smooth="yes"/>
      <point x="258" y="668"/>
      <point x="277" y="660"/>
      <point x="270" y="633" type="curve" smooth="yes"/>
      <point x="226" y="457" type="line" smooth="yes"/>
      <point x="177" y="262"/>
      <point x="112" y="134"/>
      <point x="37" y="40" type="curve"/>
    </contour>
  </outline>
</glyph>
<glyph name="Elcyr" format="2">
  <advance width="926"/>
  <unicode hex="041B"/>
  <outline>
    <contour>
      <point x="345" y="710" type="line"/>
      <point x="333" y="657" type="line"/>
      <point x="743" y="657" type="line"/>
      <point x="755" y="710" type="line"/>
    </contour>
    <contour>
      <point x="230" y="413" type="line" smooth="yes"/>
      <point x="189.2572675479" y="252.9392653667"/>
      <point x="121.6603773585" y="230"/>
      <point x="56" y="230" type="curve" smooth="yes"/>
      <point x="28" y="230"/>
      <point x="10" y="237"/>
      <point x="3" y="241" type="curve"/>
      <point x="-39" y="5" type="line"/>
      <point x="-30" y="-1"/>
      <point x="-4" y="-10"/>
      <point x="34" y="-10" type="curve" smooth="yes"/>
      <point x="160.8982300885" y="-10"/>
      <point x="207.1949345142" y="70.8451290867"/>
      <point x="275" y="349" type="curve" smooth="yes"/>
      <point x="363" y="710" type="line"/>
      <point x="230" y="710" type="line"/>
      <point x="222" y="668" type="line"/>
      <point x="234" y="668" type="line" smooth="yes"/>
      <point x="275" y="668"/>
      <point x="293" y="659"/>
      <point x="286" y="633" type="curve" smooth="yes"/>
    </contour>
    <contour>
      <point x="384" y="0" type="line"/>
      <point x="840" y="0" type="line"/>
      <point x="848" y="42" type="line"/>
      <point x="836" y="42" type="line" smooth="yes"/>
      <point x="801" y="42"/>
      <point x="778" y="49"/>
      <point x="783" y="77" type="curve" smooth="yes"/>
      <point x="882" y="633" type="line" smooth="yes"/>
      <point x="887" y="659"/>
      <point x="908" y="668"/>
      <point x="947" y="668" type="curve" smooth="yes"/>
      <point x="958" y="668" type="line"/>
      <point x="966" y="710" type="line"/>
      <point x="578" y="710" type="line"/>
      <point x="462" y="51" type="line" smooth="yes"/>
      <point x="461" y="44"/>
      <point x="429" y="42"/>
      <point x="400" y="42" type="curve" smooth="yes"/>
      <point x="392" y="42" type="line"/>
    </contour>
  </outline>
</glyph>
<glyph name="Pecyr" format="2">
  <advance width="1023"/>
  <unicode hex="041F"/>
  <outline>
    <contour>
      <point x="334" y="710" type="line"/>
      <point x="324" y="657" type="line"/>
      <point x="751" y="657" type="line"/>
      <point x="761" y="710" type="line"/>
    </contour>
    <contour>
      <point x="-29" y="0" type="line"/>
      <point x="426" y="0" type="line"/>
      <point x="434" y="42" type="line"/>
      <point x="423" y="42" type="line" smooth="yes"/>
      <point x="395.641509434" y="42"/>
      <point x="363.9250184824" y="44.9965015244"/>
      <point x="365" y="51" type="curve" smooth="yes"/>
      <point x="483" y="710" type="line"/>
      <point x="97" y="710" type="line"/>
      <point x="89" y="668" type="line"/>
      <point x="101" y="668" type="line" smooth="yes"/>
      <point x="134" y="668"/>
      <point x="156" y="662"/>
      <point x="152" y="637" type="curve" smooth="yes"/>
      <point x="53" y="74" type="line" smooth="yes"/>
      <point x="48" y="48"/>
      <point x="24" y="42"/>
      <point x="-9" y="42" type="curve" smooth="yes"/>
      <point x="-21" y="42" type="line"/>
    </contour>
    <contour>
      <point x="481" y="0" type="line"/>
      <point x="937" y="0" type="line"/>
      <point x="945" y="42" type="line"/>
      <point x="933" y="42" type="line" smooth="yes"/>
      <point x="899" y="42"/>
      <point x="875" y="49"/>
      <point x="880" y="77" type="curve" smooth="yes"/>
      <point x="979" y="633" type="line" smooth="yes"/>
      <point x="984" y="661"/>
      <point x="1010" y="668"/>
      <point x="1043" y="668" type="curve" smooth="yes"/>
      <point x="1055" y="668" type="line"/>
      <point x="1063" y="710" type="line"/>
      <point x="675" y="710" type="line"/>
      <point x="559" y="51" type="line" smooth="yes"/>
      <point x="557.9427929065" y="44.9939700462"/>
      <point x="526.2727272727" y="42"/>
      <point x="499" y="42" type="curve" smooth="yes"/>
      <point x="489" y="42" type="line"/>
    </contour>
  </outline>
</glyph>
<glyph name="Ucyr" format="2">
  <advance width="826"/>
  <unicode hex="0423"/>
  <outline>
    <contour>
      <point x="455" y="169" type="curve" smooth="yes"/>
      <point x="810" y="633" type="line" smooth="yes"/>
      <point x="836" y="666"/>
      <point x="853" y="668"/>
      <point x="877" y="668" type="curve" smooth="yes"/>
      <point x="882" y="668" type="line"/>
      <point x="890" y="710" type="line"/>
      <point x="693" y="710" type="line"/>
      <point x="685" y="668" type="line"/>
      <point x="701" y="668" type="line" smooth="yes"/>
      <point x="739" y="668"/>
      <point x="753" y="660"/>
      <point x="751" y="647" type="curve"/>
      <point x="450" y="252" type="line" smooth="yes"/>
      <point x="411" y="201"/>
      <point x="329" y="183"/>
      <point x="261" y="183" type="curve" smooth="yes"/>
      <point x="189" y="183"/>
      <point x="155" y="194"/>
      <point x="147" y="196" type="curve"/>
      <point x="113" y="0" type="line"/>
      <point x="123" y="-4"/>
      <point x="152" y="-10"/>
      <point x="187" y="-10" type="curve" smooth="yes"/>
      <point x="310" y="-10"/>
      <point x="362" y="48"/>
    </contour>
    <contour>
      <point x="589" y="382" type="line"/>
      <point x="449" y="657" type="line"/>
      <point x="450" y="666"/>
      <point x="482" y="668"/>
      <point x="505" y="668" type="curve" smooth="yes"/>
      <point x="522" y="668" type="line"/>
      <point x="530" y="710" type="line"/>
      <point x="76" y="710" type="line"/>
      <point x="68" y="668" type="line"/>
      <point x="77" y="668" type="line" smooth="yes"/>
      <point x="101" y="668"/>
      <point x="106" y="657"/>
      <point x="115" y="641" type="curve" smooth="yes"/>
      <point x="380" y="146" type="line"/>
    </contour>
  </outline>
</glyph>
<glyph name="Tsecyr" format="2">
  <advance width="1038"/>
  <unicode hex="0426"/>
  <outline>
    <contour>
      <point x="762" y="0" type="line" smooth="yes"/>
      <point x="818" y="0"/>
      <point x="850" y="-7"/>
      <point x="849" y="-50" type="curve" smooth="yes"/>
      <point x="845" y="-170" type="line"/>
      <point x="907" y="-170" type="line"/>
      <point x="947" y="53" type="line"/>
      <point x="689" y="53" type="line"/>
      <point x="674" y="0" type="line"/>
    </contour>
    <contour>
      <point x="564" y="0" type="line"/>
      <point x="574" y="53" type="line"/>
      <point x="197" y="53" type="line"/>
      <point x="187" y="0" type="line"/>
    </contour>
    <contour>
      <point x="-29" y="0" type="line"/>
      <point x="356" y="0" type="line"/>
      <point x="473" y="659" type="line" smooth="yes"/>
      <point x="474.2384268286" y="665.9754126498"/>
      <point x="505.7272727273" y="668"/>
      <point x="533" y="668" type="curve" smooth="yes"/>
      <point x="542" y="668" type="line"/>
      <point x="550" y="710" type="line"/>
      <point x="97" y="710" type="line"/>
      <point x="89" y="668" type="line"/>
      <point x="101" y="668" type="line" smooth="yes"/>
      <point x="134" y="668"/>
      <point x="156" y="662"/>
      <point x="152" y="637" type="curve" smooth="yes"/>
      <point x="53" y="74" type="line" smooth="yes"/>
      <point x="48" y="48"/>
      <point x="24" y="42"/>
      <point x="-9" y="42" type="curve" smooth="yes"/>
      <point x="-21" y="42" type="line"/>
    </contour>
    <contour>
      <point x="866" y="0" type="line"/>
      <point x="979" y="633" type="line" smooth="yes"/>
      <point x="984" y="661"/>
      <point x="1010" y="668"/>
      <point x="1043" y="668" type="curve" smooth="yes"/>
      <point x="1055" y="668" type="line"/>
      <point x="1063" y="710" type="line"/>
      <point x="605" y="710" type="line"/>
      <point x="597" y="668" type="line"/>
      <point x="608" y="668" type="line" smooth="yes"/>
      <point x="634.2641509434" y="668"/>
      <point x="667.2282531414" y="665.9777484499"/>
      <point x="666" y="659" type="curve" smooth="yes"/>
      <point x="550" y="0" type="line"/>
    </contour>
  </outline>
</glyph>
<glyph name="Shacyr" format="2">
  <advance width="1463"/>
  <unicode hex="0428"/>
  <outline>
    <contour>
      <point x="1157" y="0" type="line"/>
      <point x="1169" y="53" type="line"/>
      <point x="160" y="53" type="line"/>
      <point x="148" y="0" type="line"/>
    </contour>
    <contour>
      <point x="-29" y="0" type="line"/>
      <point x="356" y="0" type="line"/>
      <point x="473" y="659" type="line" smooth="yes"/>
      <point x="474.2419913106" y="665.9954895185"/>
      <point x="502.8913043478" y="668"/>
      <point x="528" y="668" type="curve" smooth="yes"/>
      <point x="537" y="668" type="line"/>
      <point x="545" y="710" type="line"/>
      <point x="97" y="710" type="line"/>
      <point x="89" y="668" type="line"/>
      <point x="101" y="668" type="line" smooth="yes"/>
      <point x="134" y="668"/>
      <point x="156" y="662"/>
      <point x="152" y="637" type="curve" smooth="yes"/>
      <point x="53" y="74" type="line" smooth="yes"/>
      <point x="48" y="48"/>
      <point x="24" y="42"/>
      <point x="-9" y="42" type="curve" smooth="yes"/>
      <point x="-21" y="42" type="line"/>
    </contour>
    <contour>
      <point x="1377" y="0" type="line"/>
      <point x="1385" y="42" type="line"/>
      <point x="1373" y="42" type="line" smooth="yes"/>
      <point x="1339" y="42"/>
      <point x="1315" y="49"/>
      <point x="1320" y="77" type="curve" smooth="yes"/>
      <point x="1419" y="633" type="line" smooth="yes"/>
      <point x="1424" y="661"/>
      <point x="1450" y="668"/>
      <point x="1483" y="668" type="curve" smooth="yes"/>
      <point x="1495" y="668" type="line"/>
      <point x="1503" y="710" type="line"/>
      <point x="1050" y="710" type="line"/>
      <point x="1042" y="668" type="line"/>
      <point x="1053" y="668" type="line" smooth="yes"/>
      <point x="1077.0909090909" y="668"/>
      <point x="1107.2333872639" y="666.006915577"/>
      <point x="1106" y="659" type="curve" smooth="yes"/>
      <point x="990" y="0" type="line"/>
    </contour>
    <contour>
      <point x="832" y="0" type="line"/>
      <point x="948" y="659" type="line" smooth="yes"/>
      <point x="949.2335635927" y="666.0079173071"/>
      <point x="970.976744186" y="668"/>
      <point x="1000" y="668" type="curve" smooth="yes"/>
      <point x="1012" y="668" type="line"/>
      <point x="1020" y="710" type="line"/>
      <point x="575" y="710" type="line"/>
      <point x="567" y="668" type="line"/>
      <point x="578" y="668" type="line" smooth="yes"/>
      <point x="602.0909090909" y="668"/>
      <point x="632.2422576278" y="665.9969895445"/>
      <point x="631" y="659" type="curve" smooth="yes"/>
      <point x="514" y="0" type="line"/>
    </contour>
  </outline>
</glyph>
<glyph name="Hardcyr" format="2">
  <advance width="1033"/>
  <unicode hex="042A"/>
  <outline>
    <contour>
      <point x="304" y="657" type="line"/>
      <point x="202" y="77" type="line" smooth="yes"/>
      <point x="197" y="47"/>
      <point x="172" y="42"/>
      <point x="139" y="42" type="curve" smooth="yes"/>
      <point x="127" y="42" type="line"/>
      <point x="119" y="0" type="line"/>
      <point x="621" y="0" type="line" smooth="yes"/>
      <point x="892" y="0"/>
      <point x="1003" y="88"/>
      <point x="1003" y="237" type="curve" smooth="yes"/>
      <point x="1003" y="361"/>
      <point x="901" y="436"/>
      <point x="672" y="436" type="curve" smooth="yes"/>
      <point x="399" y="436" type="line"/>
      <point x="383" y="383" type="line"/>
      <point x="591" y="383" type="line" smooth="yes"/>
      <point x="676" y="383"/>
      <point x="695" y="327"/>
      <point x="695" y="253" type="curve" smooth="yes"/>
      <point x="695" y="145"/>
      <point x="647" y="53"/>
      <point x="546" y="53" type="curve" smooth="yes"/>
      <point x="514" y="53" type="line"/>
      <point x="621" y="659" type="line" smooth="yes"/>
      <point x="622" y="665"/>
      <point x="651" y="668"/>
      <point x="681" y="668" type="curve" smooth="yes"/>
      <point x="690" y="668" type="line"/>
      <point x="698" y="710" type="line"/>
      <point x="94" y="710" type="line"/>
      <point x="51" y="468" type="line"/>
      <point x="107" y="468" type="line"/>
      <point x="154" y="597" type="line" smooth="yes"/>
      <point x="172" y="646"/>
      <point x="202" y="657"/>
      <point x="284" y="657" type="curve" smooth="yes"/>
    </contour>
  </outline>
</glyph>
<glyph name="Ylongcyr" format="2">
  <advance width="1343"/>
  <unicode hex="042B"/>
  <outline>
    <contour>
      <point x="801" y="0" type="line"/>
      <point x="1257" y="0" type="line"/>
      <point x="1265" y="42" type="line"/>
      <point x="1253" y="42" type="line" smooth="yes"/>
      <point x="1219" y="42"/>
      <point x="1195" y="49"/>
      <point x="1200" y="77" type="curve" smooth="yes"/>
      <point x="1299" y="633" type="line" smooth="yes"/>
      <point x="1304" y="661"/>
      <point x="1330" y="668"/>
      <point x="1363" y="668" type="curve" smooth="yes"/>
      <point x="1375" y="668" type="line"/>
      <point x="1383" y="710" type="line"/>
      <point x="925" y="710" type="line"/>
      <point x="917" y="668" type="line"/>
      <point x="928" y="668" type="line" smooth="yes"/>
      <point x="954" y="668"/>
      <point x="987" y="666"/>
      <point x="986" y="659" type="curve" smooth="yes"/>
      <point x="879" y="51" type="line" smooth="yes"/>
      <point x="878" y="45"/>
      <point x="846" y="42"/>
      <point x="819" y="42" type="curve" smooth="yes"/>
      <point x="809" y="42" type="line"/>
    </contour>
    <component base="Softcyr"/>
  </outline>
</glyph>
<glyph name="Ereversedcyr" format="2">
  <advance width="882"/>
  <unicode hex="042D"/>
  <guideline x="1147" y="753" angle="90" identifier="Ovo68woMtl"/>
  <guideline x="211" y="787" angle="90" identifier="vAARoAR0gU"/>
  <outline>
    <contour>
      <point x="630" y="386" type="line"/>
      <point x="468.0813542002" y="389.1748754078"/>
      <point x="383.2699122761" y="397.9170151523"/>
      <point x="267" y="418" type="curve"/>
      <point x="248" y="309" type="line"/>
      <point x="371.4358276919" y="333.2651627087"/>
      <point x="456.1659733535" y="336.7734864962"/>
      <point x="621" y="341" type="curve"/>
    </contour>
    <contour>
      <point x="360" y="-10" type="curve" smooth="yes"/>
      <point x="681" y="-10"/>
      <point x="859" y="154"/>
      <point x="859" y="388" type="curve" smooth="yes"/>
      <point x="859" y="596"/>
      <point x="702" y="720"/>
      <point x="443" y="720" type="curve" smooth="yes"/>
      <point x="307.2325581395" y="720"/>
      <point x="181" y="670"/>
      <point x="145" y="580" type="curve"/>
      <point x="190" y="611" type="line"/>
      <point x="180" y="710" type="line"/>
      <point x="130" y="710" type="line"/>
      <point x="92" y="498" type="line"/>
      <point x="137" y="498" type="line"/>
      <point x="189.2142450663" y="607.4490906198"/>
      <point x="263.731277533" y="660"/>
      <point x="369" y="660" type="curve" smooth="yes"/>
      <point x="479.4814814815" y="660"/>
      <point x="526" y="585"/>
      <point x="526" y="449" type="curve" smooth="yes"/>
      <point x="526" y="230"/>
      <point x="449" y="48"/>
      <point x="271" y="48" type="curve" smooth="yes"/>
      <point x="170" y="48"/>
      <point x="101" y="119"/>
      <point x="83" y="212" type="curve"/>
      <point x="36" y="212" type="line"/>
      <point x="-2" y="0" type="line"/>
      <point x="48" y="0" type="line"/>
      <point x="99" y="115" type="line"/>
      <point x="61" y="129" type="line"/>
      <point x="101.2016993523" y="42.4117244721"/>
      <point x="182" y="-10"/>
    </contour>
  </outline>
</glyph>
<glyph name="decyr" format="2">
  <advance width="846"/>
  <unicode hex="0434"/>
  <outline>
    <contour>
      <point x="381" y="691" type="curve" smooth="yes"/>
      <point x="494" y="691"/>
      <point x="522" y="611"/>
      <point x="522" y="433" type="curve" smooth="yes"/>
      <point x="522" y="364"/>
      <point x="511" y="291"/>
      <point x="500" y="234" type="curve" smooth="yes"/>
      <point x="482" y="141"/>
      <point x="446" y="40"/>
      <point x="387" y="40" type="curve" smooth="yes"/>
      <point x="343" y="40"/>
      <point x="324" y="80"/>
      <point x="324" y="162" type="curve" smooth="yes"/>
      <point x="324" y="212"/>
      <point x="335" y="276"/>
      <point x="348" y="327" type="curve" smooth="yes"/>
      <point x="371" y="416"/>
      <point x="399" y="455"/>
      <point x="446" y="455" type="curve" smooth="yes"/>
      <point x="488" y="455"/>
      <point x="528" y="420"/>
      <point x="545" y="346" type="curve"/>
      <point x="557" y="418" type="line"/>
      <point x="540" y="477"/>
      <point x="470" y="534"/>
      <point x="344" y="534" type="curve" smooth="yes"/>
      <point x="158" y="534"/>
      <point x="29" y="422"/>
      <point x="29" y="252" type="curve" smooth="yes"/>
      <point x="29" y="92"/>
      <point x="168" y="-10"/>
      <point x="391" y="-10" type="curve" smooth="yes"/>
      <point x="674" y="-10"/>
      <point x="824" y="136"/>
      <point x="824" y="402" type="curve" smooth="yes"/>
      <point x="824" y="563"/>
      <point x="745" y="760"/>
      <point x="452" y="760" type="curve" smooth="yes"/>
      <point x="296" y="760"/>
      <point x="200" y="688"/>
      <point x="146" y="592" type="curve"/>
      <point x="185" y="567" type="line"/>
      <point x="230" y="635"/>
      <point x="298" y="691"/>
    </contour>
  </outline>
</glyph>
<glyph name="zecyr" format="2">
  <advance width="697"/>
  <unicode hex="0437"/>
  <outline>
    <contour>
      <point x="283" y="468" type="curve" smooth="yes"/>
      <point x="341" y="468"/>
      <point x="366" y="435"/>
      <point x="366" y="395" type="curve" smooth="yes"/>
      <point x="366" y="326"/>
      <point x="337.956043956" y="291"/>
      <point x="278" y="291" type="curve" smooth="yes"/>
      <point x="228" y="291" type="line"/>
      <point x="219" y="243" type="line"/>
      <point x="269" y="243" type="line" smooth="yes"/>
      <point x="318" y="243"/>
      <point x="350" y="230"/>
      <point x="350" y="162" type="curve" smooth="yes"/>
      <point x="350" y="72"/>
      <point x="320" y="38"/>
      <point x="260" y="38" type="curve" smooth="yes"/>
      <point x="214.1621621622" y="38"/>
      <point x="178.4204456761" y="53.5563721509"/>
      <point x="154" y="77" type="curve"/>
      <point x="148" y="64"/>
      <point x="163" y="43"/>
      <point x="200" y="43" type="curve"/>
      <point x="221" y="154" type="line"/>
      <point x="28" y="154" type="line"/>
      <point x="8" y="56" type="line"/>
      <point x="43.5439392993" y="36.2533670559"/>
      <point x="143.707641196" y="-10"/>
      <point x="304" y="-10" type="curve" smooth="yes"/>
      <point x="583" y="-10"/>
      <point x="651" y="61"/>
      <point x="651" y="135" type="curve" smooth="yes"/>
      <point x="651" y="221"/>
      <point x="542" y="271"/>
      <point x="349" y="271" type="curve"/>
      <point x="435" y="256" type="line"/>
      <point x="437" y="272" type="line"/>
      <point x="355" y="265" type="line"/>
      <point x="590.7115384615" y="265"/>
      <point x="664" y="329"/>
      <point x="664" y="404" type="curve" smooth="yes"/>
      <point x="664" y="480"/>
      <point x="567" y="534"/>
      <point x="396" y="534" type="curve" smooth="yes"/>
      <point x="221" y="534"/>
      <point x="130" y="484"/>
      <point x="75" y="404" type="curve"/>
      <point x="114" y="379" type="line"/>
      <point x="150" y="424"/>
      <point x="210" y="468"/>
    </contour>
  </outline>
</glyph>
<glyph name="kacyr" format="2">
  <advance width="833"/>
  <unicode hex="043A"/>
  <guideline x="404" y="523" angle="90" identifier="lmgRx0QBdK"/>
  <guideline x="241" y="553" angle="90" identifier="DssiZIUJtU"/>
  <guideline x="241" y="553" angle="90" identifier="e7XKJqemjk"/>
  <guideline x="543" y="272" angle="0" identifier="qdHgBDPa7a"/>
  <outline>
    <contour>
      <point x="730" y="143" type="line" smooth="yes"/>
      <point x="758" y="68"/>
      <point x="768" y="50"/>
      <point x="795" y="50" type="curve" smooth="yes"/>
      <point x="808" y="50"/>
      <point x="820" y="53"/>
      <point x="823" y="54" type="curve"/>
      <point x="816" y="15" type="line"/>
      <point x="788" y="1"/>
      <point x="711" y="-10"/>
      <point x="639" y="-10" type="curve" smooth="yes"/>
      <point x="527" y="-10"/>
      <point x="467" y="23"/>
      <point x="428" y="132" type="curve" smooth="yes"/>
      <point x="380" y="266" type="line"/>
      <point x="383" y="279" type="line"/>
      <point x="518" y="362"/>
      <point x="591" y="437"/>
      <point x="651" y="524" type="curve"/>
      <point x="857" y="524" type="line"/>
      <point x="857" y="514" type="line"/>
      <point x="804" y="467"/>
      <point x="726" y="406"/>
      <point x="590" y="356" type="curve"/>
      <point x="639" y="385" type="line"/>
    </contour>
    <contour>
      <point x="12" y="0" type="line"/>
      <point x="94" y="456" type="line" smooth="yes"/>
      <point x="97" y="472"/>
      <point x="84" y="479"/>
      <point x="58" y="482" type="curve" smooth="yes"/>
      <point x="42" y="484" type="line"/>
      <point x="49" y="524" type="line"/>
      <point x="405" y="524" type="line"/>
      <point x="311" y="0" type="line"/>
    </contour>
  </outline>
</glyph>
<glyph name="emcyr" format="2">
  <advance width="1062"/>
  <unicode hex="043C"/>
  <guideline x="437" y="429" angle="0" identifier="KfEgXFQiht"/>
  <guideline x="311.5586244005" y="456.0539879678" angle="0" identifier="R9hf5DpDvk"/>
  <outline>
    <contour>
      <point x="519" y="524" type="line"/>
      <point x="564" y="192" type="line"/>
      <point x="524" y="192" type="line"/>
      <point x="700" y="524" type="line"/>
      <point x="768" y="524" type="line"/>
      <point x="496" y="0" type="line"/>
      <point x="333" y="0" type="line"/>
      <point x="269" y="524" type="line"/>
    </contour>
    <contour>
      <point x="188" y="335" type="curve" smooth="yes"/>
      <point x="213" y="453" type="line" smooth="yes"/>
      <point x="217" y="473"/>
      <point x="209" y="478"/>
      <point x="177" y="482" type="curve" smooth="yes"/>
      <point x="162" y="484" type="line"/>
      <point x="169" y="524" type="line"/>
      <point x="288" y="524" type="line"/>
      <point x="232" y="256" type="line" smooth="yes"/>
      <point x="191" y="60"/>
      <point x="158" y="-10"/>
      <point x="51" y="-10" type="curve" smooth="yes"/>
      <point x="23" y="-10"/>
      <point x="4.6812366877" y="-3.5204497046"/>
      <point x="-5" y="0" type="curve"/>
      <point x="32" y="208" type="line"/>
      <point x="40.6482318648" y="203.6758840676"/>
      <point x="57.6551724138" y="195"/>
      <point x="80" y="195" type="curve" smooth="yes"/>
      <point x="140" y="195"/>
      <point x="165" y="226"/>
    </contour>
    <contour>
      <point x="968" y="77" type="curve" smooth="yes"/>
      <point x="968" y="62"/>
      <point x="978" y="53"/>
      <point x="1002" y="53" type="curve" smooth="yes"/>
      <point x="1017" y="53"/>
      <point x="1031" y="57"/>
      <point x="1036" y="58" type="curve"/>
      <point x="1029" y="19" type="line"/>
      <point x="997" y="4"/>
      <point x="942" y="-10"/>
      <point x="866" y="-10" type="curve" smooth="yes"/>
      <point x="737" y="-10"/>
      <point x="681" y="33"/>
      <point x="681" y="123" type="curve" smooth="yes"/>
      <point x="681" y="152"/>
      <point x="685" y="177"/>
      <point x="689" y="197" type="curve" smooth="yes"/>
      <point x="747" y="524" type="line"/>
      <point x="1047" y="524" type="line"/>
      <point x="986" y="196" type="line" smooth="yes"/>
      <point x="979" y="157"/>
      <point x="968" y="100"/>
    </contour>
  </outline>
</glyph>
<glyph name="encyr" format="2">
  <advance width="832"/>
  <unicode hex="043D"/>
  <outline>
    <contour>
      <point x="186" y="246" type="line"/>
      <point x="203" y="299" type="line"/>
      <point x="587" y="299" type="line"/>
      <point x="576" y="246" type="line"/>
    </contour>
    <contour>
      <point x="12" y="0" type="line"/>
      <point x="93" y="456" type="line" smooth="yes"/>
      <point x="96" y="472"/>
      <point x="83" y="479"/>
      <point x="58" y="482" type="curve" smooth="yes"/>
      <point x="42" y="484" type="line"/>
      <point x="49" y="524" type="line"/>
      <point x="404" y="524" type="line"/>
      <point x="311" y="0" type="line"/>
    </contour>
    <contour>
      <point x="738" y="77" type="curve" smooth="yes"/>
      <point x="738" y="62"/>
      <point x="748" y="53"/>
      <point x="772" y="53" type="curve" smooth="yes"/>
      <point x="787" y="53"/>
      <point x="801" y="57"/>
      <point x="806" y="58" type="curve"/>
      <point x="799" y="19" type="line"/>
      <point x="767" y="4"/>
      <point x="712" y="-10"/>
      <point x="636" y="-10" type="curve" smooth="yes"/>
      <point x="507" y="-10"/>
      <point x="451" y="33"/>
      <point x="451" y="123" type="curve" smooth="yes"/>
      <point x="451" y="152"/>
      <point x="455" y="177"/>
      <point x="459" y="197" type="curve" smooth="yes"/>
      <point x="517" y="524" type="line"/>
      <point x="817" y="524" type="line"/>
      <point x="756" y="196" type="line" smooth="yes"/>
      <point x="749" y="157"/>
      <point x="738" y="100"/>
    </contour>
  </outline>
</glyph>
<glyph name="efcyr" format="2">
  <advance width="1176"/>
  <unicode hex="0444"/>
  <outline>
    <contour>
      <point x="829" y="750" type="line"/>
      <point x="473" y="750" type="line"/>
      <point x="466" y="710" type="line"/>
      <point x="482" y="708" type="line" smooth="yes"/>
      <point x="510" y="705"/>
      <point x="521" y="698"/>
      <point x="518" y="682" type="curve" smooth="yes"/>
      <point x="368" y="-155" type="line" smooth="yes"/>
      <point x="364" y="-179"/>
      <point x="342" y="-184"/>
      <point x="318" y="-184" type="curve" smooth="yes"/>
      <point x="316" y="-184" type="line"/>
      <point x="309" y="-223" type="line"/>
      <point x="696" y="-223" type="line"/>
      <point x="703" y="-184" type="line"/>
      <point x="701" y="-184" type="line" smooth="yes"/>
      <point x="673" y="-184"/>
      <point x="663" y="-178"/>
      <point x="668" y="-151" type="curve" smooth="yes"/>
    </contour>
    <contour>
      <point x="415" y="40" type="line"/>
      <point x="358" y="43"/>
      <point x="330" y="116"/>
      <point x="330" y="195" type="curve" smooth="yes"/>
      <point x="330" y="338"/>
      <point x="389" y="478"/>
      <point x="492" y="483" type="curve"/>
      <point x="501" y="533" type="line"/>
      <point x="181" y="523"/>
      <point x="27" y="406"/>
      <point x="27" y="230" type="curve" smooth="yes"/>
      <point x="27" y="86"/>
      <point x="166" y="-2"/>
      <point x="406" y="-10" type="curve"/>
    </contour>
    <contour>
      <point x="768" y="483" type="line"/>
      <point x="825" y="480"/>
      <point x="851" y="416"/>
      <point x="851" y="328" type="curve" smooth="yes"/>
      <point x="851" y="201"/>
      <point x="816" y="45"/>
      <point x="684" y="40" type="curve"/>
      <point x="676" y="-10" type="line"/>
      <point x="1009" y="0"/>
      <point x="1154" y="114"/>
      <point x="1154" y="286" type="curve" smooth="yes"/>
      <point x="1154" y="433"/>
      <point x="1016" y="525"/>
      <point x="778" y="533" type="curve"/>
    </contour>
  </outline>
</glyph>
<glyph name="tsecyr" format="2">
  <advance width="838"/>
  <unicode hex="0446"/>
  <outline>
    <contour>
      <point x="344" y="210" type="curve" smooth="yes"/>
      <point x="403" y="524" type="line"/>
      <point x="49" y="524" type="line"/>
      <point x="42" y="484" type="line"/>
      <point x="57" y="482" type="line" smooth="yes"/>
      <point x="83" y="479"/>
      <point x="96" y="472"/>
      <point x="93" y="456" type="curve" smooth="yes"/>
      <point x="49" y="235" type="line" smooth="yes"/>
      <point x="40" y="189"/>
      <point x="35" y="154"/>
      <point x="35" y="127" type="curve" smooth="yes"/>
      <point x="35" y="41"/>
      <point x="101" y="-10"/>
      <point x="216" y="-10" type="curve" smooth="yes"/>
      <point x="346" y="-10"/>
      <point x="437" y="60"/>
      <point x="499" y="165" type="curve"/>
      <point x="488" y="220" type="line"/>
      <point x="449" y="142"/>
      <point x="410" y="102"/>
      <point x="369" y="102" type="curve" smooth="yes"/>
      <point x="348" y="102"/>
      <point x="334" y="114"/>
      <point x="334" y="138" type="curve" smooth="yes"/>
      <point x="334" y="157"/>
      <point x="338" y="177"/>
    </contour>
    <contour>
      <point x="601" y="0" type="curve" smooth="yes"/>
      <point x="704" y="0"/>
      <point x="719" y="-11"/>
      <point x="718" y="-46" type="curve" smooth="yes"/>
      <point x="714" y="-150" type="line"/>
      <point x="780" y="-150" type="line"/>
      <point x="816" y="53" type="line"/>
      <point x="772" y="53" type="line" smooth="yes"/>
      <point x="752" y="53"/>
      <point x="738" y="59"/>
      <point x="738" y="77" type="curve" smooth="yes"/>
      <point x="738" y="93"/>
      <point x="744" y="132"/>
      <point x="752" y="173" type="curve" smooth="yes"/>
      <point x="817" y="524" type="line"/>
      <point x="516" y="524" type="line"/>
      <point x="446" y="133" type="line"/>
      <point x="451" y="133" type="line"/>
      <point x="451" y="128"/>
      <point x="451" y="124"/>
      <point x="451" y="117" type="curve" smooth="yes"/>
      <point x="451" y="41"/>
      <point x="502" y="0"/>
    </contour>
  </outline>
</glyph>
<glyph name="ylongcyr" format="2">
  <advance width="1172"/>
  <unicode hex="044B"/>
  <outline>
    <contour>
      <point x="1078" y="77" type="curve" smooth="yes"/>
      <point x="1078" y="62"/>
      <point x="1088" y="53"/>
      <point x="1112" y="53" type="curve" smooth="yes"/>
      <point x="1127" y="53"/>
      <point x="1141" y="57"/>
      <point x="1146" y="58" type="curve"/>
      <point x="1139" y="19" type="line"/>
      <point x="1107" y="4"/>
      <point x="1052" y="-10"/>
      <point x="976" y="-10" type="curve" smooth="yes"/>
      <point x="847" y="-10"/>
      <point x="791" y="33"/>
      <point x="791" y="123" type="curve" smooth="yes"/>
      <point x="791" y="152"/>
      <point x="795" y="177"/>
      <point x="799" y="197" type="curve" smooth="yes"/>
      <point x="857" y="524" type="line"/>
      <point x="1157" y="524" type="line"/>
      <point x="1096" y="196" type="line" smooth="yes"/>
      <point x="1089" y="157"/>
      <point x="1078" y="100"/>
    </contour>
    <component base="softcyr"/>
  </outline>
</glyph>
<glyph name="softcyr" format="2">
  <advance width="780"/>
  <unicode hex="044C"/>
  <outline>
    <contour>
      <point x="386" y="-10" type="curve" smooth="yes"/>
      <point x="633" y="-10"/>
      <point x="751" y="55"/>
      <point x="751" y="174" type="curve" smooth="yes"/>
      <point x="751" y="282"/>
      <point x="651" y="339"/>
      <point x="414" y="339" type="curve" smooth="yes"/>
      <point x="173" y="339" type="line"/>
      <point x="163" y="286" type="line"/>
      <point x="378" y="286" type="line" smooth="yes"/>
      <point x="429" y="286"/>
      <point x="445" y="250"/>
      <point x="445" y="190" type="curve" smooth="yes"/>
      <point x="445" y="112"/>
      <point x="419.3216617123" y="40"/>
      <point x="370" y="40" type="curve" smooth="yes"/>
      <point x="327" y="40"/>
      <point x="320" y="81"/>
      <point x="341" y="194" type="curve" smooth="yes"/>
      <point x="403" y="524" type="line"/>
      <point x="49" y="524" type="line"/>
      <point x="42" y="484" type="line"/>
      <point x="65" y="481" type="line" smooth="yes"/>
      <point x="85" y="478"/>
      <point x="96" y="470"/>
      <point x="93" y="455" type="curve" smooth="yes"/>
      <point x="51" y="248" type="line" smooth="yes"/>
      <point x="10" y="44"/>
      <point x="168" y="-10"/>
    </contour>
  </outline>
</glyph>
<glyph name="ereversedcyr" format="2">
  <advance width="730"/>
  <unicode hex="044D"/>
  <guideline x="180" y="548" angle="90" identifier="n4jm0tBg3Y"/>
  <guideline x="180" y="548" angle="90" identifier="mfF0xQhUKN"/>
  <outline>
    <contour>
      <point x="569" y="299" type="line"/>
      <point x="222" y="299" type="line"/>
      <point x="213" y="246" type="line"/>
      <point x="560" y="246" type="line"/>
    </contour>
    <contour>
      <point x="274" y="455" type="curve" smooth="yes"/>
      <point x="363" y="455"/>
      <point x="397" y="396"/>
      <point x="397" y="297" type="curve" smooth="yes"/>
      <point x="397" y="127"/>
      <point x="353" y="40"/>
      <point x="258" y="40" type="curve" smooth="yes"/>
      <point x="222" y="40"/>
      <point x="200.8556944782" y="48.9240529842"/>
      <point x="192" y="61" type="curve"/>
      <point x="188.3078131509" y="47.7081273434"/>
      <point x="200" y="36"/>
      <point x="220" y="36" type="curve"/>
      <point x="244" y="176" type="line"/>
      <point x="32" y="176" type="line"/>
      <point x="11" y="53" type="line"/>
      <point x="64" y="21"/>
      <point x="167" y="-10"/>
      <point x="294" y="-10" type="curve" smooth="yes"/>
      <point x="591" y="-10"/>
      <point x="708" y="114"/>
      <point x="708" y="292" type="curve" smooth="yes"/>
      <point x="708" y="446"/>
      <point x="587.7125748503" y="534"/>
      <point x="384" y="534" type="curve" smooth="yes"/>
      <point x="216.8895899054" y="534"/>
      <point x="112.3955694859" y="479.7336015921"/>
      <point x="57" y="377" type="curve"/>
      <point x="96" y="352" type="line"/>
      <point x="148" y="427"/>
      <point x="211" y="455"/>
    </contour>
  </outline>
</glyph>
<glyph name="yucyr" format="2">
  <advance width="1226"/>
  <unicode hex="044E"/>
  <guideline x="645" y="487" angle="90" identifier="5WLHpa9SA0"/>
  <outline>
    <contour>
      <point x="186" y="246" type="line"/>
      <point x="203" y="299" type="line"/>
      <point x="587" y="299" type="line"/>
      <point x="576" y="246" type="line"/>
    </contour>
    <contour>
      <point x="12" y="0" type="line"/>
      <point x="93" y="456" type="line" smooth="yes"/>
      <point x="96" y="472"/>
      <point x="83" y="479"/>
      <point x="58" y="482" type="curve" smooth="yes"/>
      <point x="42" y="484" type="line"/>
      <point x="49" y="524" type="line"/>
      <point x="404" y="524" type="line"/>
      <point x="311" y="0" type="line"/>
    </contour>
    <contour>
      <point x="827" y="534" type="curve" smooth="yes"/>
      <point x="1059" y="534"/>
      <point x="1204" y="445"/>
      <point x="1204" y="279" type="curve" smooth="yes"/>
      <point x="1204" y="108"/>
      <point x="1053" y="-10"/>
      <point x="794" y="-10" type="curve" smooth="yes"/>
      <point x="562" y="-10"/>
      <point x="417" y="79"/>
      <point x="417" y="245" type="curve" smooth="yes"/>
      <point x="417" y="416"/>
      <point x="568" y="534"/>
    </contour>
    <contour>
      <point x="900" y="374" type="curve" smooth="yes"/>
      <point x="900" y="452"/>
      <point x="880" y="484"/>
      <point x="841" y="484" type="curve" smooth="yes"/>
      <point x="788" y="484"/>
      <point x="754" y="388"/>
      <point x="736" y="294" type="curve" smooth="yes"/>
      <point x="724" y="230"/>
      <point x="721" y="184"/>
      <point x="721" y="150" type="curve" smooth="yes"/>
      <point x="721" y="72"/>
      <point x="741" y="40"/>
      <point x="780" y="40" type="curve" smooth="yes"/>
      <point x="833" y="40"/>
      <point x="867" y="136"/>
      <point x="885" y="230" type="curve" smooth="yes"/>
      <point x="897" y="294"/>
      <point x="900" y="340"/>
    </contour>
  </outline>
</glyph>
<glyph name="yacyr" format="2">
  <advance width="850"/>
  <unicode hex="044F"/>
  <outline>
    <contour>
      <point x="178" y="255" type="line"/>
      <point x="65" y="87" type="line" smooth="yes"/>
      <point x="51" y="67"/>
      <point x="39" y="53"/>
      <point x="18" y="53" type="curve" smooth="yes"/>
      <point x="9" y="53" type="line"/>
      <point x="0" y="0" type="line"/>
      <point x="315" y="0" type="line"/>
      <point x="457" y="222" type="line"/>
    </contour>
    <contour>
      <point x="589" y="449" type="line"/>
      <point x="536" y="520"/>
      <point x="455" y="534"/>
      <point x="363" y="534" type="curve" smooth="yes"/>
      <point x="173" y="534"/>
      <point x="86" y="462"/>
      <point x="86" y="363" type="curve" smooth="yes"/>
      <point x="86" y="258"/>
      <point x="209" y="206"/>
      <point x="386" y="206" type="curve" smooth="yes"/>
      <point x="427" y="206"/>
      <point x="462" y="212"/>
      <point x="503" y="227" type="curve"/>
      <point x="507" y="266" type="line"/>
      <point x="479" y="257"/>
      <point x="464" y="255"/>
      <point x="446" y="255" type="curve" smooth="yes"/>
      <point x="404" y="255"/>
      <point x="392" y="281"/>
      <point x="392" y="333" type="curve" smooth="yes"/>
      <point x="392" y="410"/>
      <point x="418" y="471"/>
      <point x="475" y="471" type="curve" smooth="yes"/>
      <point x="508" y="471"/>
      <point x="532" y="452"/>
      <point x="550" y="410" type="curve"/>
    </contour>
    <contour>
      <point x="767" y="145" type="curve" smooth="yes"/>
      <point x="834" y="524" type="line"/>
      <point x="653" y="524" type="line"/>
      <point x="555" y="482" type="line"/>
      <point x="528" y="471" type="line"/>
      <point x="479" y="196" type="line" smooth="yes"/>
      <point x="475" y="176"/>
      <point x="471" y="153"/>
      <point x="471" y="127" type="curve" smooth="yes"/>
      <point x="471" y="30"/>
      <point x="530" y="-10"/>
      <point x="655" y="-10" type="curve" smooth="yes"/>
      <point x="726" y="-10"/>
      <point x="790" y="4"/>
      <point x="819" y="19" type="curve"/>
      <point x="826" y="58" type="line"/>
      <point x="820" y="57"/>
      <point x="809" y="53"/>
      <point x="790" y="53" type="curve" smooth="yes"/>
      <point x="767" y="53"/>
      <point x="758" y="57"/>
      <point x="758" y="79" type="curve" smooth="yes"/>
      <point x="758" y="93"/>
      <point x="761" y="114"/>
    </contour>
  </outline>
</glyph>
<glyph name="djecyr" format="2">
  <advance width="827"/>
  <unicode hex="0452"/>
  <outline>
    <contour>
      <point x="146" y="750" type="line"/>
      <point x="446" y="750" type="line"/>
      <point x="311" y="0" type="line"/>
      <point x="11" y="0" type="line"/>
    </contour>
    <contour>
      <point x="47" y="647" type="line"/>
      <point x="597" y="647" type="line"/>
      <point x="589" y="599" type="line"/>
      <point x="39" y="599" type="line"/>
    </contour>
    <contour>
      <point x="741" y="20" type="line" smooth="yes"/>
      <point x="709" y="-166"/>
      <point x="596" y="-236"/>
      <point x="400" y="-236" type="curve" smooth="yes"/>
      <point x="319" y="-236"/>
      <point x="277" y="-228"/>
      <point x="248" y="-217" type="curve"/>
      <point x="262" y="-161" type="line"/>
      <point x="278" y="-167"/>
      <point x="297" y="-172"/>
      <point x="319" y="-172" type="curve" smooth="yes"/>
      <point x="372" y="-172"/>
      <point x="412" y="-141"/>
      <point x="430" y="-40" type="curve" smooth="yes"/>
      <point x="496" y="322" type="line" smooth="yes"/>
      <point x="501" y="350"/>
      <point x="506" y="373"/>
      <point x="506" y="390" type="curve" smooth="yes"/>
      <point x="506" y="410"/>
      <point x="501" y="422"/>
      <point x="477" y="422" type="curve" smooth="yes"/>
      <point x="431" y="422"/>
      <point x="377" y="362"/>
      <point x="345" y="274" type="curve"/>
      <point x="328" y="311" type="line"/>
      <point x="396" y="464"/>
      <point x="492" y="534"/>
      <point x="635" y="534" type="curve" smooth="yes"/>
      <point x="745" y="534"/>
      <point x="802" y="474"/>
      <point x="802" y="401" type="curve" smooth="yes"/>
      <point x="802" y="376"/>
      <point x="795" y="337"/>
      <point x="787" y="291" type="curve" smooth="yes"/>
    </contour>
  </outline>
</glyph>
<glyph name="ljecyr" format="2">
  <advance width="1080"/>
  <unicode hex="0459"/>
  <outline>
    <contour>
      <point x="188" y="335" type="curve" smooth="yes"/>
      <point x="213" y="453" type="line" smooth="yes"/>
      <point x="217" y="473"/>
      <point x="209" y="478"/>
      <point x="177" y="482" type="curve" smooth="yes"/>
      <point x="162" y="484" type="line"/>
      <point x="169" y="524" type="line"/>
      <point x="288" y="524" type="line"/>
      <point x="232" y="256" type="line" smooth="yes"/>
      <point x="194" y="74"/>
      <point x="158" y="-10"/>
      <point x="55" y="-10" type="curve" smooth="yes"/>
      <point x="23" y="-10"/>
      <point x="4.6812366877" y="-3.5204497046"/>
      <point x="-5" y="0" type="curve"/>
      <point x="32" y="208" type="line"/>
      <point x="40.6482318648" y="203.6758840676"/>
      <point x="57.6551724138" y="195"/>
      <point x="80" y="195" type="curve" smooth="yes"/>
      <point x="139.90625" y="195"/>
      <point x="164.8045608231" y="225.5175270849"/>
    </contour>
    <contour>
      <point x="267" y="471" type="line"/>
      <point x="277" y="524" type="line"/>
      <point x="487" y="524" type="line"/>
      <point x="475" y="471" type="line"/>
    </contour>
    <contour>
      <point x="686" y="-10" type="curve" smooth="yes"/>
      <point x="468" y="-10"/>
      <point x="310" y="44"/>
      <point x="351" y="248" type="curve" smooth="yes"/>
      <point x="407" y="524" type="line"/>
      <point x="703" y="524" type="line"/>
      <point x="641" y="194" type="line" smooth="yes"/>
      <point x="620" y="81"/>
      <point x="627" y="40"/>
      <point x="670" y="40" type="curve" smooth="yes"/>
      <point x="719" y="40"/>
      <point x="745" y="112"/>
      <point x="745" y="190" type="curve" smooth="yes"/>
      <point x="745" y="248"/>
      <point x="730" y="286"/>
      <point x="677" y="286" type="curve" smooth="yes"/>
      <point x="463" y="286" type="line"/>
      <point x="473" y="339" type="line"/>
      <point x="714" y="339" type="line" smooth="yes"/>
      <point x="951" y="339"/>
      <point x="1051" y="282"/>
      <point x="1051" y="174" type="curve" smooth="yes"/>
      <point x="1051" y="55"/>
      <point x="933" y="-10"/>
    </contour>
  </outline>
</glyph>
<glyph name="geupcyr" format="2">
  <advance width="676"/>
  <unicode hex="0491"/>
  <outline>
    <contour>
      <point x="336" y="674" type="line"/>
      <point x="252" y="388" type="line"/>
      <point x="89" y="388" type="line"/>
      <point x="135" y="674" type="line"/>
    </contour>
    <contour>
      <point x="264" y="87" type="curve" smooth="yes"/>
      <point x="264" y="57"/>
      <point x="288" y="38"/>
      <point x="347" y="38" type="curve" smooth="yes"/>
      <point x="378" y="38"/>
      <point x="417" y="41"/>
      <point x="450" y="59" type="curve"/>
      <point x="450" y="56"/>
      <point x="439" y="51"/>
      <point x="424" y="44" type="curve"/>
      <point x="445" y="154" type="line"/>
      <point x="638" y="154" type="line"/>
      <point x="618" y="56" type="line"/>
      <point x="566" y="29"/>
      <point x="456" y="-10"/>
      <point x="305" y="-10" type="curve" smooth="yes"/>
      <point x="129" y="-10"/>
      <point x="11" y="38"/>
      <point x="11" y="156" type="curve" smooth="yes"/>
      <point x="11" y="264"/>
      <point x="87" y="310"/>
      <point x="239" y="342" type="curve" smooth="yes"/>
      <point x="402" y="375"/>
      <point x="444" y="396"/>
      <point x="444" y="442" type="curve" smooth="yes"/>
      <point x="444" y="468"/>
      <point x="420" y="486"/>
      <point x="357" y="486" type="curve" smooth="yes"/>
      <point x="310" y="486"/>
      <point x="270" y="483"/>
      <point x="242" y="450" type="curve"/>
      <point x="248" y="477"/>
      <point x="284" y="487"/>
      <point x="296" y="492" type="curve"/>
      <point x="279" y="388" type="line"/>
      <point x="89" y="388" type="line"/>
      <point x="103" y="474" type="line"/>
      <point x="141" y="500"/>
      <point x="242" y="534"/>
      <point x="388" y="534" type="curve" smooth="yes"/>
      <point x="555" y="534"/>
      <point x="659" y="478"/>
      <point x="659" y="365" type="curve" smooth="yes"/>
      <point x="659" y="252"/>
      <point x="591" y="216"/>
      <point x="430" y="185" type="curve" smooth="yes"/>
      <point x="308" y="160"/>
      <point x="264" y="137"/>
    </contour>
  </outline>
</glyph>
<glyph name="Gestrokecyr" format="2">
  <advance width="798"/>
  <unicode hex="0492"/>
  <outline>
    <contour>
      <point x="38" y="383" type="line"/>
      <point x="29" y="330" type="line"/>
      <point x="542" y="330" type="line"/>
      <point x="551" y="383" type="line"/>
    </contour>
    <contour>
      <point x="-30" y="0" type="line"/>
      <point x="450" y="0" type="line"/>
      <point x="458" y="42" type="line"/>
      <point x="438" y="42" type="line" smooth="yes"/>
      <point x="405" y="42"/>
      <point x="365" y="44"/>
      <point x="370" y="73" type="curve" smooth="yes"/>
      <point x="473" y="657" type="line"/>
      <point x="614" y="657" type="line" smooth="yes"/>
      <point x="694.96" y="657"/>
      <point x="727.0907594184" y="648.184811633"/>
      <point x="729" y="610" type="curve" smooth="yes"/>
      <point x="734" y="510" type="line"/>
      <point x="782" y="510" type="line"/>
      <point x="818" y="710" type="line"/>
      <point x="96" y="710" type="line"/>
      <point x="88" y="668" type="line"/>
      <point x="100" y="668" type="line" smooth="yes"/>
      <point x="133" y="668"/>
      <point x="156" y="662"/>
      <point x="151" y="635" type="curve" smooth="yes"/>
      <point x="53" y="75" type="line" smooth="yes"/>
      <point x="48" y="48"/>
      <point x="23" y="42"/>
      <point x="-10" y="42" type="curve" smooth="yes"/>
      <point x="-22" y="42" type="line"/>
    </contour>
  </outline>
</glyph>
<glyph name="gestrokecyr" format="2">
  <advance width="711"/>
  <unicode hex="0493"/>
  <outline>
    <contour>
      <point x="-21" y="239" type="line"/>
      <point x="-13" y="287" type="line"/>
      <point x="728" y="287" type="line"/>
      <point x="720" y="239" type="line"/>
    </contour>
    <contour>
      <point x="274" y="87" type="curve" smooth="yes"/>
      <point x="274" y="57"/>
      <point x="298" y="38"/>
      <point x="357" y="38" type="curve" smooth="yes"/>
      <point x="388" y="38"/>
      <point x="427" y="41"/>
      <point x="460" y="59" type="curve"/>
      <point x="460" y="56"/>
      <point x="449" y="51"/>
      <point x="434" y="44" type="curve"/>
      <point x="455" y="154" type="line"/>
      <point x="648" y="154" type="line"/>
      <point x="628" y="56" type="line"/>
      <point x="576" y="29"/>
      <point x="466" y="-10"/>
      <point x="315" y="-10" type="curve" smooth="yes"/>
      <point x="139" y="-10"/>
      <point x="21" y="37"/>
      <point x="21" y="154" type="curve" smooth="yes"/>
      <point x="21" y="192"/>
      <point x="33" y="224"/>
      <point x="54" y="248" type="curve"/>
      <point x="81" y="280" type="line"/>
      <point x="191" y="363"/>
      <point x="454" y="341"/>
      <point x="454" y="442" type="curve" smooth="yes"/>
      <point x="454" y="468"/>
      <point x="430" y="486"/>
      <point x="367" y="486" type="curve" smooth="yes"/>
      <point x="320" y="486"/>
      <point x="280" y="483"/>
      <point x="252" y="450" type="curve"/>
      <point x="258" y="477"/>
      <point x="294" y="487"/>
      <point x="306" y="492" type="curve"/>
      <point x="289" y="388" type="line"/>
      <point x="99" y="388" type="line"/>
      <point x="113" y="474" type="line"/>
      <point x="151" y="500"/>
      <point x="252" y="534"/>
      <point x="398" y="534" type="curve" smooth="yes"/>
      <point x="565" y="534"/>
      <point x="669" y="478"/>
      <point x="669" y="365" type="curve" smooth="yes"/>
      <point x="669" y="329"/>
      <point x="660" y="302"/>
      <point x="641" y="277" type="curve"/>
      <point x="622" y="247" type="line"/>
      <point x="479" y="159"/>
      <point x="274" y="195"/>
    </contour>
  </outline>
</glyph>
<glyph name="zhetailcyr" format="2">
  <advance width="1343"/>
  <unicode hex="0497"/>
  <guideline x="241" y="553" angle="90" identifier="iJ3VaKODEI"/>
  <guideline x="241" y="553" angle="90" identifier="CdtU5zqGdb"/>
  <outline>
    <contour>
      <point x="502" y="0" type="line"/>
      <point x="596" y="524" type="line"/>
      <point x="895" y="524" type="line"/>
      <point x="801" y="0" type="line"/>
    </contour>
    <contour>
      <point x="133" y="143" type="curve" smooth="yes"/>
      <point x="312" y="385" type="line"/>
      <point x="349" y="367" type="line"/>
      <point x="235" y="417"/>
      <point x="170" y="469"/>
      <point x="134" y="514" type="curve"/>
      <point x="134" y="524" type="line"/>
      <point x="360" y="524" type="line"/>
      <point x="388" y="445"/>
      <point x="429" y="357"/>
      <point x="530" y="279" type="curve"/>
      <point x="529" y="266" type="line"/>
      <point x="432" y="132" type="line" smooth="yes"/>
      <point x="353" y="23"/>
      <point x="296" y="-10"/>
      <point x="155" y="-10" type="curve" smooth="yes"/>
      <point x="87" y="-10"/>
      <point x="19" y="1"/>
      <point x="-4" y="15" type="curve"/>
      <point x="2" y="54" type="line"/>
      <point x="5" y="53"/>
      <point x="16" y="50"/>
      <point x="29" y="50" type="curve" smooth="yes"/>
      <point x="59" y="50"/>
      <point x="77" y="67"/>
    </contour>
    <contour>
      <point x="1104" y="0" type="curve" smooth="yes"/>
      <point x="991" y="0"/>
      <point x="937" y="29"/>
      <point x="908" y="132" type="curve" smooth="yes"/>
      <point x="870" y="266" type="line"/>
      <point x="873" y="279" type="line"/>
      <point x="1004" y="360"/>
      <point x="1072" y="438"/>
      <point x="1131" y="524" type="curve"/>
      <point x="1337" y="524" type="line"/>
      <point x="1337" y="514" type="line"/>
      <point x="1286" y="469"/>
      <point x="1211" y="409"/>
      <point x="1080" y="361" type="curve"/>
      <point x="1129" y="385" type="line"/>
      <point x="1210" y="143" type="line" smooth="yes"/>
      <point x="1235" y="69"/>
      <point x="1248" y="53"/>
      <point x="1275" y="53" type="curve" smooth="yes"/>
      <point x="1319" y="53" type="line"/>
      <point x="1282" y="-150" type="line"/>
      <point x="1216" y="-150" type="line"/>
      <point x="1221" y="-46" type="line" smooth="yes"/>
      <point x="1223" y="-11"/>
      <point x="1207" y="0"/>
    </contour>
  </outline>
</glyph>
<glyph name="Kaverticalstrokecyr" format="2">
  <advance width="1102"/>
  <unicode hex="049C"/>
  <guideline x="480" y="796" angle="90" identifier="LxfLwWU0sJ"/>
  <guideline x="480" y="796" angle="90" identifier="Fh5FjoJgeT"/>
  <outline>
    <contour>
      <point x="435" y="157" type="line"/>
      <point x="488" y="157" type="line"/>
      <point x="554" y="530" type="line"/>
      <point x="501" y="530" type="line"/>
    </contour>
    <contour>
      <point x="-30" y="0" type="line"/>
      <point x="421" y="0" type="line"/>
      <point x="429" y="42" type="line"/>
      <point x="418" y="42" type="line" smooth="yes"/>
      <point x="392" y="42"/>
      <point x="365" y="45"/>
      <point x="366" y="51" type="curve"/>
      <point x="473" y="659" type="line"/>
      <point x="474" y="666"/>
      <point x="504" y="668"/>
      <point x="531" y="668" type="curve" smooth="yes"/>
      <point x="544" y="668" type="line"/>
      <point x="552" y="710" type="line"/>
      <point x="96" y="710" type="line"/>
      <point x="88" y="668" type="line"/>
      <point x="100" y="668" type="line" smooth="yes"/>
      <point x="133" y="668"/>
      <point x="156" y="662"/>
      <point x="151" y="635" type="curve" smooth="yes"/>
      <point x="53" y="75" type="line" smooth="yes"/>
      <point x="48" y="48"/>
      <point x="23" y="42"/>
      <point x="-10" y="42" type="curve" smooth="yes"/>
      <point x="-22" y="42" type="line"/>
    </contour>
    <contour>
      <point x="582" y="0" type="line"/>
      <point x="1034" y="0" type="line"/>
      <point x="1042" y="42" type="line"/>
      <point x="1027" y="42" type="line" smooth="yes"/>
      <point x="1009" y="42"/>
      <point x="998" y="49"/>
      <point x="992" y="65" type="curve" smooth="yes"/>
      <point x="812" y="528" type="line"/>
      <point x="751" y="459" type="line"/>
      <point x="956" y="633" type="line" smooth="yes"/>
      <point x="984" y="657"/>
      <point x="1009" y="668"/>
      <point x="1053" y="668" type="curve" smooth="yes"/>
      <point x="1076" y="668" type="line"/>
      <point x="1084" y="710" type="line"/>
      <point x="827" y="710" type="line"/>
      <point x="819" y="668" type="line"/>
      <point x="833" y="668" type="line" smooth="yes"/>
      <point x="867" y="668"/>
      <point x="896" y="664"/>
      <point x="894" y="655" type="curve"/>
      <point x="548" y="358" type="line"/>
      <point x="544" y="340" type="line"/>
      <point x="645" y="51" type="line"/>
      <point x="643" y="44"/>
      <point x="620" y="42"/>
      <point x="593" y="42" type="curve" smooth="yes"/>
      <point x="590" y="42" type="line"/>
    </contour>
  </outline>
</glyph>
<glyph name="kaverticalstrokecyr" format="2">
  <advance width="898"/>
  <unicode hex="049D"/>
  <guideline x="241" y="553" angle="90" identifier="lmgRx0QBdK"/>
  <guideline x="241" y="553" angle="90" identifier="QF7BYTJCC3"/>
  <outline>
    <contour>
      <point x="374" y="125" type="line"/>
      <point x="425" y="413" type="line"/>
      <point x="478" y="413" type="line"/>
      <point x="427" y="125" type="line"/>
    </contour>
    <contour>
      <point x="793" y="124" type="line" smooth="yes"/>
      <point x="809" y="58"/>
      <point x="831" y="50"/>
      <point x="860" y="50" type="curve" smooth="yes"/>
      <point x="873" y="50"/>
      <point x="885" y="53"/>
      <point x="888" y="54" type="curve"/>
      <point x="881" y="15" type="line"/>
      <point x="853" y="1"/>
      <point x="776" y="-10"/>
      <point x="704" y="-10" type="curve" smooth="yes"/>
      <point x="592" y="-10"/>
      <point x="517" y="19"/>
      <point x="493" y="132" type="curve" smooth="yes"/>
      <point x="465" y="266" type="line"/>
      <point x="468" y="279" type="line"/>
      <point x="586" y="358"/>
      <point x="665" y="439"/>
      <point x="716" y="524" type="curve"/>
      <point x="922" y="524" type="line"/>
      <point x="922" y="514" type="line"/>
      <point x="878" y="468"/>
      <point x="793" y="405"/>
      <point x="665" y="356" type="curve"/>
      <point x="731" y="385" type="line"/>
    </contour>
    <contour>
      <point x="12" y="0" type="line"/>
      <point x="94" y="456" type="line" smooth="yes"/>
      <point x="97" y="472"/>
      <point x="84" y="479"/>
      <point x="58" y="482" type="curve" smooth="yes"/>
      <point x="42" y="484" type="line"/>
      <point x="49" y="524" type="line"/>
      <point x="405" y="524" type="line"/>
      <point x="311" y="0" type="line"/>
    </contour>
  </outline>
</glyph>
<glyph name="Kabashkcyr" format="2">
  <advance width="1200"/>
  <unicode hex="04A0"/>
  <guideline x="480" y="796" angle="90" identifier="LxfLwWU0sJ"/>
  <outline>
    <contour>
      <point x="670" y="0" type="line"/>
      <point x="1132" y="0" type="line"/>
      <point x="1140" y="42" type="line"/>
      <point x="1125" y="42" type="line" smooth="yes"/>
      <point x="1107" y="42"/>
      <point x="1097" y="49"/>
      <point x="1090" y="65" type="curve" smooth="yes"/>
      <point x="890" y="528" type="line"/>
      <point x="833" y="459" type="line"/>
      <point x="1054" y="633" type="line" smooth="yes"/>
      <point x="1083" y="656"/>
      <point x="1107" y="668"/>
      <point x="1151" y="668" type="curve" smooth="yes"/>
      <point x="1174" y="668" type="line"/>
      <point x="1182" y="710" type="line"/>
      <point x="925" y="710" type="line"/>
      <point x="917" y="668" type="line"/>
      <point x="931" y="668" type="line" smooth="yes"/>
      <point x="965" y="668"/>
      <point x="994" y="664"/>
      <point x="992" y="655" type="curve"/>
      <point x="626" y="358" type="line"/>
      <point x="622" y="340" type="line"/>
      <point x="743" y="51" type="line"/>
      <point x="741" y="44"/>
      <point x="718" y="42"/>
      <point x="691" y="42" type="curve" smooth="yes"/>
      <point x="678" y="42" type="line"/>
    </contour>
    <contour>
      <point x="333" y="657" type="line"/>
      <point x="231" y="75" type="line" smooth="yes"/>
      <point x="226" y="48"/>
      <point x="201" y="42"/>
      <point x="168" y="42" type="curve" smooth="yes"/>
      <point x="156" y="42" type="line"/>
      <point x="148" y="0" type="line"/>
      <point x="599" y="0" type="line"/>
      <point x="607" y="42" type="line"/>
      <point x="596" y="42" type="line" smooth="yes"/>
      <point x="570" y="42"/>
      <point x="543" y="45"/>
      <point x="544" y="51" type="curve"/>
      <point x="651" y="659" type="line"/>
      <point x="652" y="666"/>
      <point x="682" y="668"/>
      <point x="709" y="668" type="curve" smooth="yes"/>
      <point x="722" y="668" type="line"/>
      <point x="730" y="710" type="line"/>
      <point x="94" y="710" type="line"/>
      <point x="51" y="468" type="line"/>
      <point x="107" y="468" type="line"/>
      <point x="157" y="604" type="line" smooth="yes"/>
      <point x="172" y="645"/>
      <point x="208" y="657"/>
      <point x="275" y="657" type="curve" smooth="yes"/>
    </contour>
  </outline>
</glyph>
<glyph name="kabashkcyr" format="2">
  <advance width="1022"/>
  <unicode hex="04A1"/>
  <guideline x="241" y="553" angle="90" identifier="lmgRx0QBdK"/>
  <guideline x="241" y="553" angle="90" identifier="Tf77a0I6e0"/>
  <outline>
    <contour>
      <point x="337" y="471" type="line"/>
      <point x="254" y="471" type="line" smooth="yes"/>
      <point x="159" y="471"/>
      <point x="138" y="447"/>
      <point x="121" y="401" type="curve" smooth="yes"/>
      <point x="88" y="315" type="line"/>
      <point x="31" y="315" type="line"/>
      <point x="70" y="524" type="line"/>
      <point x="351" y="524" type="line"/>
    </contour>
    <contour>
      <point x="919" y="143" type="line" smooth="yes"/>
      <point x="947" y="68"/>
      <point x="957" y="50"/>
      <point x="984" y="50" type="curve" smooth="yes"/>
      <point x="997" y="50"/>
      <point x="1009" y="53"/>
      <point x="1012" y="54" type="curve"/>
      <point x="1005" y="15" type="line"/>
      <point x="977" y="1"/>
      <point x="900" y="-10"/>
      <point x="828" y="-10" type="curve" smooth="yes"/>
      <point x="716" y="-10"/>
      <point x="656" y="23"/>
      <point x="617" y="132" type="curve" smooth="yes"/>
      <point x="569" y="266" type="line"/>
      <point x="572" y="279" type="line"/>
      <point x="707" y="362"/>
      <point x="780" y="437"/>
      <point x="840" y="524" type="curve"/>
      <point x="1046" y="524" type="line"/>
      <point x="1046" y="514" type="line"/>
      <point x="993" y="467"/>
      <point x="915" y="406"/>
      <point x="779" y="356" type="curve"/>
      <point x="828" y="385" type="line"/>
    </contour>
    <contour>
      <point x="201" y="0" type="line"/>
      <point x="295" y="524" type="line"/>
      <point x="594" y="524" type="line"/>
      <point x="500" y="0" type="line"/>
    </contour>
  </outline>
</glyph>
<glyph name="Entailcyr" format="2">
  <advance width="1048"/>
  <unicode hex="04A2"/>
  <outline>
    <contour>
      <point x="772" y="0" type="line" smooth="yes"/>
      <point x="829" y="0"/>
      <point x="860" y="-7"/>
      <point x="859" y="-51" type="curve" smooth="yes"/>
      <point x="855" y="-170" type="line"/>
      <point x="917" y="-170" type="line"/>
      <point x="957" y="53" type="line"/>
      <point x="684" y="53" type="line"/>
      <point x="674" y="0" type="line"/>
    </contour>
    <contour>
      <point x="288" y="392" type="line"/>
      <point x="275" y="339" type="line"/>
      <point x="762" y="339" type="line"/>
      <point x="775" y="392" type="line"/>
    </contour>
    <contour>
      <point x="-29" y="0" type="line"/>
      <point x="426" y="0" type="line"/>
      <point x="434" y="42" type="line"/>
      <point x="423" y="42" type="line" smooth="yes"/>
      <point x="396" y="42"/>
      <point x="364" y="45"/>
      <point x="365" y="51" type="curve" smooth="yes"/>
      <point x="473" y="659" type="line" smooth="yes"/>
      <point x="474" y="666"/>
      <point x="506" y="668"/>
      <point x="533" y="668" type="curve" smooth="yes"/>
      <point x="542" y="668" type="line"/>
      <point x="550" y="710" type="line"/>
      <point x="97" y="710" type="line"/>
      <point x="89" y="668" type="line"/>
      <point x="101" y="668" type="line" smooth="yes"/>
      <point x="134" y="668"/>
      <point x="156" y="662"/>
      <point x="152" y="637" type="curve" smooth="yes"/>
      <point x="53" y="74" type="line" smooth="yes"/>
      <point x="48" y="48"/>
      <point x="24" y="42"/>
      <point x="-9" y="42" type="curve" smooth="yes"/>
      <point x="-21" y="42" type="line"/>
    </contour>
    <contour>
      <point x="491" y="0" type="line"/>
      <point x="876" y="0" type="line"/>
      <point x="989" y="633" type="line" smooth="yes"/>
      <point x="994" y="661"/>
      <point x="1020" y="668"/>
      <point x="1053" y="668" type="curve" smooth="yes"/>
      <point x="1065" y="668" type="line"/>
      <point x="1073" y="710" type="line"/>
      <point x="615" y="710" type="line"/>
      <point x="607" y="668" type="line"/>
      <point x="618" y="668" type="line" smooth="yes"/>
      <point x="644" y="668"/>
      <point x="677" y="666"/>
      <point x="676" y="659" type="curve" smooth="yes"/>
      <point x="569" y="51" type="line" smooth="yes"/>
      <point x="568" y="45"/>
      <point x="536" y="42"/>
      <point x="509" y="42" type="curve" smooth="yes"/>
      <point x="499" y="42" type="line"/>
    </contour>
  </outline>
</glyph>
<glyph name="entailcyr" format="2">
  <advance width="838"/>
  <unicode hex="04A3"/>
  <outline>
    <contour>
      <point x="186" y="246" type="line"/>
      <point x="203" y="299" type="line"/>
      <point x="587" y="299" type="line"/>
      <point x="576" y="246" type="line"/>
    </contour>
    <contour>
      <point x="12" y="0" type="line"/>
      <point x="93" y="456" type="line" smooth="yes"/>
      <point x="96" y="472"/>
      <point x="83" y="479"/>
      <point x="58" y="482" type="curve" smooth="yes"/>
      <point x="42" y="484" type="line"/>
      <point x="49" y="524" type="line"/>
      <point x="404" y="524" type="line"/>
      <point x="311" y="0" type="line"/>
    </contour>
    <contour>
      <point x="601" y="0" type="curve" smooth="yes"/>
      <point x="496" y="0"/>
      <point x="451" y="40"/>
      <point x="451" y="123" type="curve" smooth="yes"/>
      <point x="451" y="152"/>
      <point x="455" y="177"/>
      <point x="459" y="197" type="curve" smooth="yes"/>
      <point x="517" y="524" type="line"/>
      <point x="817" y="524" type="line"/>
      <point x="756" y="196" type="line" smooth="yes"/>
      <point x="749" y="157"/>
      <point x="738" y="100"/>
      <point x="738" y="77" type="curve" smooth="yes"/>
      <point x="738" y="62"/>
      <point x="748" y="53"/>
      <point x="772" y="53" type="curve" smooth="yes"/>
      <point x="816" y="53" type="line"/>
      <point x="779" y="-150" type="line"/>
      <point x="713" y="-150" type="line"/>
      <point x="718" y="-46" type="line" smooth="yes"/>
      <point x="720" y="-11"/>
      <point x="704" y="0"/>
    </contour>
  </outline>
</glyph>
<glyph name="ustraightstrokecyr" format="2">
  <advance width="725"/>
  <unicode hex="04B1"/>
  <outline>
    <contour>
      <point x="38" y="-48" type="line"/>
      <point x="548" y="-48" type="line"/>
      <point x="556" y="0" type="line"/>
      <point x="46" y="0" type="line"/>
    </contour>
    <contour>
      <point x="156" y="0" type="line"/>
      <point x="129" y="-151" type="line" smooth="yes"/>
      <point x="124" y="-180"/>
      <point x="103" y="-184"/>
      <point x="78" y="-184" type="curve"/>
      <point x="76" y="-184" type="line"/>
      <point x="69" y="-223" type="line"/>
      <point x="456" y="-223" type="line"/>
      <point x="463" y="-184" type="line"/>
      <point x="461" y="-184" type="line"/>
      <point x="427" y="-184"/>
      <point x="424" y="-173"/>
      <point x="428" y="-151" type="curve" smooth="yes"/>
      <point x="455" y="0" type="line"/>
    </contour>
    <contour>
      <point x="364" y="524" type="line"/>
      <point x="26" y="524" type="line"/>
      <point x="19" y="484" type="line"/>
      <point x="33" y="482" type="line" smooth="yes"/>
      <point x="58" y="478"/>
      <point x="73" y="472"/>
      <point x="79" y="440" type="curve" smooth="yes"/>
      <point x="156" y="0" type="line"/>
      <point x="455" y="0" type="line"/>
      <point x="572" y="140"/>
      <point x="698" y="329"/>
      <point x="737" y="524" type="curve"/>
      <point x="737" y="524" type="line"/>
      <point x="546" y="524" type="line"/>
      <point x="566" y="301"/>
      <point x="509" y="171"/>
      <point x="432" y="36" type="curve"/>
      <point x="448" y="18" type="line"/>
    </contour>
  </outline>
</glyph>
<glyph name="xatailcyr" format="2">
  <advance width="751"/>
  <unicode hex="04B3"/>
  <outline>
    <contour>
      <point x="470" y="276" type="line"/>
      <point x="755" y="514" type="line"/>
      <point x="755" y="524" type="line"/>
      <point x="574" y="524" type="line"/>
      <point x="452" y="297" type="line"/>
    </contour>
    <contour>
      <point x="-10" y="0" type="line"/>
      <point x="180" y="0" type="line"/>
      <point x="300" y="237" type="line"/>
      <point x="280" y="266" type="line"/>
      <point x="-10" y="13" type="line"/>
    </contour>
    <contour>
      <point x="506" y="0" type="curve" smooth="yes"/>
      <point x="609" y="0"/>
      <point x="625" y="-11"/>
      <point x="623" y="-46" type="curve" smooth="yes"/>
      <point x="618" y="-150" type="line"/>
      <point x="684" y="-150" type="line"/>
      <point x="721" y="53" type="line"/>
      <point x="677" y="53" type="line" smooth="yes"/>
      <point x="645" y="53"/>
      <point x="625" y="65"/>
      <point x="599" y="121" type="curve" smooth="yes"/>
      <point x="413" y="524" type="line"/>
      <point x="99" y="524" type="line"/>
      <point x="92" y="484" type="line"/>
      <point x="107" y="482" type="line" smooth="yes"/>
      <point x="128" y="479"/>
      <point x="138" y="470"/>
      <point x="149" y="446" type="curve" smooth="yes"/>
      <point x="304" y="111" type="line" smooth="yes"/>
      <point x="342" y="28"/>
      <point x="398" y="0"/>
    </contour>
  </outline>
</glyph>
<glyph name="Chetailcyr" format="2">
  <advance width="1018"/>
  <unicode hex="04B6"/>
  <guideline x="1123" y="741" angle="90" identifier="nfCxFSb4p1"/>
  <outline>
    <contour>
      <point x="743" y="0" type="line" smooth="yes"/>
      <point x="799" y="0"/>
      <point x="831" y="-7"/>
      <point x="830" y="-50" type="curve" smooth="yes"/>
      <point x="826" y="-170" type="line"/>
      <point x="888" y="-170" type="line"/>
      <point x="928" y="53" type="line"/>
      <point x="640" y="53" type="line"/>
      <point x="622" y="0" type="line"/>
    </contour>
    <contour>
      <point x="116" y="490" type="line" smooth="yes"/>
      <point x="89" y="338"/>
      <point x="148" y="275"/>
      <point x="344" y="275" type="curve" smooth="yes"/>
      <point x="464" y="275"/>
      <point x="553" y="287"/>
      <point x="621" y="316" type="curve"/>
      <point x="628" y="358" type="line"/>
      <point x="584" y="337"/>
      <point x="538" y="328"/>
      <point x="502" y="328" type="curve" smooth="yes"/>
      <point x="433" y="328"/>
      <point x="413" y="360"/>
      <point x="426" y="439" type="curve" smooth="yes"/>
      <point x="463" y="659" type="line" smooth="yes"/>
      <point x="464" y="664"/>
      <point x="483.7272727273" y="668"/>
      <point x="523" y="668" type="curve" smooth="yes"/>
      <point x="532" y="668" type="line"/>
      <point x="540" y="710" type="line"/>
      <point x="87" y="710" type="line"/>
      <point x="79" y="668" type="line"/>
      <point x="91" y="668" type="line" smooth="yes"/>
      <point x="132" y="668"/>
      <point x="146" y="658"/>
      <point x="142" y="637" type="curve" smooth="yes"/>
    </contour>
    <contour>
      <point x="461" y="0" type="line"/>
      <point x="847" y="0" type="line"/>
      <point x="959" y="633" type="line" smooth="yes"/>
      <point x="964" y="661"/>
      <point x="990" y="668"/>
      <point x="1023" y="668" type="curve" smooth="yes"/>
      <point x="1035" y="668" type="line"/>
      <point x="1043" y="710" type="line"/>
      <point x="585" y="710" type="line"/>
      <point x="577" y="668" type="line"/>
      <point x="588" y="668" type="line" smooth="yes"/>
      <point x="614.2641509434" y="668"/>
      <point x="647.227999763" y="665.9777930459"/>
      <point x="646" y="659" type="curve" smooth="yes"/>
      <point x="539" y="51" type="line" smooth="yes"/>
      <point x="538" y="45"/>
      <point x="506" y="42"/>
      <point x="479" y="42" type="curve" smooth="yes"/>
      <point x="469" y="42" type="line"/>
    </contour>
  </outline>
</glyph>
<glyph name="chetailcyr" format="2">
  <advance width="808"/>
  <unicode hex="04B7"/>
  <guideline x="855" y="515" angle="90" identifier="GGEFes61Q6"/>
  <guideline x="855" y="515" angle="90" identifier="YmRpMCtp9n"/>
  <outline>
    <contour>
      <point x="361" y="367" type="curve" smooth="yes"/>
      <point x="389" y="524" type="line"/>
      <point x="34" y="524" type="line"/>
      <point x="27" y="484" type="line"/>
      <point x="43" y="482" type="line" smooth="yes"/>
      <point x="71" y="479"/>
      <point x="81" y="473"/>
      <point x="78" y="456" type="curve" smooth="yes"/>
      <point x="67" y="395" type="line" smooth="yes"/>
      <point x="59" y="350"/>
      <point x="56" y="330"/>
      <point x="56" y="310" type="curve" smooth="yes"/>
      <point x="56" y="218"/>
      <point x="119" y="170"/>
      <point x="235" y="170" type="curve" smooth="yes"/>
      <point x="323" y="170"/>
      <point x="414" y="200"/>
      <point x="463" y="278" type="curve"/>
      <point x="468" y="318" type="line"/>
      <point x="451" y="294"/>
      <point x="421" y="281"/>
      <point x="391" y="281" type="curve" smooth="yes"/>
      <point x="364" y="281"/>
      <point x="355" y="295"/>
      <point x="355" y="316" type="curve" smooth="yes"/>
      <point x="355" y="327"/>
      <point x="357" y="343"/>
    </contour>
    <contour>
      <point x="571" y="0" type="curve" smooth="yes"/>
      <point x="674" y="0"/>
      <point x="689" y="-11"/>
      <point x="688" y="-46" type="curve" smooth="yes"/>
      <point x="684" y="-150" type="line"/>
      <point x="750" y="-150" type="line"/>
      <point x="786" y="53" type="line"/>
      <point x="742" y="53" type="line" smooth="yes"/>
      <point x="718" y="53"/>
      <point x="708" y="62"/>
      <point x="708" y="77" type="curve" smooth="yes"/>
      <point x="708" y="100"/>
      <point x="719" y="157"/>
      <point x="726" y="196" type="curve" smooth="yes"/>
      <point x="787" y="524" type="line"/>
      <point x="487" y="524" type="line"/>
      <point x="429" y="197" type="line" smooth="yes"/>
      <point x="425" y="177"/>
      <point x="421" y="152"/>
      <point x="421" y="123" type="curve" smooth="yes"/>
      <point x="421" y="33"/>
      <point x="442" y="0"/>
    </contour>
  </outline>
</glyph>
<glyph name="chevertcyr" format="2">
  <advance width="849"/>
  <unicode hex="04B9"/>
  <guideline x="855" y="515" angle="90" identifier="rBEXk9AqX9"/>
  <guideline x="855" y="515" angle="90" identifier="N8hmJqGDmi"/>
  <guideline x="855" y="515" angle="90" identifier="ThNmweadD7"/>
  <outline>
    <contour>
      <point x="362" y="94" type="line"/>
      <point x="415" y="94" type="line"/>
      <point x="469" y="399" type="line"/>
      <point x="416" y="399" type="line"/>
    </contour>
    <contour>
      <point x="361" y="367" type="curve" smooth="yes"/>
      <point x="389" y="524" type="line"/>
      <point x="34" y="524" type="line"/>
      <point x="27" y="484" type="line"/>
      <point x="43" y="482" type="line" smooth="yes"/>
      <point x="71" y="479"/>
      <point x="81" y="473"/>
      <point x="78" y="456" type="curve" smooth="yes"/>
      <point x="67" y="395" type="line" smooth="yes"/>
      <point x="59" y="350"/>
      <point x="56" y="330"/>
      <point x="56" y="310" type="curve" smooth="yes"/>
      <point x="56" y="218"/>
      <point x="123" y="170"/>
      <point x="255" y="170" type="curve" smooth="yes"/>
      <point x="363" y="170"/>
      <point x="471" y="217"/>
      <point x="520" y="275" type="curve"/>
      <point x="528" y="320" type="line"/>
      <point x="486" y="287"/>
      <point x="461" y="281"/>
      <point x="411" y="281" type="curve" smooth="yes"/>
      <point x="384" y="281"/>
      <point x="358" y="288"/>
      <point x="358" y="333" type="curve" smooth="yes"/>
      <point x="358" y="345"/>
      <point x="359" y="354"/>
    </contour>
    <contour>
      <point x="755" y="77" type="curve" smooth="yes"/>
      <point x="755" y="100"/>
      <point x="766" y="157"/>
      <point x="773" y="196" type="curve" smooth="yes"/>
      <point x="834" y="524" type="line"/>
      <point x="534" y="524" type="line"/>
      <point x="476" y="197" type="line" smooth="yes"/>
      <point x="472" y="177"/>
      <point x="468" y="152"/>
      <point x="468" y="123" type="curve" smooth="yes"/>
      <point x="468" y="33"/>
      <point x="524" y="-10"/>
      <point x="653" y="-10" type="curve" smooth="yes"/>
      <point x="729" y="-10"/>
      <point x="784" y="4"/>
      <point x="816" y="19" type="curve"/>
      <point x="823" y="58" type="line"/>
      <point x="818" y="57"/>
      <point x="804" y="53"/>
      <point x="789" y="53" type="curve" smooth="yes"/>
      <point x="765" y="53"/>
      <point x="755" y="62"/>
    </contour>
  </outline>
</glyph>
<glyph name="Obarcyr" format="2">
  <advance width="1006"/>
  <unicode hex="04E8"/>
  <guideline x="210" y="745" angle="90" identifier="UtNSclIhRG"/>
  <guideline x="1248" y="730" angle="90" identifier="hwb5F7EShy"/>
  <outline>
    <contour>
      <point x="191" y="392" type="line"/>
      <point x="179" y="339" type="line"/>
      <point x="776" y="339" type="line"/>
      <point x="788" y="392" type="line"/>
    </contour>
    <contour>
      <point x="465" y="-10" type="curve" smooth="yes"/>
      <point x="799" y="-10"/>
      <point x="983" y="160"/>
      <point x="983" y="393" type="curve" smooth="yes"/>
      <point x="983" y="600"/>
      <point x="799" y="720"/>
      <point x="547" y="720" type="curve" smooth="yes"/>
      <point x="213" y="720"/>
      <point x="29" y="550"/>
      <point x="29" y="317" type="curve" smooth="yes"/>
      <point x="29" y="110"/>
      <point x="213" y="-10"/>
    </contour>
    <contour>
      <point x="550" y="667" type="curve" smooth="yes"/>
      <point x="628.4403669725" y="667"/>
      <point x="664" y="615"/>
      <point x="664" y="499" type="curve" smooth="yes"/>
      <point x="664" y="457"/>
      <point x="659" y="406"/>
      <point x="648" y="344" type="curve" smooth="yes"/>
      <point x="613.9684413144" y="150.8208580497"/>
      <point x="555.5138121547" y="43"/>
      <point x="462" y="43" type="curve" smooth="yes"/>
      <point x="383.5596330275" y="43"/>
      <point x="348" y="95"/>
      <point x="348" y="211" type="curve" smooth="yes"/>
      <point x="348" y="253"/>
      <point x="353" y="304"/>
      <point x="364" y="366" type="curve" smooth="yes"/>
      <point x="399.0340166747" y="560.1885495682"/>
      <point x="456.4861878453" y="667"/>
    </contour>
  </outline>
</glyph>
<glyph name="thaibaht" format="2">
  <advance width="680"/>
  <unicode hex="0E3F"/>
  <outline>
    <contour>
      <point x="234" y="47" type="line"/>
      <point x="287" y="346" type="line"/>
      <point x="347" y="346" type="line" smooth="yes"/>
      <point x="399" y="346"/>
      <point x="428" y="312"/>
      <point x="428" y="247" type="curve" smooth="yes"/>
      <point x="428" y="226"/>
      <point x="426" y="201"/>
      <point x="421" y="173" type="curve" smooth="yes"/>
      <point x="405" y="85"/>
      <point x="367" y="47"/>
      <point x="316" y="47" type="curve" smooth="yes"/>
    </contour>
    <contour>
      <point x="295" y="393" type="line"/>
      <point x="343" y="663" type="line"/>
      <point x="408" y="663" type="line" smooth="yes"/>
      <point x="456" y="663"/>
      <point x="482" y="627"/>
      <point x="482" y="578" type="curve" smooth="yes"/>
      <point x="482" y="563"/>
      <point x="481" y="546"/>
      <point x="478" y="529" type="curve" smooth="yes"/>
      <point x="466" y="453"/>
      <point x="436" y="393"/>
      <point x="371" y="393" type="curve" smooth="yes"/>
    </contour>
    <contour>
      <point x="246" y="-120" type="line"/>
      <point x="311" y="-120" type="line"/>
      <point x="334" y="11" type="line"/>
      <point x="332" y="28" type="line"/>
      <point x="447" y="683" type="line"/>
      <point x="454" y="694" type="line"/>
      <point x="471" y="790" type="line"/>
      <point x="406" y="790" type="line"/>
      <point x="389" y="692" type="line"/>
      <point x="392" y="683" type="line"/>
      <point x="276" y="26" type="line"/>
      <point x="269" y="12" type="line"/>
    </contour>
    <contour>
      <point x="-52" y="0" type="line"/>
      <point x="332" y="0" type="line" smooth="yes"/>
      <point x="550" y="0"/>
      <point x="645" y="99"/>
      <point x="645" y="216" type="curve" smooth="yes"/>
      <point x="645" y="312"/>
      <point x="565" y="364"/>
      <point x="415" y="373" type="curve"/>
      <point x="433" y="361" type="line"/>
      <point x="437" y="378" type="line"/>
      <point x="421" y="367" type="line"/>
      <point x="592" y="375"/>
      <point x="688" y="444"/>
      <point x="688" y="550" type="curve" smooth="yes"/>
      <point x="688" y="649"/>
      <point x="609" y="710"/>
      <point x="438" y="710" type="curve" smooth="yes"/>
      <point x="75" y="710" type="line"/>
      <point x="67" y="668" type="line"/>
      <point x="76" y="668" type="line" smooth="yes"/>
      <point x="105" y="668"/>
      <point x="126" y="662"/>
      <point x="121" y="636" type="curve" smooth="yes"/>
      <point x="22" y="77" type="line" smooth="yes"/>
      <point x="17" y="48"/>
      <point x="-4" y="42"/>
      <point x="-37" y="42" type="curve" smooth="yes"/>
      <point x="-44" y="42" type="line"/>
    </contour>
  </outline>
</glyph>
<glyph name="Germandbls" format="2">
  <advance width="1076"/>
  <unicode hex="1E9E"/>
  <outline>
    <contour>
      <point x="53" y="75" type="line" smooth="yes"/>
      <point x="48" y="48"/>
      <point x="23" y="42"/>
      <point x="-10" y="42" type="curve" smooth="yes"/>
      <point x="-22" y="42" type="line"/>
      <point x="-30" y="0" type="line"/>
      <point x="356" y="0" type="line"/>
      <point x="450" y="528" type="line" smooth="yes"/>
      <point x="468" y="629"/>
      <point x="508" y="657"/>
      <point x="596" y="657" type="curve" smooth="yes"/>
      <point x="983" y="657" type="line"/>
      <point x="735" y="680" type="line"/>
      <point x="537" y="431" type="line"/>
      <point x="527" y="369" type="line"/>
      <point x="658" y="336"/>
      <point x="764" y="258"/>
      <point x="764" y="165" type="curve" smooth="yes"/>
      <point x="764" y="91"/>
      <point x="717" y="52"/>
      <point x="658" y="52" type="curve" smooth="yes"/>
      <point x="591" y="52"/>
      <point x="526" y="102"/>
      <point x="514" y="198" type="curve"/>
      <point x="460" y="198" type="line"/>
      <point x="425" y="0" type="line"/>
      <point x="475" y="0" type="line"/>
      <point x="520" y="118" type="line"/>
      <point x="483" y="125" type="line"/>
      <point x="505" y="46"/>
      <point x="588" y="-10"/>
      <point x="725" y="-10" type="curve" smooth="yes"/>
      <point x="917" y="-10"/>
      <point x="1037" y="78"/>
      <point x="1037" y="215" type="curve" smooth="yes"/>
      <point x="1037" y="338"/>
      <point x="931" y="420"/>
      <point x="742" y="464" type="curve"/>
      <point x="808" y="389" type="line"/>
      <point x="1024" y="652" type="line"/>
      <point x="1034" y="710" type="line"/>
      <point x="538" y="710" type="line" smooth="yes"/>
      <point x="313" y="710"/>
      <point x="155" y="663"/>
      <point x="124" y="483" type="curve" smooth="yes"/>
    </contour>
  </outline>
</glyph>
<glyph name="ohorntilde" format="2">
  <advance width="860"/>
  <unicode hex="1EE1"/>
  <outline>
    <contour>
      <point x="522" y="577" type="curve" smooth="yes"/>
      <point x="590" y="577"/>
      <point x="636" y="644"/>
      <point x="663" y="739" type="curve"/>
      <point x="616" y="756" type="line"/>
      <point x="599" y="712"/>
      <point x="583" y="700"/>
      <point x="553" y="700" type="curve" smooth="yes"/>
      <point x="506" y="700"/>
      <point x="455" y="751"/>
      <point x="392" y="751" type="curve" smooth="yes"/>
      <point x="317" y="751"/>
      <point x="273" y="687"/>
      <point x="250" y="590" type="curve"/>
      <point x="297" y="575" type="line"/>
      <point x="311" y="613"/>
      <point x="329" y="628"/>
      <point x="358" y="628" type="curve" smooth="yes"/>
      <point x="401" y="628"/>
      <point x="457" y="577"/>
    </contour>
    <component base="ohorn"/>
  </outline>
</glyph>
<glyph name="endash" format="2">
  <advance width="740"/>
  <unicode hex="2013"/>
  <outline>
    <contour>
      <point x="71" y="343" type="line"/>
      <point x="61" y="287" type="line"/>
      <point x="680" y="287" type="line"/>
      <point x="690" y="343" type="line"/>
    </contour>
  </outline>
</glyph>
<glyph name="emdash" format="2">
  <advance width="1164"/>
  <unicode hex="2014"/>
  <outline>
    <contour>
      <point x="71" y="343" type="line"/>
      <point x="61" y="287" type="line"/>
      <point x="1104" y="287" type="line"/>
      <point x="1114" y="343" type="line"/>
    </contour>
  </outline>
</glyph>
<glyph name="dagger" format="2">
  <advance width="557"/>
  <unicode hex="2020"/>
  <outline>
    <contour>
      <point x="279" y="469" type="line"/>
      <point x="316" y="469" type="line"/>
      <point x="507" y="374" type="line"/>
      <point x="536" y="374" type="line"/>
      <point x="575" y="591" type="line"/>
      <point x="546" y="591" type="line"/>
      <point x="323" y="509" type="line"/>
      <point x="286" y="509" type="line"/>
      <point x="94" y="591" type="line"/>
      <point x="64" y="591" type="line"/>
      <point x="25" y="374" type="line"/>
      <point x="55" y="374" type="line"/>
    </contour>
    <contour>
      <point x="482" y="710" type="line"/>
      <point x="199" y="710" type="line"/>
      <point x="193" y="678" type="line" smooth="yes"/>
      <point x="186" y="640"/>
      <point x="292" y="554"/>
      <point x="281" y="489" type="curve" smooth="yes"/>
      <point x="269" y="422"/>
      <point x="205" y="366"/>
      <point x="113" y="332" type="curve"/>
      <point x="109" y="312" type="line" smooth="yes"/>
      <point x="103" y="274"/>
      <point x="180" y="204"/>
      <point x="195" y="0" type="curve"/>
      <point x="234" y="0" type="line"/>
      <point x="321" y="204"/>
      <point x="424" y="274"/>
      <point x="430" y="312" type="curve" smooth="yes"/>
      <point x="434" y="332" type="line"/>
      <point x="353" y="366"/>
      <point x="310" y="422"/>
      <point x="322" y="489" type="curve" smooth="yes"/>
      <point x="333" y="554"/>
      <point x="469" y="640"/>
      <point x="476" y="678" type="curve" smooth="yes"/>
    </contour>
  </outline>
</glyph>
<glyph name="guilsinglleft" format="2">
  <advance width="332"/>
  <unicode hex="2039"/>
  <outline>
    <contour>
      <point x="156" y="211" type="line"/>
      <point x="339" y="465" type="line"/>
      <point x="272" y="465" type="line"/>
      <point x="30" y="298" type="line"/>
      <point x="22" y="252" type="line"/>
      <point x="201" y="65" type="line"/>
      <point x="268" y="65" type="line"/>
      <point x="173" y="303" type="line"/>
    </contour>
  </outline>
</glyph>
<glyph name="minus.sub" format="2">
  <advance width="426"/>
  <unicode hex="208B"/>
  <outline>
    <contour>
      <point x="323" y="121" type="line"/>
      <point x="7" y="121" type="line"/>
      <point x="-1" y="75" type="line"/>
      <point x="315" y="75" type="line"/>
    </contour>
  </outline>
</glyph>
<glyph name="naira" format="2">
  <advance width="680"/>
  <unicode hex="20A6"/>
  <outline>
    <contour>
      <point x="-46" y="0" type="line"/>
      <point x="140" y="0" type="line"/>
      <point x="147" y="42" type="line"/>
      <point x="126" y="42" type="line" smooth="yes"/>
      <point x="101" y="42"/>
      <point x="77" y="47"/>
      <point x="78" y="54" type="curve"/>
      <point x="188" y="674" type="line"/>
      <point x="138" y="674" type="line"/>
      <point x="351" y="0" type="line"/>
      <point x="557" y="0" type="line"/>
      <point x="669" y="637" type="line" smooth="yes"/>
      <point x="673" y="662"/>
      <point x="690" y="668"/>
      <point x="711" y="668" type="curve" smooth="yes"/>
      <point x="728" y="668" type="line"/>
      <point x="736" y="710" type="line"/>
      <point x="551" y="710" type="line"/>
      <point x="544" y="668" type="line"/>
      <point x="566" y="668" type="line" smooth="yes"/>
      <point x="591" y="668"/>
      <point x="615" y="663"/>
      <point x="614" y="656" type="curve" smooth="yes"/>
      <point x="519" y="119" type="line"/>
      <point x="563" y="119" type="line"/>
      <point x="359" y="710" type="line"/>
      <point x="82" y="710" type="line"/>
      <point x="74" y="668" type="line"/>
      <point x="85" y="668" type="line" smooth="yes"/>
      <point x="106" y="668"/>
      <point x="127" y="662"/>
      <point x="123" y="637" type="curve" smooth="yes"/>
      <point x="23" y="73" type="line" smooth="yes"/>
      <point x="19" y="48"/>
      <point x="2" y="42"/>
      <point x="-19" y="42" type="curve" smooth="yes"/>
      <point x="-38" y="42" type="line"/>
    </contour>
    <contour>
      <point x="125" y="493" type="line"/>
      <point x="41" y="493" type="line"/>
      <point x="32" y="441" type="line"/>
      <point x="116" y="441" type="line"/>
    </contour>
    <contour>
      <point x="352" y="448" type="line"/>
      <point x="597" y="448" type="line"/>
      <point x="611" y="441" type="line"/>
      <point x="687" y="441" type="line"/>
      <point x="696" y="493" type="line"/>
      <point x="363" y="493" type="line"/>
    </contour>
    <contour>
      <point x="576" y="276" type="line"/>
      <point x="658" y="276" type="line"/>
      <point x="667" y="328" type="line"/>
      <point x="586" y="328" type="line"/>
    </contour>
    <contour>
      <point x="269" y="321" type="line"/>
      <point x="110" y="321" type="line"/>
      <point x="103" y="328" type="line"/>
      <point x="12" y="328" type="line"/>
      <point x="3" y="276" type="line"/>
      <point x="281" y="276" type="line"/>
    </contour>
  </outline>
</glyph>
<glyph name="uni20B4" format="2">
  <advance width="680"/>
  <unicode hex="20B4"/>
  <outline>
    <contour>
      <point x="31" y="399" type="line"/>
      <point x="679" y="399" type="line"/>
      <point x="688" y="451" type="line"/>
      <point x="40" y="451" type="line"/>
    </contour>
    <contour>
      <point x="10" y="281" type="line"/>
      <point x="658" y="281" type="line"/>
      <point x="667" y="333" type="line"/>
      <point x="19" y="333" type="line"/>
    </contour>
    <contour>
      <point x="319" y="-10" type="curve" smooth="yes"/>
      <point x="443" y="-10"/>
      <point x="571" y="22"/>
      <point x="603" y="45" type="curve"/>
      <point x="629" y="192" type="line"/>
      <point x="449" y="192" type="line"/>
      <point x="422" y="35" type="line"/>
      <point x="442" y="35"/>
      <point x="495" y="78"/>
      <point x="480" y="93" type="curve"/>
      <point x="450" y="61"/>
      <point x="403" y="43"/>
      <point x="351" y="43" type="curve" smooth="yes"/>
      <point x="298" y="43"/>
      <point x="270" y="84"/>
      <point x="270" y="133" type="curve" smooth="yes"/>
      <point x="270" y="203"/>
      <point x="335" y="253"/>
      <point x="440" y="289" type="curve"/>
      <point x="202" y="317" type="line"/>
      <point x="96" y="288"/>
      <point x="27" y="234"/>
      <point x="27" y="155" type="curve" smooth="yes"/>
      <point x="27" y="49"/>
      <point x="158" y="-10"/>
    </contour>
    <contour>
      <point x="495" y="420" type="line"/>
      <point x="586" y="451"/>
      <point x="652" y="488"/>
      <point x="652" y="564" type="curve" smooth="yes"/>
      <point x="652" y="657"/>
      <point x="533" y="720"/>
      <point x="369" y="720" type="curve" smooth="yes"/>
      <point x="241" y="720"/>
      <point x="139" y="683"/>
      <point x="115" y="669" type="curve"/>
      <point x="91" y="540" type="line"/>
      <point x="271" y="540" type="line"/>
      <point x="298" y="688" type="line"/>
      <point x="289" y="688"/>
      <point x="259" y="655"/>
      <point x="273" y="631" type="curve"/>
      <point x="296" y="655"/>
      <point x="315" y="667"/>
      <point x="348" y="667" type="curve" smooth="yes"/>
      <point x="385" y="667"/>
      <point x="399" y="645"/>
      <point x="399" y="609" type="curve" smooth="yes"/>
      <point x="399" y="544"/>
      <point x="330" y="483"/>
      <point x="231" y="442" type="curve"/>
    </contour>
  </outline>
</glyph>
<glyph name="uni20B8" format="2">
  <advance width="680"/>
  <unicode hex="20B8"/>
  <outline>
    <contour>
      <point x="164" y="75" type="line" smooth="yes"/>
      <point x="159" y="49"/>
      <point x="132" y="42"/>
      <point x="99" y="42" type="curve" smooth="yes"/>
      <point x="83" y="42" type="line"/>
      <point x="75" y="0" type="line"/>
      <point x="486" y="0" type="line"/>
      <point x="494" y="42" type="line"/>
      <point x="481" y="42" type="line" smooth="yes"/>
      <point x="448" y="42"/>
      <point x="425" y="48"/>
      <point x="430" y="78" type="curve" smooth="yes"/>
      <point x="511" y="535" type="line"/>
      <point x="528" y="535" type="line" smooth="yes"/>
      <point x="591" y="535"/>
      <point x="616" y="524"/>
      <point x="616" y="473" type="curve" smooth="yes"/>
      <point x="616" y="346" type="line"/>
      <point x="664" y="346" type="line"/>
      <point x="707" y="588" type="line"/>
      <point x="56" y="588" type="line"/>
      <point x="13" y="346" type="line"/>
      <point x="61" y="346" type="line"/>
      <point x="116" y="475" type="line" smooth="yes"/>
      <point x="137" y="523"/>
      <point x="167" y="535"/>
      <point x="219" y="535" type="curve" smooth="yes"/>
      <point x="246" y="535" type="line"/>
    </contour>
    <contour>
      <point x="80" y="710" type="line"/>
      <point x="71" y="658" type="line"/>
      <point x="722" y="658" type="line"/>
      <point x="731" y="710" type="line"/>
    </contour>
  </outline>
</glyph>
<glyph name="ruble" format="2">
  <advance width="680"/>
  <unicode hex="20BD"/>
  <outline>
    <contour>
      <point x="460" y="192" type="line"/>
      <point x="-9" y="192" type="line"/>
      <point x="0" y="245" type="line"/>
      <point x="470" y="245" type="line"/>
    </contour>
    <contour>
      <point x="19" y="353" type="line"/>
      <point x="340" y="353" type="line" smooth="yes"/>
      <point x="400" y="353"/>
      <point x="441" y="402"/>
      <point x="456" y="494" type="curve" smooth="yes"/>
      <point x="461" y="524"/>
      <point x="463" y="545"/>
      <point x="463" y="568" type="curve" smooth="yes"/>
      <point x="463" y="624"/>
      <point x="439" y="657"/>
      <point x="395" y="657" type="curve" smooth="yes"/>
      <point x="379" y="657" type="line"/>
      <point x="272" y="52" type="line"/>
      <point x="271" y="46"/>
      <point x="297" y="42"/>
      <point x="328" y="42" type="curve" smooth="yes"/>
      <point x="341" y="42" type="line"/>
      <point x="333" y="0" type="line"/>
      <point x="-38" y="0" type="line"/>
      <point x="-30" y="42" type="line"/>
      <point x="-18" y="42" type="line" smooth="yes"/>
      <point x="5" y="42"/>
      <point x="18" y="52"/>
      <point x="22" y="77" type="curve" smooth="yes"/>
      <point x="121" y="636" type="line" smooth="yes"/>
      <point x="126" y="662"/>
      <point x="115" y="668"/>
      <point x="82" y="668" type="curve" smooth="yes"/>
      <point x="73" y="668" type="line"/>
      <point x="81" y="710" type="line"/>
      <point x="418" y="710" type="line" smooth="yes"/>
      <point x="623" y="710"/>
      <point x="716" y="648"/>
      <point x="716" y="525" type="curve" smooth="yes"/>
      <point x="716" y="396"/>
      <point x="618" y="301"/>
      <point x="373" y="301" type="curve" smooth="yes"/>
      <point x="10" y="301" type="line"/>
    </contour>
  </outline>
</glyph>
<glyph name="literSign" format="2">
  <advance width="685"/>
  <unicode hex="2113"/>
  <outline>
    <contour>
      <point x="364" y="286" type="curve" smooth="yes"/>
      <point x="364" y="579"/>
      <point x="409" y="667"/>
      <point x="464" y="667" type="curve" smooth="yes"/>
      <point x="498" y="667"/>
      <point x="515" y="643"/>
      <point x="515" y="599" type="curve" smooth="yes"/>
      <point x="515" y="465"/>
      <point x="443" y="339"/>
      <point x="10" y="238" type="curve"/>
      <point x="24" y="190" type="line"/>
      <point x="420" y="279"/>
      <point x="652" y="406"/>
      <point x="652" y="593" type="curve" smooth="yes"/>
      <point x="652" y="672"/>
      <point x="590" y="720"/>
      <point x="465" y="720" type="curve" smooth="yes"/>
      <point x="273" y="720"/>
      <point x="101" y="555"/>
      <point x="101" y="283" type="curve" smooth="yes"/>
      <point x="101" y="74"/>
      <point x="217" y="-10"/>
      <point x="390" y="-10" type="curve" smooth="yes"/>
      <point x="508" y="-10"/>
      <point x="575" y="59"/>
      <point x="609" y="173" type="curve"/>
      <point x="565" y="197" type="line"/>
      <point x="536" y="102"/>
      <point x="505" y="60"/>
      <point x="455" y="60" type="curve" smooth="yes"/>
      <point x="404" y="60"/>
      <point x="364" y="97"/>
    </contour>
  </outline>
</glyph>
<glyph name="numero" format="2">
  <advance width="1483"/>
  <unicode hex="2116"/>
  <outline>
    <contour>
      <point x="904" y="239" type="line"/>
      <point x="1384" y="239" type="line"/>
      <point x="1374" y="183" type="line"/>
      <point x="894" y="183" type="line"/>
    </contour>
    <component base="N"/>
    <component base="ordmasculine" xOffset="835" yOffset="-1"/>
  </outline>
</glyph>
<glyph name="estimated" format="2">
  <advance width="880"/>
  <unicode hex="212E"/>
  <outline>
    <contour>
      <point x="187" y="131" type="line"/>
      <point x="245" y="68"/>
      <point x="338" y="25"/>
      <point x="445" y="25" type="curve" smooth="yes"/>
      <point x="605" y="25"/>
      <point x="725" y="106"/>
      <point x="780" y="236" type="curve"/>
      <point x="819" y="236" type="line"/>
      <point x="768" y="98"/>
      <point x="630" y="-10"/>
      <point x="445" y="-10" type="curve" smooth="yes"/>
      <point x="226" y="-10"/>
      <point x="55" y="150"/>
      <point x="55" y="355" type="curve" smooth="yes"/>
      <point x="55" y="560"/>
      <point x="226" y="720"/>
      <point x="445" y="720" type="curve" smooth="yes"/>
      <point x="664" y="720"/>
      <point x="835" y="560"/>
      <point x="835" y="355" type="curve"/>
      <point x="144" y="355" type="line"/>
      <point x="144" y="390" type="line"/>
      <point x="703" y="390" type="line"/>
      <point x="703" y="581" type="line"/>
      <point x="646" y="645"/>
      <point x="552" y="685"/>
      <point x="445" y="685" type="curve" smooth="yes"/>
      <point x="338" y="685"/>
      <point x="242" y="643"/>
      <point x="187" y="580" type="curve"/>
    </contour>
  </outline>
</glyph>
<glyph name="partialdiff" format="2">
  <advance width="736"/>
  <unicode hex="2202"/>
  <outline>
    <contour>
      <point x="322" y="-10" type="curve" smooth="yes"/>
      <point x="534" y="-10"/>
      <point x="717" y="140"/>
      <point x="717" y="382" type="curve" smooth="yes"/>
      <point x="717" y="643"/>
      <point x="560" y="750"/>
      <point x="345" y="750" type="curve" smooth="yes"/>
      <point x="263" y="750"/>
      <point x="190" y="731"/>
      <point x="130" y="702" type="curve"/>
      <point x="150" y="655" type="line"/>
      <point x="188" y="673"/>
      <point x="244" y="689"/>
      <point x="293" y="689" type="curve" smooth="yes"/>
      <point x="397" y="689"/>
      <point x="445" y="608"/>
      <point x="445" y="474" type="curve" smooth="yes"/>
      <point x="445" y="241"/>
      <point x="395" y="40"/>
      <point x="333" y="40" type="curve" smooth="yes"/>
      <point x="301" y="40"/>
      <point x="283" y="68"/>
      <point x="283" y="159" type="curve" smooth="yes"/>
      <point x="283" y="360"/>
      <point x="335" y="483"/>
      <point x="408" y="483" type="curve" smooth="yes"/>
      <point x="456" y="483"/>
      <point x="485" y="461"/>
      <point x="534" y="406" type="curve"/>
      <point x="534" y="481" type="line"/>
      <point x="496" y="514"/>
      <point x="455" y="534"/>
      <point x="372" y="534" type="curve" smooth="yes"/>
      <point x="161" y="534"/>
      <point x="11" y="429"/>
      <point x="11" y="238" type="curve" smooth="yes"/>
      <point x="11" y="84"/>
      <point x="132" y="-10"/>
    </contour>
  </outline>
</glyph>
<glyph name="radical" format="2">
  <advance width="854"/>
  <unicode hex="221A"/>
  <outline>
    <contour>
      <point x="62" y="379" type="line"/>
      <point x="180" y="379" type="line"/>
      <point x="138" y="392" type="line"/>
      <point x="230" y="0" type="line"/>
      <point x="391" y="0" type="line"/>
      <point x="457" y="92" type="line"/>
      <point x="374" y="431" type="line"/>
      <point x="71" y="431" type="line"/>
    </contour>
    <contour>
      <point x="813" y="710" type="line"/>
      <point x="346" y="0" type="line"/>
      <point x="406" y="0" type="line"/>
      <point x="873" y="710" type="line"/>
    </contour>
  </outline>
</glyph>
<glyph name="notequal" format="2">
  <advance width="717"/>
  <unicode hex="2260"/>
  <outline>
    <contour>
      <point x="522" y="601" type="line"/>
      <point x="152" y="81" type="line"/>
      <point x="213" y="81" type="line"/>
      <point x="583" y="601" type="line"/>
    </contour>
    <component base="equal"/>
  </outline>
</glyph>
<glyph name="hook" format="2">
  <advance width="630"/>
  <unicode hex="2440"/>
  <outline>
    <contour>
      <point x="118" y="695" type="line"/>
      <point x="132" y="762"/>
      <point x="184" y="806"/>
      <point x="303" y="806" type="curve" smooth="yes"/>
      <point x="405" y="806"/>
      <point x="458" y="771"/>
      <point x="458" y="715" type="curve" smooth="yes"/>
      <point x="458" y="654"/>
      <point x="406" y="614"/>
      <point x="286" y="610" type="curve"/>
      <point x="304" y="632" type="line"/>
      <point x="295" y="575" type="line"/>
      <point x="230" y="575" type="line"/>
      <point x="242" y="646" type="line"/>
      <point x="302" y="654"/>
      <point x="324" y="682"/>
      <point x="324" y="716" type="curve" smooth="yes"/>
      <point x="324" y="738"/>
      <point x="311" y="751"/>
      <point x="290" y="751" type="curve" smooth="yes"/>
      <point x="264" y="751"/>
      <point x="247" y="732"/>
      <point x="240" y="695" type="curve"/>
    </contour>
  </outline>
</glyph>
<glyph name="one.den" format="2">
  <advance width="452"/>
  <unicode hex="E403"/>
  <outline>
    <contour>
      <point x="318" y="64" type="curve" smooth="yes"/>
      <point x="373" y="378" type="line"/>
      <point x="199" y="378" type="line"/>
      <point x="166" y="347"/>
      <point x="134" y="320"/>
      <point x="40" y="320" type="curve"/>
      <point x="25" y="232" type="line"/>
      <point x="100" y="232"/>
      <point x="147" y="281"/>
      <point x="178" y="331" type="curve"/>
      <point x="173" y="334"/>
      <point x="168" y="333"/>
      <point x="163" y="327" type="curve"/>
      <point x="116" y="64" type="line" smooth="yes"/>
      <point x="112" y="42"/>
      <point x="71" y="36"/>
      <point x="27" y="36" type="curve" smooth="yes"/>
      <point x="7" y="36" type="line"/>
      <point x="1" y="0" type="line"/>
      <point x="400" y="0" type="line"/>
      <point x="406" y="36" type="line"/>
      <point x="397" y="36" type="line" smooth="yes"/>
      <point x="348" y="36"/>
      <point x="314" y="42"/>
    </contour>
  </outline>
</glyph>
<glyph name="two.den" format="2">
  <advance width="464"/>
  <unicode hex="E404"/>
  <outline>
    <contour>
      <point x="312" y="112" type="line" smooth="yes"/>
      <point x="359" y="112"/>
      <point x="373" y="119"/>
      <point x="383" y="143" type="curve" smooth="yes"/>
      <point x="396" y="175" type="line"/>
      <point x="433" y="175" type="line"/>
      <point x="402" y="0" type="line"/>
      <point x="-22" y="0" type="line"/>
      <point x="-4" y="100" type="line"/>
      <point x="179" y="168"/>
      <point x="242" y="224"/>
      <point x="242" y="303" type="curve" smooth="yes"/>
      <point x="242" y="330"/>
      <point x="231" y="343"/>
      <point x="204" y="343" type="curve" smooth="yes"/>
      <point x="184" y="343"/>
      <point x="167" y="336"/>
      <point x="158" y="326" type="curve"/>
      <point x="154" y="338"/>
      <point x="161" y="348"/>
      <point x="181" y="347" type="curve"/>
      <point x="163" y="247" type="line"/>
      <point x="20" y="247" type="line"/>
      <point x="35" y="330" type="line"/>
      <point x="84" y="359"/>
      <point x="157" y="383"/>
      <point x="243" y="383" type="curve" smooth="yes"/>
      <point x="362" y="383"/>
      <point x="431" y="348"/>
      <point x="431" y="284" type="curve" smooth="yes"/>
      <point x="431" y="192"/>
      <point x="311" y="159"/>
      <point x="77" y="101" type="curve"/>
      <point x="75" y="106"/>
      <point x="78" y="109"/>
      <point x="79" y="112" type="curve"/>
    </contour>
  </outline>
</glyph>
<glyph name="four.den" format="2">
  <advance width="480"/>
  <unicode hex="E406"/>
  <outline>
    <contour>
      <point x="-18" y="66" type="line"/>
      <point x="432" y="66" type="line"/>
      <point x="450" y="165" type="line"/>
      <point x="35" y="165" type="line"/>
      <point x="23" y="123" type="line"/>
      <point x="281" y="348" type="line"/>
      <point x="309" y="379" type="line"/>
      <point x="255" y="379" type="line"/>
      <point x="-2" y="155" type="line"/>
    </contour>
    <contour>
      <point x="368" y="0" type="line"/>
      <point x="434" y="379" type="line"/>
      <point x="289" y="379" type="line"/>
      <point x="234" y="322" type="line"/>
      <point x="178" y="0" type="line"/>
    </contour>
  </outline>
</glyph>
<glyph name="nine.den" format="2">
  <advance width="503"/>
  <unicode hex="E40B"/>
  <outline>
    <contour>
      <point x="251" y="388" type="curve" smooth="yes"/>
      <point x="391" y="388"/>
      <point x="473" y="331"/>
      <point x="473" y="229" type="curve" smooth="yes"/>
      <point x="473" y="71"/>
      <point x="292" y="-6"/>
      <point x="45" y="-6" type="curve"/>
      <point x="42" y="33" type="line"/>
      <point x="250" y="47"/>
      <point x="287" y="182"/>
      <point x="287" y="286" type="curve" smooth="yes"/>
      <point x="287" y="330"/>
      <point x="279" y="349"/>
      <point x="256" y="349" type="curve" smooth="yes"/>
      <point x="228" y="349"/>
      <point x="212" y="298"/>
      <point x="212" y="233" type="curve" smooth="yes"/>
      <point x="212" y="200"/>
      <point x="223" y="187"/>
      <point x="243" y="187" type="curve" smooth="yes"/>
      <point x="260" y="187"/>
      <point x="276" y="199"/>
      <point x="287" y="217" type="curve"/>
      <point x="288" y="188" type="line"/>
      <point x="260" y="156"/>
      <point x="219" y="135"/>
      <point x="163" y="135" type="curve" smooth="yes"/>
      <point x="77" y="135"/>
      <point x="21" y="177"/>
      <point x="21" y="243" type="curve" smooth="yes"/>
      <point x="21" y="329"/>
      <point x="107" y="388"/>
    </contour>
  </outline>
</glyph>
<glyph name="f_f_i" format="2">
  <advance width="1290"/>
  <unicode hex="FB03"/>
  <outline>
    <contour>
      <point x="531" y="697" type="curve" smooth="yes"/>
      <point x="551" y="697"/>
      <point x="568" y="693"/>
      <point x="582" y="688" type="curve"/>
      <point x="591" y="738" type="line"/>
      <point x="572" y="744"/>
      <point x="533" y="749"/>
      <point x="492" y="749" type="curve" smooth="yes"/>
      <point x="309" y="749"/>
      <point x="155" y="693"/>
      <point x="133" y="535" type="curve" smooth="yes"/>
      <point x="28" y="-223" type="line"/>
      <point x="283" y="-223" type="line"/>
      <point x="440" y="602" type="line" smooth="yes"/>
      <point x="453" y="670"/>
      <point x="481" y="697"/>
    </contour>
    <contour>
      <point x="51" y="524" type="line"/>
      <point x="43" y="476" type="line"/>
      <point x="530" y="476" type="line"/>
      <point x="538" y="524" type="line"/>
    </contour>
    <contour>
      <point x="460" y="-193" type="line"/>
      <point x="715" y="-193" type="line"/>
      <point x="870" y="613" type="line" smooth="yes"/>
      <point x="883" y="681"/>
      <point x="905" y="708"/>
      <point x="938" y="708" type="curve" smooth="yes"/>
      <point x="948" y="708"/>
      <point x="956" y="706"/>
      <point x="962" y="704" type="curve"/>
      <point x="972" y="755" type="line"/>
      <point x="953" y="758"/>
      <point x="928" y="760"/>
      <point x="892" y="760" type="curve" smooth="yes"/>
      <point x="727" y="760"/>
      <point x="585" y="704"/>
      <point x="563" y="546" type="curve" smooth="yes"/>
    </contour>
    <contour>
      <point x="1093" y="-10" type="curve" smooth="yes"/>
      <point x="1167" y="-10"/>
      <point x="1222" y="3"/>
      <point x="1257" y="19" type="curve"/>
      <point x="1264" y="58" type="line"/>
      <point x="1260" y="57"/>
      <point x="1244" y="53"/>
      <point x="1230" y="53" type="curve" smooth="yes"/>
      <point x="1210" y="53"/>
      <point x="1197" y="60"/>
      <point x="1197" y="79" type="curve" smooth="yes"/>
      <point x="1197" y="94"/>
      <point x="1204" y="132"/>
      <point x="1211" y="173" type="curve" smooth="yes"/>
      <point x="1275" y="524" type="line"/>
      <point x="479" y="524" type="line"/>
      <point x="471" y="476" type="line"/>
      <point x="930" y="476" type="line" smooth="yes"/>
      <point x="956" y="476"/>
      <point x="969" y="466"/>
      <point x="966" y="450" type="curve" smooth="yes"/>
      <point x="924" y="235" type="line" smooth="yes"/>
      <point x="914" y="182"/>
      <point x="909" y="146"/>
      <point x="909" y="117" type="curve" smooth="yes"/>
      <point x="909" y="29"/>
      <point x="970" y="-10"/>
    </contour>
    <contour>
      <point x="1137" y="566" type="curve" smooth="yes"/>
      <point x="1234" y="566"/>
      <point x="1289" y="602"/>
      <point x="1289" y="663" type="curve" smooth="yes"/>
      <point x="1289" y="724"/>
      <point x="1233" y="760"/>
      <point x="1137" y="760" type="curve" smooth="yes"/>
      <point x="1041" y="760"/>
      <point x="985" y="724"/>
      <point x="985" y="663" type="curve" smooth="yes"/>
      <point x="985" y="602"/>
      <point x="1041" y="566"/>
    </contour>
  </outline>
</glyph>
<glyph name="De.bgr" format="2">
  <advance width="951"/>
  <outline>
    <contour>
      <point x="390" y="605" type="line"/>
      <point x="496" y="48" type="line"/>
      <point x="828" y="48" type="line"/>
      <point x="691" y="710" type="line"/>
      <point x="445" y="710" type="line"/>
      <point x="28" y="47" type="line"/>
      <point x="91" y="47" type="line"/>
      <point x="443" y="605" type="line"/>
    </contour>
    <contour>
      <point x="794" y="-50" type="curve" smooth="yes"/>
      <point x="791" y="-170" type="line"/>
      <point x="853" y="-170" type="line"/>
      <point x="892" y="53" type="line"/>
      <point x="-34" y="53" type="line"/>
      <point x="-74" y="-170" type="line"/>
      <point x="-12" y="-170" type="line"/>
      <point x="26" y="-60" type="line" smooth="yes"/>
      <point x="41" y="-15"/>
      <point x="62" y="0"/>
      <point x="159" y="0" type="curve" smooth="yes"/>
      <point x="707" y="0" type="line" smooth="yes"/>
      <point x="763" y="0"/>
      <point x="795" y="-7"/>
    </contour>
  </outline>
</glyph>
